<svg width="175" height="69" viewBox="0 0 175 69" fill="none" xmlns="http://www.w3.org/2000/svg"><g clip-path="url(#clip0)"><path d="M171.9 34.9c-12.7-6.7-25.3-7.8-37.7.9-.6.4-1.5.9-2.2.8-5.3-.2-10.5-.5-16.6-.9 3.5-2.9 6.6-5 9.1-7.7 3.6-3.9 7.3-8.9 8.8-14.1.5-1.8.9-4.70001-.4-6.20001C127.6 11.2 122.2 14.8 117.3 18.9c-5.1 4.3-7 10.4-7.4 17.2-3.5.1-6.5.2-9.9.3-.2-2.2-.5-4-.6-5.7-.2-4.1-.1-14.5-.1-14.5s-5.2-4.7-7.1-6.70001c-3-3.1-5.9-6.2-9.1-9.599996C77.8 5.19999 72.3 10.8 66.7 16.4c1.7 6.1 1.4 12.4 1.7 19-2.4.1-4.3.2-6.2.3C63 22 53.4 8.29999 46 4.89999c.3 1.5.5 2.7.7 3.9C47.1 11.7 48 14.6 47.9 17.5c-.1 6.4 2.2 11.4 7.3 15.1.9.7 1.6 1.7 2.8 3.2-11 .2-21.2.3-32.1.5 3.1-2.2 6.9-4 9.4-7 .7-.8 5.8-9.4 5.8-9.7C37 18 31.8 22.3 28.9 25c-3.4 3.1-5.9 7.1-7.1 11.6-.2.6-5.5.4-6.2.4-2 0-3.9-.1-5.9-.2-3.2-.1-6.7-.4-9.7.9.8.8 2.1 1.3 3.2 1.3h14.5c2.9 0 6.5-1 8.6.4 2.2 1.5 3.1 5.1 4.3 7.9 3.2 7.4 8.7 15.4 16.6 18.3.2-3.5.3-6.7-.9-10-1.1-3.1-2.7-6.1-4.7-8.7-2.6-3.4-6.1-5.9-9.3-8.7 9.4-.1 17.6-.3 26.1-.4 2 6.3 3.3 12.7 8.5 17 5 4.1 11 5.7 16.9 7.8-2.2-6.7-5.5-12.5-11.3-16.5-3.2-2.3-6.6-4.4-9.2-7.8 12.5.3 24.6.5 36.6.7 4.8 14.7 17.5 29.2 26.6 29.9-.7-3.3-1.2-6.5-2.2-9.5-1.9-5.5-5.7-9.8-9.8-13.8-2-1.9-4.9-5-8.6-6.8 5.3-.2 11.7-.6 15.8-.3 5.7.4 11.3 1 16.9 2.1 4.9 1 9.8 2 14.8 1.8 4.8-.1 9.5-1.6 14.2-2.8 2.7-.7 4.8-1.5 7.3-2.7-1.4-1-2.2-1.6-3-2zM35.7 22.4C34.8 28 32 31 26.6 32c1.9-4.6 5.4-6.7 9.1-9.6zm8.3 33c.4 1.5 1.1 4.1.5 5.5-3.3-.8-6.1-4.4-7.8-7-2.5-3.7-4.3-7.8-5.3-12.1 6.4 1.6 11.1 7.3 12.6 13.6zm6.3-44.2c6.1 6.3 9.5 12.9 9.6 21.2-8.2-2.4-10.5-10.2-9.6-21.2zm29.2 46.9c-9.9-1.4-16.6-8.2-16.8-16.9 6.4 4.9 14 8.3 16.8 16.9zm43.7 7.7c-10.1-6.2-17.2-14-20.3-25.6 8.4 1.9 20.2 16.8 20.3 25.6zm7.5-53.2c0 8.3-7.8 17.6-18.1 21.2 0-8.5 8.4-18.2 18.1-21.2zm6.4 24.8c5.6-7.4 24.6-7.2 31.9-1-10.7 3.8-21.1 5.5-31.9 1z" fill="#BFE9FF"/></g><defs><clipPath id="clip0"><path fill="#fff" d="M0 0h174.9v68.8H0z"/></clipPath></defs></svg>