<svg width="75" height="20" viewBox="0 0 75 20" fill="none" xmlns="http://www.w3.org/2000/svg">
<path opacity="0.5" fill-rule="evenodd" clip-rule="evenodd" d="M11.803 6.37933L10.9948 7.95633L10.9953 7.95414L10.162 6.37714C10.1367 6.32719 10.0712 6.26489 9.98103 6.37784L9.98202 6.37659C9.76195 6.62892 9.48375 6.82537 9.17083 6.94941C8.85791 7.07346 8.5194 7.12148 8.18378 7.08944C7.84816 7.0574 7.52524 6.94623 7.24217 6.76527C6.95909 6.58432 6.72414 6.33889 6.55708 6.04959C6.39001 5.7603 6.29571 5.43562 6.2821 5.10285C6.2685 4.77007 6.33599 4.43894 6.4789 4.13728C6.62181 3.83563 6.83596 3.57228 7.10334 3.36938C7.37072 3.16647 7.68352 3.02995 8.01544 2.97128L7.94266 2.98061C7.38213 2.55755 6.95659 2.52463 6.83882 2.5795C5.21611 3.29722 4.86779 5.42622 6.77604 7.51791C6.78285 7.52759 6.78632 7.53918 6.78594 7.55096C6.78556 7.56273 6.78135 7.57408 6.77394 7.58331C6.76652 7.59255 6.75629 7.59917 6.74477 7.60222C6.73324 7.60526 6.72103 7.60456 6.70994 7.60022C4.08231 6.24762 4.5178 3.51611 4.72756 2.20046V2.20046L4.72756 2.20045C4.77665 1.89252 4.81338 1.66215 4.79558 1.54518C4.72912 1.10466 4.47325 0.695258 4.29646 0.412382C4.25304 0.342909 4.21439 0.281068 4.18449 0.228271C4.17066 0.2042 4.1637 0.176877 4.16435 0.149209C4.16499 0.121541 4.17322 0.0945627 4.18815 0.0711447C4.20308 0.0477268 4.22416 0.0287449 4.24915 0.0162185C4.27413 0.00369207 4.30209 -0.00191034 4.33004 7.2864e-06C4.5729 0.015227 4.99117 0.273577 5.55475 0.621686C6.7792 1.378 8.68962 2.55802 10.9775 2.58883C13.266 2.55801 15.1773 1.37741 16.4017 0.621113C16.9648 0.273293 17.3826 0.0152187 17.625 7.2864e-06C17.6537 -0.00227384 17.6824 0.00335047 17.708 0.0162524C17.7335 0.0291542 17.755 0.048826 17.7699 0.0730716C17.7848 0.0973172 17.7926 0.125183 17.7925 0.153557C17.7923 0.181932 17.7841 0.209699 17.7689 0.233759C17.7399 0.284596 17.7026 0.344196 17.6607 0.411198L17.6605 0.411532L17.6605 0.411557C17.4839 0.693847 17.2251 1.1074 17.1578 1.55067C17.1401 1.66679 17.1767 1.89599 17.2257 2.20261L17.2257 2.20264C17.4352 3.51586 17.8715 6.24921 15.244 7.60241C15.2329 7.60676 15.2207 7.60746 15.2092 7.60441C15.1977 7.60137 15.1874 7.59474 15.18 7.58551C15.1726 7.57628 15.1684 7.56493 15.168 7.55315C15.1676 7.54137 15.1711 7.52978 15.1779 7.5201C17.0862 5.42896 16.7378 3.29996 15.1151 2.5817C14.9974 2.52957 14.5718 2.55975 14.0113 2.98281L13.9824 2.97896C14.3122 3.04233 14.6219 3.18272 14.8855 3.3884C15.1492 3.59409 15.3592 3.85909 15.4981 4.16129C15.6369 4.4635 15.7005 4.79412 15.6836 5.12556C15.6667 5.457 15.5697 5.77963 15.4008 6.06652C15.232 6.3534 14.996 6.59621 14.7128 6.77466C14.4295 6.95312 14.1071 7.06204 13.7725 7.09234C13.4379 7.12263 13.1009 7.07342 12.7895 6.94881C12.4781 6.8242 12.2014 6.62781 11.9825 6.37604L11.9897 6.38372C11.898 6.26575 11.828 6.3305 11.803 6.37933ZM9.11037 3.9175C8.8347 3.76439 8.51781 3.69933 8.20321 3.73125C7.85279 3.7668 7.5255 3.92056 7.27647 4.16664C7.02743 4.41271 6.87189 4.73605 6.83604 5.08218C6.80386 5.39293 6.86986 5.70591 7.02497 5.97813C7.18009 6.25035 7.41673 6.46847 7.70238 6.60253C7.98803 6.73659 8.3087 6.78002 8.62034 6.72686C8.93199 6.6737 9.21933 6.52655 9.44291 6.30562C9.6665 6.0847 9.81536 5.80082 9.86905 5.49298C9.92275 5.18514 9.87865 4.86843 9.7428 4.58633C9.60696 4.30424 9.38604 4.0706 9.11037 3.9175ZM14.8907 5.97586C15.0453 5.70331 15.1107 5.39017 15.0779 5.07943C15.0413 4.73359 14.8852 4.41075 14.6359 4.16521C14.3866 3.91968 14.0593 3.76643 13.7091 3.73125C13.3944 3.69973 13.0775 3.76522 12.802 3.91872C12.5266 4.07222 12.3059 4.3062 12.1705 4.58853C12.035 4.87086 11.9914 5.18768 12.0456 5.49548C12.0998 5.80328 12.2491 6.08696 12.4731 6.30756C12.6971 6.52816 12.9847 6.67486 13.2965 6.7275C13.6083 6.78014 13.9289 6.73615 14.2144 6.60156C14.4998 6.46698 14.7361 6.2484 14.8907 5.97586ZM6.8099 19.1063C7.44996 19.387 8.11674 19.6039 8.80037 19.7538C9.14221 18.5218 9.60358 17.3252 10.1781 16.1806C11.3006 13.9538 12.8312 11.9518 14.6923 10.2759H11.7447C10.1865 11.979 8.90575 13.9108 7.94818 16.0023L7.91152 16.0851C7.47058 17.0645 7.1024 18.0742 6.8099 19.1063ZM6.87212 14.7112C7.26685 13.9152 7.7066 13.1417 8.18928 12.3945H8.18484C7.46594 11.8717 6.94556 11.1257 6.70712 10.2759H3.94113C4.08603 11.1774 4.42202 12.0384 4.92711 12.8027C5.43219 13.567 6.09499 14.2174 6.87212 14.7112ZM8.98416 11.2346L8.98703 11.2367H8.98258L8.98416 11.2346ZM9.72922 10.2759C9.47128 10.5891 9.22293 10.9087 8.98416 11.2346C8.65049 10.9824 8.38443 10.6532 8.20928 10.2759H9.72922ZM2.38398 10.2759H0.522949C0.641356 11.9102 1.14636 13.4941 1.99736 14.9005C2.84836 16.3068 4.0216 17.4963 5.42274 18.3733C5.65274 17.605 5.92234 16.8488 6.23048 16.1076C5.18558 15.485 4.29681 14.637 3.63069 13.6271C2.96457 12.6172 2.53837 11.4716 2.38398 10.2759ZM11.553 16.8555C11.0502 17.8558 10.6411 18.8994 10.3309 19.9733C10.582 19.9912 10.8349 20.0002 11.0897 20.0002C11.5755 20.0001 12.0607 19.9671 12.5419 19.9014C13.2423 17.8143 14.3593 15.8871 15.8269 14.2337C17.2944 12.5803 19.0827 11.2344 21.0859 10.2754H17.0961C14.7562 12.0139 12.8584 14.2668 11.553 16.8555ZM21.432 11.8019C18.2041 13.4419 15.6814 16.1746 14.3251 19.5003V19.5009C16.0855 18.9392 17.667 17.9336 18.9134 16.5833C20.1598 15.2331 21.028 13.585 21.432 11.8019ZM49.0972 14.7596C49.8252 14.965 50.5766 15.0676 51.3512 15.0676C52.2472 15.0676 53.0079 14.9323 53.6332 14.6616C54.2586 14.391 54.7252 14.027 55.0332 13.5696C55.3506 13.103 55.5092 12.5896 55.5092 12.0296C55.5092 11.3763 55.3366 10.8583 54.9912 10.4756C54.6552 10.093 54.2492 9.81297 53.7732 9.63564C53.2972 9.45831 52.6859 9.28097 51.9392 9.10364C51.2206 8.94497 50.6839 8.78631 50.3292 8.62764C49.9839 8.45964 49.8112 8.20764 49.8112 7.87164C49.8112 7.53564 49.9606 7.26497 50.2592 7.05964C50.5672 6.85431 51.0386 6.75164 51.6732 6.75164C52.5786 6.75164 53.4839 7.00831 54.3892 7.52164L55.0892 5.79964C54.6412 5.51964 54.1186 5.30497 53.5212 5.15564C52.9239 5.00631 52.3126 4.93164 51.6872 4.93164C50.7912 4.93164 50.0306 5.06697 49.4052 5.33764C48.7892 5.60831 48.3272 5.97697 48.0192 6.44364C47.7112 6.90097 47.5572 7.41431 47.5572 7.98364C47.5572 8.63697 47.7252 9.15964 48.0612 9.55164C48.4066 9.94364 48.8172 10.2283 49.2932 10.4056C49.7692 10.583 50.3806 10.7603 51.1272 10.9376C51.6126 11.0496 51.9952 11.1523 52.2752 11.2456C52.5646 11.339 52.7979 11.465 52.9752 11.6236C53.1619 11.773 53.2552 11.9643 53.2552 12.1976C53.2552 12.515 53.1012 12.7716 52.7932 12.9676C52.4852 13.1543 52.0092 13.2476 51.3652 13.2476C50.7866 13.2476 50.2079 13.1543 49.6292 12.9676C49.0506 12.781 48.5512 12.5336 48.1312 12.2256L47.3612 13.9336C47.7999 14.2696 48.3786 14.545 49.0972 14.7596ZM36.42 5.09964V14.8996H34.558L29.672 8.94964V14.8996H27.432V5.09964H29.308L34.18 11.0496V5.09964H36.42ZM46.3266 13.0796V14.8996H38.7386V5.09964H46.1446V6.91964H40.9926V9.04764H45.5426V10.8116H40.9926V13.0796H46.3266ZM58.9522 6.94764H55.8162V5.09964H64.3562V6.94764H61.2202V14.8996H58.9522V6.94764ZM69.7691 4.99951H66.4774V5.82843H67.6524V8.99951H68.5857V5.82843H69.7691V4.99951ZM73.5941 6.71517L73.6024 8.99951H74.4774L74.4607 4.99951H73.7024L72.3524 7.40915L70.9691 4.99951H70.2024V8.99951H71.0774V6.77301L72.1274 8.58505H72.5441L73.5941 6.71517Z" fill="white"/>
</svg>
