<svg width="75" height="20" viewBox="0 0 75 20" fill="none" xmlns="http://www.w3.org/2000/svg">
<path fill-rule="evenodd" clip-rule="evenodd" d="M11.8029 6.37964L10.9946 7.95664L10.9952 7.95444L10.1619 6.37744C10.1366 6.3275 10.0711 6.26519 9.98091 6.37815L9.98189 6.37689C9.76182 6.62922 9.48363 6.82567 9.17071 6.94972C8.85779 7.07377 8.51928 7.12179 8.18366 7.08974C7.84804 7.0577 7.52512 6.94653 7.24204 6.76558C6.95897 6.58463 6.72402 6.33919 6.55695 6.0499C6.38989 5.76061 6.29559 5.43593 6.28198 5.10315C6.26838 4.77038 6.33587 4.43924 6.47878 4.13759C6.62169 3.83594 6.83584 3.57259 7.10322 3.36968C7.3706 3.16678 7.6834 3.03025 8.01531 2.97159L7.94254 2.98092C7.38201 2.55786 6.95647 2.52494 6.8387 2.57981C5.21599 3.29752 4.86767 5.42652 6.77592 7.51821C6.78273 7.52789 6.7862 7.53948 6.78582 7.55126C6.78544 7.56304 6.78123 7.57439 6.77382 7.58362C6.7664 7.59285 6.75617 7.59948 6.74465 7.60252C6.73312 7.60557 6.72091 7.60487 6.70981 7.60052C4.08219 6.24792 4.51768 3.51642 4.72744 2.20077V2.20076L4.72744 2.20076C4.77653 1.89283 4.81326 1.66246 4.79545 1.54549C4.729 1.10496 4.47313 0.695563 4.29634 0.412687C4.25292 0.343214 4.21427 0.281373 4.18437 0.228577C4.17054 0.204505 4.16358 0.177182 4.16423 0.149514C4.16487 0.121846 4.1731 0.0948679 4.18803 0.0714499C4.20296 0.048032 4.22404 0.0290501 4.24903 0.0165237C4.27401 0.00399725 4.30197 -0.00160516 4.32992 0.000312462C4.57278 0.0155322 4.99104 0.273882 5.55463 0.621992C6.77908 1.37831 8.6895 2.55832 10.9774 2.58914C13.2659 2.55832 15.1772 1.37771 16.4016 0.621418C16.9647 0.273598 17.3825 0.0155238 17.6249 0.000312462C17.6535 -0.00196866 17.6822 0.00365564 17.7078 0.0165575C17.7334 0.0294594 17.7549 0.0491312 17.7698 0.0733768C17.7847 0.0976224 17.7925 0.125488 17.7923 0.153862C17.7922 0.182237 17.784 0.210004 17.7688 0.234064C17.7398 0.284901 17.7025 0.344501 17.6606 0.411504L17.6604 0.411837L17.6604 0.411862C17.4837 0.694152 17.225 1.1077 17.1577 1.55097C17.14 1.6671 17.1766 1.89629 17.2255 2.20291L17.2255 2.20295C17.4351 3.51616 17.8713 6.24951 15.2439 7.60272C15.2328 7.60706 15.2206 7.60776 15.2091 7.60472C15.1975 7.60167 15.1873 7.59505 15.1799 7.58581C15.1725 7.57658 15.1683 7.56523 15.1679 7.55346C15.1675 7.54168 15.171 7.53009 15.1778 7.52041C17.086 5.42927 16.7377 3.30027 15.115 2.582C14.9972 2.52987 14.5717 2.56005 14.0112 2.98311L13.9823 2.97927C14.3121 3.04264 14.6217 3.18303 14.8854 3.38871C15.1491 3.59439 15.3591 3.8594 15.4979 4.1616C15.6368 4.4638 15.7004 4.79443 15.6835 5.12587C15.6666 5.45731 15.5696 5.77994 15.4007 6.06682C15.2318 6.3537 14.9959 6.59651 14.7126 6.77497C14.4294 6.95342 14.107 7.06235 13.7724 7.09264C13.4378 7.12294 13.1007 7.07373 12.7893 6.94912C12.4779 6.82451 12.2013 6.62812 11.9824 6.37635L11.9896 6.38403C11.8979 6.26605 11.8279 6.3308 11.8029 6.37964ZM9.11025 3.9178C8.83458 3.7647 8.51769 3.69964 8.20308 3.73155C7.85267 3.7671 7.52538 3.92087 7.27634 4.16694C7.02731 4.41302 6.87177 4.73636 6.83592 5.08248C6.80374 5.39324 6.86973 5.70621 7.02485 5.97844C7.17997 6.25066 7.4166 6.46877 7.70226 6.60283C7.98791 6.7369 8.30858 6.78033 8.62022 6.72717C8.93187 6.67401 9.21921 6.52686 9.44279 6.30593C9.66638 6.085 9.81524 5.80113 9.86893 5.49328C9.92263 5.18544 9.87853 4.86873 9.74268 4.58664C9.60684 4.30455 9.38591 4.07091 9.11025 3.9178ZM14.8906 5.97616C15.0452 5.70362 15.1106 5.39047 15.0778 5.07974C15.0412 4.73389 14.8851 4.41105 14.6358 4.16552C14.3865 3.91998 14.0592 3.76674 13.709 3.73155C13.3943 3.70004 13.0774 3.76552 12.8019 3.91903C12.5264 4.07253 12.3058 4.30651 12.1704 4.58883C12.0349 4.87116 11.9913 5.18798 12.0455 5.49578C12.0997 5.80358 12.249 6.08727 12.473 6.30787C12.697 6.52847 12.9846 6.67516 13.2964 6.7278C13.6081 6.78045 13.9288 6.73645 14.2142 6.60187C14.4997 6.46728 14.7359 6.24871 14.8906 5.97616ZM6.80978 19.1067C7.44984 19.3873 8.11662 19.6042 8.80024 19.7541C9.14208 18.5221 9.60346 17.3255 10.178 16.1809C11.3004 13.9541 12.831 11.9521 14.6922 10.2762H11.7446C10.1864 11.9793 8.90563 13.9111 7.94806 16.0026L7.91139 16.0855C7.47045 17.0648 7.10228 18.0745 6.80978 19.1067ZM6.872 14.7115C7.26673 13.9155 7.70648 13.142 8.18916 12.3948H8.18472C7.46582 11.872 6.94544 11.126 6.707 10.2762H3.94101C4.08591 11.1777 4.4219 12.0387 4.92698 12.803C5.43207 13.5673 6.09486 14.2177 6.872 14.7115ZM8.98404 11.2349L8.9869 11.237H8.98246L8.98404 11.2349ZM9.72909 10.2762C9.47116 10.5894 9.22281 10.909 8.98404 11.2349C8.65036 10.9827 8.38431 10.6535 8.20916 10.2762H9.72909ZM2.38386 10.2762H0.522827C0.641234 11.9105 1.14624 13.4944 1.99724 14.9008C2.84824 16.3071 4.02148 17.4966 5.42261 18.3736C5.65262 17.6053 5.92222 16.8491 6.23036 16.1079C5.18546 15.4853 4.29669 14.6373 3.63057 13.6274C2.96445 12.6175 2.53824 11.4719 2.38386 10.2762ZM11.5529 16.8558C11.0501 17.8561 10.641 18.8997 10.3307 19.9736C10.5818 19.9915 10.8348 20.0005 11.0896 20.0005C11.5754 20.0005 12.0606 19.9675 12.5417 19.9017C13.2422 17.8146 14.3592 15.8874 15.8268 14.234C17.2943 12.5806 19.0826 11.2347 21.0858 10.2757H17.096C14.7561 12.0142 12.8582 14.2671 11.5529 16.8558ZM21.4319 11.8022C18.2039 13.4423 15.6813 16.1749 14.325 19.5006V19.5012C16.0854 18.9395 17.6669 17.9339 18.9133 16.5836C20.1597 15.2334 21.0278 13.5853 21.4319 11.8022ZM49.0971 14.7599C49.8251 14.9653 50.5764 15.0679 51.3511 15.0679C52.2471 15.0679 53.0078 14.9326 53.6331 14.6619C54.2584 14.3913 54.7251 14.0273 55.0331 13.5699C55.3504 13.1033 55.5091 12.5899 55.5091 12.0299C55.5091 11.3766 55.3364 10.8586 54.9911 10.4759C54.6551 10.0933 54.2491 9.81328 53.7731 9.63595C53.2971 9.45861 52.6858 9.28128 51.9391 9.10395C51.2204 8.94528 50.6838 8.78661 50.3291 8.62795C49.9838 8.45995 49.8111 8.20795 49.8111 7.87195C49.8111 7.53595 49.9604 7.26528 50.2591 7.05995C50.5671 6.85461 51.0384 6.75195 51.6731 6.75195C52.5784 6.75195 53.4838 7.00861 54.3891 7.52195L55.0891 5.79995C54.6411 5.51995 54.1184 5.30528 53.5211 5.15595C52.9238 5.00661 52.3124 4.93195 51.6871 4.93195C50.7911 4.93195 50.0304 5.06728 49.4051 5.33795C48.7891 5.60861 48.3271 5.97728 48.0191 6.44395C47.7111 6.90128 47.5571 7.41461 47.5571 7.98395C47.5571 8.63728 47.7251 9.15995 48.0611 9.55195C48.4064 9.94395 48.8171 10.2286 49.2931 10.4059C49.7691 10.5833 50.3804 10.7606 51.1271 10.9379C51.6124 11.0499 51.9951 11.1526 52.2751 11.2459C52.5644 11.3393 52.7978 11.4653 52.9751 11.6239C53.1618 11.7733 53.2551 11.9646 53.2551 12.1979C53.2551 12.5153 53.1011 12.7719 52.7931 12.9679C52.4851 13.1546 52.0091 13.2479 51.3651 13.2479C50.7864 13.2479 50.2078 13.1546 49.6291 12.9679C49.0504 12.7813 48.5511 12.5339 48.1311 12.2259L47.3611 13.9339C47.7998 14.2699 48.3784 14.5453 49.0971 14.7599ZM36.4199 5.09995V14.8999H34.5579L29.6719 8.94995V14.8999H27.4319V5.09995H29.3079L34.1799 11.0499V5.09995H36.4199ZM46.3265 13.0799V14.8999H38.7385V5.09995H46.1445V6.91995H40.9925V9.04795H45.5425V10.8119H40.9925V13.0799H46.3265ZM58.9521 6.94795H55.8161V5.09995H64.3561V6.94795H61.2201V14.8999H58.9521V6.94795ZM69.769 4.99982H66.4773V5.82873H67.6523V8.99982H68.5856V5.82873H69.769V4.99982ZM73.594 6.71548L73.6023 8.99982H74.4773L74.4606 4.99982H73.7023L72.3523 7.40946L70.969 4.99982H70.2023V8.99982H71.0773V6.77331L72.1273 8.58536H72.544L73.594 6.71548Z" fill="#E6E6E6"/>
</svg>
