<svg width="21" height="22" viewBox="0 0 21 22" fill="none" xmlns="http://www.w3.org/2000/svg">
<path d="M19.6875 16.9062L18.7596 15.9783L17.0625 17.6754V12.3125H15.75V17.6754L14.0529 15.9783L13.125 16.9062L16.4062 20.1875L19.6875 16.9062Z" fill="#0D77AE"/>
<path d="M11.8125 18.875H5.25V3.12498H10.5V7.06248C10.501 7.41026 10.6397 7.74349 10.8856 7.98941C11.1315 8.23533 11.4647 8.37394 11.8125 8.37498H15.75V10.3437H17.0625V7.06248C17.0648 6.97623 17.0484 6.89051 17.0144 6.81121C16.9804 6.7319 16.9297 6.66091 16.8656 6.6031L12.2719 2.00935C12.2141 1.94527 12.1431 1.89448 12.0638 1.86049C11.9845 1.8265 11.8988 1.81012 11.8125 1.81248H5.25C4.90222 1.81352 4.56899 1.95213 4.32307 2.19805C4.07715 2.44397 3.93854 2.7772 3.9375 3.12498V18.875C3.93854 19.2228 4.07715 19.556 4.32307 19.8019C4.56899 20.0478 4.90222 20.1864 5.25 20.1875H11.8125V18.875ZM11.8125 3.38748L15.4875 7.06248H11.8125V3.38748Z" fill="#0D77AE"/>
</svg>
