<svg width="103" height="105" viewBox="0 0 103 105" fill="none" xmlns="http://www.w3.org/2000/svg"><g clip-path="url(#clip0)"><path d="M43.4907.574718c-.7053.111229-1.0394.148305-.761.09269.297-.055614.5197-.148305.5197-.203919-.0185-.111229.3713-.185381 1.2808-.148305.7982.018538.594.037076-1.0395.259534zM10.5434 19.3168c.3341-.4264.5568-.7416.5197-.7601-.0186-.0185-.2413.1669-.4641.4264-.2227.2595-.3898.5005-.3712.5191.0371.0185-.29698.4449-.66822.9454-.42692.5747-.48261.6674-.16706.2781.3898-.4449.81668-.9826 1.15088-1.4089zM72.8371 4.43065c.1485.09269.6496.33369 1.0951.53761.724.31514.6868.27807-.2598-.20392-1.0766-.57469-1.3922-.68591-.8353-.33369zM10.0608 13.0694c.3155-.2039.5568-.3893.5382-.4078-.0185-.0371.2413-.2596.5755-.5005.5011-.3708.6496-.5006.9095-.8713.1671-.241.6868-.7972 1.1508-1.2236.7054-.68587 1.2066-1.11224 1.4479-1.37178.2598-.25953.2784-.33369.0928-.25953-.1671.09269-.5383.33368-1.0766.74152-.5198.40784-1.188 1.00109-1.949 1.72409-2.07895 2.0577-2.48731 2.688-1.6891 2.1689zm72.1686-3.09585c-.4269-.35222-1.058-.85275-1.4293-1.07521-.3526-.22246.0186.03708.7982.6303.761.59326 1.058.81566.6311.44491zM96.3736 76.6181c.6496-1.2605.6496-1.2605-.0557-.278-.4269.5932-.5012.7044-.3156.5747.13-.1113.13.037.0186.2966-.1299.2595.0371 0 .3527-.5933zm-6.3482 9.2135c-.2599.2966-.7425.8713-1.0766 1.3162l-.594.8157.7425-.7415c.5197-.5376.8353-.9084 1.0766-1.3348.297-.5191.2784-.5191-.1485-.0556zm12.9186-33.035c0 .5191 0 .6118.038.2596.018-.3152.037-.7045 0-.8528-.038-.1297-.038.1298-.038.5932zM84.197 11.642c.464.4078.6682.5561.4455.3337-.2228-.2225-.594-.5376-.8353-.723-.2599-.1854-.0743-.0186.3898.3893zM69.3289 2.92906c-.297-.12977-.6497-.27807-.7982-.31515-.1485-.03707.0928.07416.5383.241.4826.20392.5754.22246.2599.07415zM94.6288 80.196c-.297.4635-.5012.8528-.4827.8713.0743.0556.3342-.3522.7054-1.1308.2227-.482.1856-.4264-.2227.2595zm2.3388-4.1155c-.3527.6489-.6683 1.2977-.6868 1.4089-.0372.1298.2784-.3893.6682-1.1679.4455-.8527.6311-1.3347.6311-1.3903-.0186-.0556-.1856.3337-.6125 1.1493zm4.6594-12.9952c-.13.4449-.576 2.5953-.632 2.9846 0 .1298.205-.5561.427-1.5572.205-.9083.316-1.4459.335-1.6869.018-.2225-.019-.1113-.13.2595zm1.336-11.7717c.019-.2966 0-.7972-.037-1.1123-.037-.2966-.037-.0556-.019.5561.019.6303.056.8713.056.5562zm-3.8051-21.1149c.1113.2595.1299.2224.0556-.0927-.0742-.2966-.2041-.6118-.2784-.723-.0742-.1112-.0928-.0556-.0557.0927.0557.1668.1671.482.2785.723zm.5754 3.5778c-.0928-.3151-.2413-.6674-.3156-.7971-.0742-.1298 0 .1297.1856.5561.1857.482.2413.5932.13.241zM89.5799 16.7956c-.1299-.1669-.3155-.3893-.5012-.5932-.1856-.204-.3898-.4079-.5382-.5562-.3156-.2966-.0743-.0371.5011.5932s.8167.8899.5383.5562zm12.8081 27.3252c.037.2781.074.6674.13 1.0937.092.8528.185 1.5573.222 1.5573.037 0-.018-.7045-.13-1.5573-.055-.4263-.111-.8156-.167-1.0937-.018-.1483-.055-.2595-.074-.3337-.018-.0741-.018-.1298-.037-.1112v.1297c.019.0557.037.1669.056.3152zM86.9627 88.2972c-.4269.4078-1.0023.964-1.652 1.5572-.4269.3893-.7982.723-1.1323 1.001-.3341.2781-.6497.5191-.9095.723-.5383.4079-.9096.6674-1.2066.8342-.9095.482-.8352.2596.13-.5376.3712-.3151.8167-.8156 1.1323-1.2235.3155-.4078.5011-.7786.3712-.7601-.1114 0-.4826.3337-1.0209.7972-.5383.482-1.2251 1.1123-1.949 1.7426-.3712.3151-.7239.6488-1.0766.964-.3527.3151-.7053.6117-1.0209.8712-.3155.2781-.594.5191-.8167.7416-.2413.2039-.4084.3707-.5198.5005-.1299.1483-.464.4264-.761.6118-1.0395.6488-.4084.4449 1.355-.5006.3898-.2039.8353-.482 1.3365-.7971.5011-.3152 1.0394-.6488 1.5963-1.0567.5569-.3893 1.1323-.7971 1.6891-1.2235.5569-.4449 1.1137-.8898 1.6335-1.3162 1.0209-.8898 1.949-1.7426 2.5801-2.41.6311-.6488 1.0023-1.0937.9652-1.1308 0 0-.0742.0556-.2042.1669-.1485.0926-.3155.2409-.5197.4449zm4.6776-4.9497c-.1299.1854-.3898.6118-.594.9084-.1856.2966-.2227.4078-.0742.2039.1485-.1854.4269-.5932.5939-.9084.1857-.2966.2042-.3893.0743-.2039zm10.5987-22.7834c.037-.241.056-.4634.074-.6117.019-.2966-.037.0556-.148.7786-.13.723-.149.964-.056.5561.056-.241.093-.482.13-.723zM78.7398 7.56359c-.3527-.25953-.8539-.57468-1.1323-.72298-.2599-.14831.0186.05561.6497.44491.6125.40784.8352.53761.4826.27807zM14.8126 79.3433c-.0186.0185.2599.4078.6497.8712.2041.2225.3898.4264.5197.5562.1299.1483.2227.2224.2227.2224s-.0742-.0926-.1856-.2595c-.1299-.1483-.297-.3522-.4826-.5747-.3712-.4634-.6868-.8342-.7239-.8156zm3.5639 3.4851c.3155.3152.6868.6303.9838.8899.6682.5932.8352.7044.4269.3151-.3527-.3337-1.2065-1.0752-1.8191-1.724-.8724-.8343-.9652-.927-.4083-.3523.1856.241.5011.5376.8167.8713zM1.9492 67.8311c.29699.76.55686 1.4459.7796 1.9465.11137.241.20418.4449.27843.5747.07425.1297.11137.2039.11137.2039s-.01856-.0742-.07425-.2039c-.05568-.1298-.12993-.3152-.22274-.5562-.20418-.4634-.44549-1.1123-.72391-1.8167-.33412-.8157-.57542-1.6128-.79817-2.3173-.22274-.7044-.371233-1.3347-.464043-1.8167-.259866-1.3162-.315552-1.5016-.426923-1.4831-.204181.0371-.148496.4449.241304 1.6128.148495.5747.723912 2.3173 1.299332 3.856zM.594183 41.4142c.148495-.3522.222742-.9083.408357-1.9279.25987-1.4275.25987-1.4275-.03712-.2225-.167057.6674-.259866 1.3348-.259866 1.4831 0 .1483-.055686.3522-.129933.4449-.074248.0927-.148496.2966-.167057.4449 0 .1668.074247.0556.185619-.2225zm-.593981 3.5594c.018562.1483.055685.0741.09281-.1484.037123-.2224.055685-.519.037123-.6673-.018562-.1483-.055686-.0742-.09281.1483-.037123.2224-.055685.519-.037123.6674zM2.339 34.6849c.07425-.2225.12993-.4079.07425-.4079-.03713-.0185-.12993.1484-.22274.3708-.07425.2039-.11138.4079-.07425.4079.05568.0185.14849-.1484.22274-.3708zm.63111-1.8909c.0928-.1483.25986-.5932.37123-.9825.16706-.5191.1485-.5932-.03712-.241-.27843.5376-.59398 1.6684-.33411 1.2235zm-.68679 7.0445c.03712.0185.11137-.1669.12993-.3708.03712-.2224.14849-.7044.2413-1.0937.1485-.5747.37124-1.4645.57542-2.2431.20418-.7786.40836-1.446.40836-1.5758.01857-.1297-.16705.3522-.37123.964-.18562.6118-.3898 1.3533-.46405 1.7426-.03713.2224-.22274.8713-.35268 1.483-.12993.5747-.20418 1.0753-.16705 1.0938zM14.9982 14.9047c.1299-.1112.4269-.4264.6682-.6674.3527-.3707.297-.3522-.2784.1483-.3898.3337-.6868.6489-.6497.6859.0186.0186.13-.0556.2599-.1668zM5.79151 75.6171c-.27842-.4079-.25986-.3522.07425.2966.24131.4449.48261.7786.51973.7601.03713-.0186 0-.1483-.0928-.2966-.07425-.1298-.31556-.4635-.50118-.7601zM35.0822 2.44707c.4826-.14831.5754-.18538.2413-.11123-.3156.05561-.6682.16684-.7982.241-.1299.05561.1114 0 .5569-.12977zM17.2813 12.7172c-.2413.1668-.6125.4634-.8167.6674-.2042.2039-.0186.0556.4269-.3152.4641-.3522.6311-.519.3898-.3522zm-9.98627 11.197c.94665-1.5386 1.11371-1.8352.61254-1.242-.22274.278-.55686.7786-.83529 1.2606-.27842.482-.4826.9454-.50117 1.0752 0 .1483.16706-.1483.72392-1.0938zM15.388 82.2167c.0371-.0371-.0742-.1669-.2227-.2966-.1485-.1298-.297-.241-.297-.241-.0186.0185.0928.1483.2227.2966.13.1668.2785.2595.297.241zM1.93064 52.7596c.01856.0741.01856-.0927.03712-.4079.01856-.3151.01856-.8156.01856-1.4274-.01856-1.1494.1485-3.4852.37124-5.1907.03713-.4264.12994-.9084.20418-1.3903.07425-.5006.1485-1.0011.24131-1.5202.20418-1.001.37124-1.965.53829-2.6324.1485-.6674.33412-1.3718.50117-1.965.18562-.5932.33412-1.0938.40837-1.3348.22274-.7044.64966-1.8723 1.00234-2.8548.18562-.482.35267-.927.48261-1.2606.12993-.3337.18562-.5376.18562-.5376-.03713-.0186-.29699.5005-.64967 1.3718-.18562.4264-.37124.9454-.59398 1.5386-.09281.2967-.20418.5933-.31555.9084-.09281.3152-.20418.6488-.29699.9825-.59398 1.9095-1.05803 3.9857-1.42927 6.0249-.14849 1.0196-.33411 2.0392-.42692 3.0217-.05569.5006-.11137.9826-.1485 1.4646-.03712.4819-.05568.9454-.09281 1.4088-.07424 1.0011-.07424 1.928-.05568 2.6139-.03713.6674 0 1.1309.01856 1.1865zm-.20418-9.9921c.09281-.4634.11137-.5561 0-.241-.09281.2781-.12994.6303-.1485.7601 0 .1297.07425-.1112.1485-.5191zm3.69382 24.804c.03712-.0185.01856-.1853-.05569-.3893-.07425-.2039-.1485-.3522-.18562-.3337-.03712.0186-.01856.1854.05569.3894.05568.2039.14849.3522.18562.3336zM77.9602 8.26804c.2413.11123-.0372-.11122-.7425-.55614-.6682-.42638-1.0209-.6303-1.0952-.64883-.0742-.01854.1857.12976.6868.50052.427.29662.9467.61176 1.1509.70445zM16.0191 13.3475c-.0185-.0371-.1856.0741-.3712.2225-.1671.1483-.297.2966-.2784.3336.0185.0371.1856-.0741.3712-.2224s.3155-.2966.2784-.3337zm6.1997-4.54185c-.0557.05561.0742 0 .3898-.14831.2413-.11122.594-.33368.7982-.50052.2784-.22246.1484-.18539-.4455.16684-.4455.25953-.6868.42638-.7425.48199zM67.714 3.18859c.5569.22246.7982.29661.5197.16685-.2784-.12977-.7239-.31515-1.0209-.3893-.297-.09269-.0557 0 .5012.22245zM39.3143 1.26063c-.2042.03708-.464.07415-.6868.11123-.2227.05561-.4455.11123-.594.1483-.2784.09269.0557.01854.7611-.12976.7053-.12977.9281-.18539.5197-.12977zM13.9773 15.1457c-.6497.7044-.4826.7044.2413 0 .3341-.3152.5754-.6118.5383-.6488-.0742-.0927-.1485-.0557-.7796.6488zM29.9591 4.33796c.2042-.07415.4826-.22246.594-.31515s-.0557-.05561-.4084.07415c-.3527.12977-.6125.27808-.594.31515.0186.03708.1857 0 .4084-.07415zM59.9366.926942c-.13-.074152-.5198-.166843-.8724-.203919-.9096-.111229-.7982-.055615.2413.148305.464.092691.761.129762.6311.055614zM19.8057 10.6224c-.0185-.0371-.1856.0741-.3712.2224s-.3155.2967-.297.3152c.0186.0185.1671-.0927.3713-.2225.1856-.1483.3155-.278.2969-.3151zm5.0303-3.6891c.4455-.241.5198-.29661.2042-.14831-.2784.12977-.6125.29661-.7239.3893-.1114.09269.1114-.03707.5197-.24099zm-4.2321 2.78072c.5197-.37076 1.3921-1.00106 1.9304-1.33475.5383-.35222.9838-.64883.9653-.68591-.0186-.03707-.3713.12977-.8724.42638-.5198.29661-1.1694.7786-1.8562 1.27913-.7239.53761-1.0766.90833-1.1137.96403-.0372.0741.2598-.1298.9466-.64888zM55.3518.333722c.2227.018538.5383.037076.6868.018538.1485-.018538-.0186-.074152-.3898-.129767-.3713-.055614-.6868-.055614-.6868-.018538-.0186.037076.167.092691.3898.129767zM100.067 43.4349c.112.1668.112.0556 0-.4449-.1852-.7601-.2966-.8528-.2595-.2225.0186.241.0557.4264.0743.4264.0185 0 .1113.1112.1852.241zm-7.61-20.151c-.2599-.3337-.4269-.4449-.6311-.5376-.1485-.0741-.2042-.0741-.1114.0927.0929.1669.3527.5191.7796 1.205.5198.8157.9653 1.4645 1.0024 1.446.0371-.0186.3341.3893.6496.9083.9281 1.4831.6868.7786-.4454-1.1864-.6312-1.0196-1.0024-1.5943-1.2437-1.928zm-2.3574-3.0588c.13.0927.1114.0186-.0371-.1668s-.3712-.4078-.4826-.5005c-.1299-.0927-.1114-.0186.0557.1668.1299.1854.3527.4079.464.5005zM3.97245 33.5726c-.07425-.0185.57542-2.0763 1.00234-2.9661.18562-.3708.55686-1.2791.87241-1.9836.31555-.7044.79816-1.6499 1.07659-2.0948.27843-.4449.48261-.8342.46405-.8527-.03713-.0186.18562-.3893.53829-.8713.35268-.4635.59398-.8343.57542-.8528-.03712-.0185.22274-.4634.57542-.9825.29699-.4449.72391-1.0382 1.48493-2.0763.3898-.5191.8724-1.1308 1.4664-1.8723.297-.3708.6497-.7601 1.0209-1.205.1856-.2225.3898-.4449.594-.6674.2042-.2224.4269-.4634.6682-.7044.4269-.445.9096-.964 1.3736-1.3904.4641-.4264.8539-.7971 1.0952-1.0011.4826-.4263.9837-.8527 1.0765-1.001.1114-.1483.9096-.8713 1.8191-1.5387.4641-.3337.9095-.6859 1.2808-.964.3712-.2595.6497-.4634.7425-.55611.2041-.1483.9095-.66737 1.6334-1.07521.7054-.42638 1.7634-1.03814 2.3202-1.37182.5569-.35223 2.7658-1.59428 5.0303-2.53973.2784-.12976.5754-.24099.891-.3893.3155-.12977.6497-.25953 1.0023-.3893.6868-.25953 1.4107-.53761 2.1532-.7786 1.4664-.50053 2.9328-.88983 4.0094-1.1679.0928-.01854.2042-.05562.297-.07416 0-.03707.2227-.12976.5011-.20392.3156-.07415.5198-.09269.5198-.01853.167-.03708.3155-.07416.4826-.09269.0928-.03708.2227-.07416.3712-.0927.0557 0 .0928-.01853.1485-.01853 1.6149-.31515 3.2483-.55615 4.195-.61176 1.3921-.14831 2.7286-.203921 2.9699-.240998.0928-.018538.3898-.037076.8539-.055614.464-.018538 1.1137-.018538 1.8933-.018538 1.5777 0 3.768.111229 6.3296.46345 1.0209.14831 1.7077.25954 2.246.35223s.9281.16684 1.3736.24099c.4083.07416 1.0209.20392 1.3364.31515.3156.11123 1.2251.35223 1.9861.53761.6126.1483 1.5407.44491 2.5987.7786.5197.18538 1.0766.3893 1.652.59322.2784.11123.5569.22246.8539.33369.2784.11123.5568.24099.8352.35222.5383.241 1.0766.46345 1.5592.70445.4826.241.9281.46345 1.3179.66737.3898.20392.7054.37077.9467.50053.2413.14831.3898.241.464.27807.2785.22246.7054.44492 1.3179.70445.297.12977.7239.35223 1.2437.66738.5197.31514 1.1694.68591 1.8562 1.18644 1.1879.81566 3.471 2.48406 5.0117 3.80036 3.1369 2.6324 4.7889 4.5603 5.8098 5.6912.9838 1.1679 1.2994 1.5942 1.3551 1.6869.0742.1113.4455.6118.8538 1.0938.4084.482 2.6544 3.6149 4.4549 7.2484 1.3921 2.8363 2.0047 4.5789 2.3759 5.5244.3527.9639.4455 1.1493.4455 1.0381.0185-.2039.0928-.0185.3527.8898.1856.6303.3341 1.3348.3712 1.5387 0 .0556.1301.482.3151 1.2235.168.7415.427 1.7797.669 3.0773.519 2.5768.946 6.1362.946 9.9736.019 3.8373-.427 7.4708-.965 10.1403-.111.6674-.26 1.2791-.39 1.8353-.13.5561-.241 1.0381-.352 1.4274-.2231.7972-.3716 1.3162-.4087 1.446-.0743.2595-.297 1.0196-.6497 1.9836-.1856.482-.3712 1.0381-.594 1.5943-.2227.5746-.4826 1.1679-.7425 1.7611-1.058 2.3543-1.9304 4.0042-2.9327 5.7097-.2599.4264-.5198.8528-.7796 1.2977-.2785.4449-.5754.8898-.891 1.3718-.3156.482-.6497 1.0011-1.058 1.5201-.3898.5377-.7982 1.1123-1.2808 1.7056-.8353 1.0566-1.5035 1.8538-2.0047 2.3728-.4826.5191-.761.7972-.8353.8343-.0742.037.1857-.2781.9838-1.2236.7796-.9639 2.1161-2.5582 3.9166-5.3204 1.2622-1.928 2.2831-3.8374 3.0256-5.3019.7239-1.4645 1.1322-2.5027 1.2251-2.651.0742-.1668.2413-.6117.4826-1.1864.2413-.5747.5197-1.2977.7796-2.0207.6125-1.6499.9466-3.0588 1.0765-3.7261.1485-.7601.1114-.9084 0-.482-.0556.1668-.1856.6303-.4083 1.3533-.1114.3522-.2413.7971-.3898 1.2791-.1671.482-.3527 1.0196-.5569 1.6128-.8538 2.3544-2.2088 5.5429-4.2692 9.0095-1.7634 2.9291-3.3783 5.0239-4.5105 6.3772-.5569.6859-1.0395 1.1679-1.3365 1.5015-.3156.3337-.4826.482-.4826.482-.0186-.0185.2042-.3151.5012-.6673.2969-.3523.5939-.7416.6496-.8713.0743-.1298.9281-1.2421 1.8562-2.5027.4455-.6488 1.0209-1.4089 1.485-2.1689.4826-.7601.9281-1.4831 1.2065-2.0022.2784-.519.5754-1.0752.8353-1.5757.2598-.482.4455-.9269.5754-1.1494.2227-.4634.464-1.0196.5569-1.2606.0928-.2224.4083-.8527.7424-1.4089.4269-.7229.5754-1.0566.5754-1.2049 0-.0927.297-.9269.6126-1.7982.3155-.8713.6311-1.7982.7425-2.0021.0185-.0557.2413-.5933.4826-1.446.1299-.4264.2784-.9084.4269-1.446.1485-.5376.297-1.1308.4269-1.7426.0743-.2966.1485-.6117.2228-.9269.0556-.3151.1299-.6303.1856-.9269.1114-.6303.2413-1.242.3155-1.8167.1667-1.1679.2967-2.169.3527-2.8364.056-.6673.204-2.206.26-3.8374.037-.8156.037-1.6499.037-2.4285v-1.0937c-.019-.3337-.019-.6488-.037-.9269-.019-.4635-.056-1.3718-.13-2.0207-.149-1.2976-.056-1.6684.111-.3893.112.7601.52 2.3173.687 2.3544.019 0 .037.0927.074.3151.019.2225.056.5932.075 1.1494.018 1.1308.074 3.0773-.26 6.34-.39 3.5223-.836 5.2278-.928 5.9322-.13.7045 0 .3893.222-.2039.205-.5191.409-1.3162.557-2.1875.13-.8713.242-1.7982.242-2.5768 0-.6303.037-1.0381.129-1.483.038-.1669.112-.723.168-1.4831.037-.7601.092-1.7055.092-2.6695-.018-.964-.018-1.9465-.074-2.7622-.056-.8156-.111-1.4645-.167-1.7425-.093-.6489-.13-.6674-.13-.1298-.018.5191-.018.482-.074-.2225-.056-.4634-.112-1.242-.149-1.724-.055-.8342-.055-.8342.056-.0371.056.4449.111.7045.13.5747 0-.1483-.074-.6859-.167-1.1865-.149-.7229-.223-.8527-.316-.6302-.13.2966-.241-.0927-.259-.8899 0-.3522-.075-.723-.242-1.3347-.3525-1.0938-.3525-1.7426 0-.7416.223.5933.242.6118.204.0742-.037-.5005-.148-.9269-.5008-1.9836-.3341-.9083-.464-1.1679-.4084-.8157.0743.445-.1299.1669-.4083-.3522-.13-.2595-.2784-.5747-.4084-.8898-.1299-.3152-.2598-.6303-.3341-.8898-.1299-.4635-.4084-1.446-.6682-2.169-.2599-.723-.4455-1.3348-.4084-1.3533.0371-.0185-.0928-.3893-.3155-.8157-.5198-1.0196-.8353-2.0762-.5383-1.8538.1856.1483.1485-.0371-.3527-1.0196-.3341-.6488-.5754-1.205-.5569-1.2235.0186 0-.0371-.1298-.1485-.3337-.0928-.2039-.2598-.5005-.464-.8527-.2042-.3523-.4269-.7601-.7054-1.2236-.2598-.4449-.5754-.9269-.8909-1.4274-.6311-1.001-1.3736-1.9836-2.0233-2.8734-.6682-.8528-1.2807-1.5943-1.6705-2.0207-.891-.9639-1.1323-1.1679-.8725-.7786.297.4079.2599.4079-.1484-.0556-.2785-.3151-.4827-.5932-.4455-.6117.0557-.0556-.1114-.2781-.4084-.5376-.2784-.2596-.6682-.5376-1.0209-.723-.6682-.3708-.7982-.5006-1.8191-1.5202-.297-.2966-.6125-.6117-.8538-.8712-.2599-.2596-.4455-.445-.5197-.5376-.1485-.1669-.594-.6118-1.021-.964-.5382-.4635-.7981-.5933-.8538-.5191-.0928.1112-.7796-.3708-1.188-.8157-.1113-.1297-.5383-.482-.9652-.7971-.4269-.3152-1.1137-.85277-1.5406-1.16792-.6126-.44492-.7982-.53761-.8539-.46345-.0556.07415-.2598-.03708-.8909-.46346-.2228-.16684-.7425-.44491-1.3736-.79714-.3156-.16684-.6682-.35222-1.0209-.55614-.3713-.16684-.7425-.35223-1.1137-.53761-1.4664-.72298-3.8609-1.63135-5.2902-2.11334-1.4107-.482-3.2854-.98253-4.1207-1.13083-.3527-.07415-.7982-.16684-1.3736-.29661-.5754-.11123-1.2993-.22246-2.1903-.3893-.6125-.09269-1.2993-.18538-2.0789-.27807-.1114 0-.2785-.01854-.4826-.05562-1.4107-.16684-3.0628-.29661-5.0674-.31515-1.3736 0-2.84.05562-3.2298.11123-.3898.03708-1.1323.09269-1.6149.11123-.5012 0-2.9142.22246-5.7171.7786.2228-.01854.4455-.05561.6683-.07415 1.5592-.18538 2.5058-.20392 3.0812-.25953.594-.05562.8168-.09269.9653-.12977.2598-.09269.4083-.09269.8724.01854.0928.01854.2042.03707.3526.05561.13 0 .2414-.01854.3713-.01854.6497-.03707 1.2808-.09269 1.7448-.07415.9095 0 2.0233 0 2.4873.03708.464.01854 1.0395.03707 1.3179.01854.1299 0 .5568 0 1.1137.05561s1.2808.12977 2.0047.22246c1.4478.22246 2.84.42637 3.0998.48199.2599.01854 1.0024.16684 1.652.31515.3156.07415.9281.22246 1.6521.42637.2041.05562.4269.11123.6311.16685.0556.01854.1299.03707.2041.05561.7796.20392 1.2437.33369 1.4664.42638h.0186c.5754.18538 1.355.40784 2.1903.74152.4269.16685.8724.33369 1.3179.50053.4455.18539.891.37077 1.3364.57469.1114.05561.2413.11123.3713.16684.5011.22246.9838.44492 1.4107.66737 2.0975 1.00106 4.2878 2.33581 4.9746 2.76218.167.1112.3898.241.6311.3893.2413.1483.5011.3337.761.5191.5383.3707 1.0952.7786 1.5406 1.1308.2228.1854.5569.4449.9838.7786.2042.1668.4455.3522.6868.5561.2413.204.5012.4264.7611.6489.5383.4634 1.1137.9454 1.6705 1.5016.5755.5376 1.1694 1.0752 1.7077 1.6499.5198.519 1.1694 1.1864 1.8748 2.0206.7425.8157 1.5221 1.7982 2.3573 2.892 1.652 2.206 3.4154 4.9497 4.9004 7.9899 1.5035 3.0403 2.7286 6.3586 3.5453 9.5657.8353 3.2071 1.2622 6.3029 1.4293 8.8427 0 .0185.0185.0556.0185.0741v.1483c.1114 1.3348.0928 2.5212.1114 3.4852 0 .964-.0557 1.724-.0743 2.2246-.0185.519-.0742 1.0196-.1113 1.5016-.0557.482-.0928.9269-.1485 1.3162-.0928.7971-.2228 1.3718-.2784 1.5386-.1485.5191-.1857.7601-.1857 1.3719-.0185.519-.1299 1.2976-.464 2.688-.0743.2595-.1671.6674-.297 1.1679s-.2784 1.0937-.4826 1.7426c-.2042.6488-.3898 1.3533-.6497 2.0577-.2598.7045-.5011 1.446-.7796 2.1319-.2784.6859-.5754 1.3904-.8538 2.0763-.3156.6673-.6126 1.3162-.891 1.8909-.5754 1.1493-1.0766 2.0577-1.2993 2.447-.2228.3893-.6311 1.0567-1.0766 1.7982-.4641.7415-1.0024 1.5387-1.485 2.2431-1.4664 2.0763-3.1741 4.1155-4.956 5.9507-1.7819 1.8539-3.6753 3.4667-5.4386 4.82-3.5454 2.688-6.6081 4.2267-7.4433 4.6345-.4455.2039-.9467.4264-1.4664.6303-.9467.5005-1.8005.8713-2.5059 1.1679-.7239.3151-1.2993.5376-1.7077.6674-.4084.1483-.6125.2039-.6311.1853-.0371-.0741-.0928-.0556-.2599.0927-.0557.0371-.3341.1854-.8724.3893-.0185 0-.0371.0186-.0742.0371-.1856.0742-.4455.1669-.6868.241-.5569.2039-1.2437.4449-2.0975.6859-.4269.1299-.9095.2599-1.4107.4079-.5197.13-1.0766.259-1.6891.408-4.0465.927-7.1093 1.149-9.4666 1.26-.594.019-1.1323.037-1.652.056h-1.4293c-.4455 0-.8538 0-1.2436-.019-.3898-.018-.7425-.037-1.0952-.055-.5754-.019-1.0209-.056-1.355-.074-.3341-.037-.5383-.074-.6125-.093-.0743-.019-.0186-.037.167-.037h1.0024c.6867 0 1.2436-.037 1.2436-.111 0-.074.3712-.074.9652-.056.5383.019 2.3017.037 3.9351-.093.8168-.037 1.7077-.148 2.5059-.222.3898-.037.761-.093 1.0766-.13.3155-.055.5754-.093.7796-.111.7239-.111 1.3364-.204 1.8376-.315.5197-.111.9281-.204 1.2808-.297.6868-.167 1.0951-.296 1.3736-.445.5383-.2593.5197-.2778-.297-.2222-.3898.0185-.7425.0371-1.2065.0927-.4641.0371-1.0395.1485-1.8934.2595-.8538.111-1.9861.297-3.5638.426-1.5778.149-3.5825.26-6.2183.204-.761-.037-1.7819-.148-2.2645-.241-.5569-.129-1.1694-.222-1.6706-.241-.2227-.018-.8353-.055-1.6334-.167-.7982-.111-1.8191-.259-2.8029-.4815-2.0047-.3893-4.362-1.0752-5.2901-1.3533-.2413-.0741-.5012-.1483-.7796-.241-.2785-.0927-.5755-.2039-.8724-.2966-.6126-.2224-1.2808-.4449-1.9305-.723-.1856-.0741-.3527-.1483-.5012-.2039-.3712-.1668-.761-.3151-1.1322-.482-.3713-.1668-.7239-.3337-1.0766-.5005-.6868-.3337-1.3365-.6488-1.8562-.9455-.2227-.1297-.4641-.2409-.6497-.3707-.4455-.241-.7239-.4079-.7796-.4635-.1485-.1297-.5011-.3707-.7796-.5376-.2784-.1668-.6125-.4449-.7239-.6303-.0928-.1483-.2413-.2595-.7239-.6303-.4826-.3707-1.3736-.9454-2.8771-2.1319-.0742-.0556-.1485-.1112-.2227-.1853-.5198-.3893-.9653-.7972-1.3736-1.1494-.4084-.3522-.7611-.6488-1.0024-.9084-.2041-.1112-.3712-.2966-.4083-.4078-.0743-.0742-.1114-.1112-.1114-.1298.0186-.0185-.1856-.2966-.464-.6117-.13-.1483-.3156-.3523-.4827-.5747-.167-.2225-.3155-.4264-.4083-.6118-.2042-.3337-.6311-.9083-.9467-1.2791-.297-.3708-.761-1.0381-1.0209-1.4645-.2598-.4264-.5754-.9084-.7239-1.0381-.40835-.3894-1.2622-1.6685-1.15083-1.7612.05569-.0371 0-.2039-.12993-.3522-.11137-.1668-.14849-.3151-.05568-.3337.20418-.0371.2413-.1483.12993-.5005-.01856-.0927-.18562-.3893-.44549-.7786-.2413-.4079-.57542-.9455-.94665-1.5387-.72392-1.205-1.57777-2.6695-2.24599-3.893-.29699-.5191-.5383-1.0011-.76104-1.4274-.22274-.4264-.40836-.8342-.59398-1.1865-.11137-.1853-.16706-.3337-.18562-.4263-.59398-1.3163-.87241-2.0392-1.02091-2.5027-.14849-.4634-.16705-.6859-.20418-1.0196-.07424-.7786-.05568-.7971.25987-.2966.12993.1854.37124.7044.68679 1.4089.31555.7044.74248 1.5943 1.20652 2.5397.94666 1.8909 2.15318 4.0043 3.06272 5.4688.03712.0556.07424.1112.11137.1854 0 .0185.01856.037.01856.037.03712.0556.07425.1298.11137.1854.51973.8157 1.37358 2.0948 2.22747 3.17.4083.5376.8352 1.0196 1.1508 1.3904.3341.3708.5754.6303.6682.7044.1485.1298.3527.3708.4455.5562.0557.1112.2042.3151.4826.6303.2784.3151.6682.7415 1.2437 1.2976.8538.8899 3.5824 3.4296 6.311 5.339 2.5987 1.8353 4.4549 2.7808 5.68 3.4111 1.2622.5746 1.9118.8527 2.3944.9454.3156.0741.5569.1483.5383.1854-.0185.037.2785.0741.6683.0927.3712.0185.7053-.0186.7239-.0742.0185-.0556.3155-.0185.6496.0927.6868.2039.9096.0185.3713-.2781-.1856-.1112-.7982-.3893-1.355-.6488-.6311-.2966-1.1138-.5376-1.4479-.7044-.3341-.1854-.5197-.3152-.5568-.3708-.0557-.0556.0371-.0556.2598 0 .2228.0741.594.1668 1.0766.3151.6497.204 1.0209.241.9838.1483-.0185-.0926.1299-.1483.3156-.1112.2041.0186.3155-.1112.297-.3337l-.0557-.3893s-.5754-.2595-1.1509-.519c-.297-.1298-.5754-.2596-.7796-.3708-.2041-.1112-.3526-.1854-.3526-.1854-.3713-.1854-.724-.3707-1.0395-.5376-.3156-.1854-.6126-.3522-.8353-.5005-.2042-.1113-.3527-.2039-.4269-.2596-.1114-.0741-.1856-.1297-.2228-.1483-.6868-.5932-1.5406-1.2976-2.0046-1.5572-.2599-.1668-.7611-.5561-1.0952-.8713-.4826-.4449-.8353-.7229-1.6149-1.2605-.3155-.2225-.5754-.4079-.8167-.6118-.1114-.0742-.1856-.1483-.2599-.2225-.2227-.2039-.4455-.4263-.7053-.6673-1.1137-1.2236-1.9305-1.9465-3.898-4.0043-.1114-.1297-.2228-.241-.3341-.3707.0371.0556.0371.0741-.0372-.0186-.0742-.0741-.167-.2039-.2784-.3337-.0186-.0185-.0371-.037-.0557-.0556-.2042-.241-.3898-.4634-.5383-.6488-.3155-.3893-.5011-.6303-.5011-.6859-.0186-.0927-.2785-.4264-.5383-.7601-.2228-.2781-.5755-.7415-1.0024-1.3347-.2042-.3152-.4083-.6489-.6496-1.0011-.1114-.1854-.2228-.3708-.3527-.5561-.1114-.204-.2228-.4079-.3341-.6118-.9653-1.6314-1.85623-3.6149-2.48733-5.3204-.22274-.6118-.40836-1.1679-.57542-1.6685-.25987-.6488-.35268-.8527-.48261-1.0937-.27843-.482-.29699-.5562-.20418-.5932.07425-.0186.03712-.2966-.05568-.6489-.05569-.1854-.16706-.6117-.33412-1.2235-.07425-.2966-.16706-.6488-.25987-1.0381s-.18562-.7972-.27842-1.2421c-.20419-.8898-.37124-1.8909-.51974-2.929-.07425-.5191-.12993-1.0567-.18562-1.5758-.03712-.2595-.05568-.5376-.09281-.7971-.01856-.2595-.03712-.5191-.05568-.7786-.05569-.8342-.11137-1.724-.09281-2.4656 0-.7415 0-1.3533.03712-1.6499.07425-1.0752.07425-2.2987-.01856-1.9835-.01856.0556-.09281.6488-.16706 1.5572v.0556c0 .0927-.01856.1668-.01856.241-.05568.4264-.07425.8898-.09281 1.3903-.01856.5006-.05568 1.0567-.05568 1.6128 0 .4635 0 .9084.01856 1.3348.01856.1298.01856.2595.01856.4078.01856.445.03712.5933.01856.5376.07425 1.0382.11137 1.9095.24131 2.6881.11137.7786.20418 1.4459.33411 2.0577.12993.6303.29699 1.5016.51973 2.3543.11138.4264.22275.8528.31556 1.2792.12993.4078.2413.7971.33411 1.1308.11137.3337.20418.6674.29699.964.11137.2966.20418.5561.27843.7786.16706.4449.29699.7415.33411.76.07425.0742.12994.241.20418.5377.03713.1483.16706.5005.40837 1.0937.22274.5932.61254 1.3904 1.11371 2.41 1.29935 2.447 1.68915 2.9846 1.72625 3.2441.0371.1854-.0742.0557-.5754-.723-.4826-.7971-1.33647-2.2431-2.46874-4.894-.87241-2.0207-1.50352-4.0413-1.61489-4.3935-.35268-1.0753-.1485.1483.33411 1.5757.20418.5376.3898 1.0752.57542 1.5572.18562.5005.3898.964.57542 1.4089.37124.8898.76104 1.6684 1.09515 2.3543.70533 1.3904 1.31793 2.4285 1.80053 3.2071.4826.7972.8724 1.3162 1.1137 1.687.1485.2039.2599.3522.3527.4635 0-.0186-.0186-.0371-.0186-.0371-.3341-.9084-.2784-.9269.4455-.3152.5568.4635.6125.5562 1.0951 1.3348.427.6859.5012.8898.3898 1.0937-.0556.0927-.167.1113-.2969.0556.0185.0371.0371.0742.0371.0927.0185.0927-.0557.0371-.2413-.2039-.2413-.1668-.5198-.4634-.7982-.8527-.0186-.0186-.0371-.0557-.0557-.0742-.0742-.1112-.1485-.2595-.2227-.3893-.0928-.1112-.2042-.2595-.3713-.482-.2598-.3522-.6125-.8527-1.0951-1.5572-.4455-.723-1.058-1.6499-1.72626-2.8919-1.11372-2.0578-1.65201-3.2998-1.78195-3.4852-.12993-.2039.1485.6674 1.07659 2.5953.3898.7786.83529 1.5943 1.22512 2.2988.4083.6859.761 1.2606.9466 1.5386.6311.9455.6683.9825.2599.5376-.3156-.3522-.3898-.3707-.1485.0186s.7239 1.2235 1.6706 2.4841c.4269.5932.8167 1.0937 1.1137 1.446.2784.3522.4269.5561.3898.5376-.0371-.0186.2784.4078.8538 1.0752.297.3337.6311.7415 1.0395 1.1864.4084.4264.8538.9084 1.355 1.4089 1.6149 1.5572 2.5244 2.2987 2.7472 2.4841.2042.1854-.2599-.1854-1.2808-1.0567-.5754-.519-1.0766-.9825-1.5221-1.3718-.4269-.4078-.7796-.723-1.058-.9825-.5569-.5005-.7982-.7044-.7239-.5191.0557.1113 0 .1113-.1114-.0185-.0557-.0556-.6311-.6859-1.4849-1.6684-.4084-.5006-.891-1.0938-1.4107-1.7612-.5012-.6673-1.0581-1.3903-1.5592-2.1875-1.0766-1.5572-2.13466-3.4481-2.98851-5.1906-.40836-.8899-.81672-1.7055-1.11371-2.4656-.31555-.7415-.57542-1.3904-.72391-1.8909-.16706-.5005-.33412-.9825-.48261-1.4089-.12994-.4449-.25987-.8342-.35268-1.1679-.11137-.3337-.18562-.5932-.2413-.7786-.05569-.1854-.09281-.2966-.11138-.2781-.03712 0-.12993-.3522-.20418-.7971-.07424-.4449-.33411-1.5016-.51973-2.3358-.27843-1.205-.33411-1.7611-.37124-2.6139 0-.2966-.01856-.6117-.03712-.8898s-.01856-.5191-.03713-.6489c-.03712-.2595-.0928.1113-.0928.8713.03712 1.0567.07424 2.2802.79816 5.4873.25986 1.1679.57542 2.2431.85384 3.2442.31556.9825.59399 1.8538.87241 2.5768.27843.723.48261 1.3162.63111 1.7055.16705.4078.2413.6303.22274.6303 0 0-.05568-.0742-.11137-.2039-.07425-.1298-.16706-.3337-.27843-.5747-.20418-.482-.48261-1.1679-.7796-1.9094-.55686-1.5202-1.37358-3.9857-1.72626-5.5244-.09281-.3708-.22274-.8157-.31555-1.3162-.09281-.482-.20418-1.0011-.31555-1.5201-.11137-.5191-.16706-1.0567-.25987-1.5572-.07424-.5006-.14849-.9826-.18562-1.3904-.18561-1.6499-.29699-4.0413-.27842-5.2834.01856-.6673 0-1.2976.03712-1.8538.01856-.5561.03712-1.0381.05569-1.4274.01856-.7972.05568-1.2235-.01857-1.1679-.01856.0185-.07424.3151-.12993.7415-.03712.4449-.09281 1.0196-.12993 1.6684-.03713.4079-.03713.7416-.05569 1.0196-.01856.2781-.01856.5006-.01856.6674-.01856.3337-.03712.4449-.05569.3522-.03712-.1483-.05568-.4634-.03712-.7044.01856-.1298 0-.5191.03712-1.0381.03713-.5377.07425-1.205.11138-1.8909.05568-.6859.12993-1.446.20418-2.1134.07424-.6674.18562-1.2606.22274-1.5943.11137-.8898.51973-3.2627 1.13227-5.6541.63111-2.3914 1.50352-4.7828 1.93044-5.8395v-.0185c-.01856.037-.03712.0556-.05568.0926-.24131.5377-.5383.445-.37124-.1297.09281-.3152.14849-.6859.11137-.8157-.01856-.0927.03712-.4449.1485-.8898h-.03713c-.12993.0927-.11137 0 .16706-.5191.01856-.0556.03712-.1112.05568-.1854.22275-.723.48261-1.5201.5383-1.7426.09281-.2966.29699-.8342.59398-1.5201s.72391-1.5016 1.18796-2.3729c.96522-1.724 2.19026-3.5778 3.19266-4.8199.2227-.2781.464-.5747.7053-.8898.2599-.3152.5383-.6303.7982-.9455.2599-.3151.5197-.6117.761-.9083.2413-.2781.4641-.5191.6497-.723.3712-.4079.7425-.8342 1.058-1.1679.3156-.3337.5755-.5747.6683-.6674.2041-.1854.5383-.5005.7239-.7044.5383-.5191 1.7819-1.6685 3.0812-2.7066.6497-.5376 1.3179-1.0011 1.8748-1.40891.5569-.40783 1.0395-.70444 1.2808-.85275.3155-.18538.8538-.51907 1.4849-.87129.6311-.33369 1.3179-.72299 1.949-1.03814.7425-.35222 1.3736-.66737 1.8562-.90837.4826-.24099.8353-.40784 1.0024-.5376.3341-.22246.6311-.35223.7796-.37076.3526-.03708 2.0603-.61176 2.5615-.8713.3341-.18538.3898-.20392.2784-.05561-.1113.12977.1856.07415 1.2808-.18538 1.0766-.27807 1.8562-.42638 2.6729-.59322.9652-.27808 1.9676-.53761 3.007-.76007 1.8005-.40784 3.6753-.68591 5.5129-.88983.9096-.09269 1.8191-.1483 2.7101-.20392.8724-.03707 1.7262-.05561 2.5429-.05561.9838 0 2.0233.03708 2.9143.07415.8909.05562 1.6148.11123 1.9675.12977s1.0209.07415 1.8191.18538c.3155.03708.6497.09269.9838.12977-.0743-.01854-.13-.03708-.1671-.05562-.1856-.09269.3898.03708 1.0395.18538.2413.03708.5011.09269.7425.12977.4269.07415.8538.14831 1.2622.22246.3898.09269.761.16684 1.0766.24099.6496.14831 1.0951.241 1.225.25954.7239.09269-.0557-.20392-1.2436-.44492-.891-.18538-1.188-.25953-1.4293-.3893-.2413-.12977-.4455-.18538-.9838-.22246-.3712-.03707-1.0765-.16684-1.5777-.27807-.4826-.11123-1.3365-.24099-1.8933-.25953-.5569-.01854-1.2066-.07415-1.4664-.12977-.2599-.05561-.7796-.12977-1.188-.1483-.4083-.01854-.9281-.03708-1.1508-.03708-.6868-.03708-1.2994-.07415-1.8562-.07415-.5569 0-1.0395 0-1.4478.01854-.4084 0-.724.01853-.9653.03707-.2413.01854-.3898.03708-.4269.05562-.1299.03707-.4269.05561-.6496.03707-.2228-.01854-.6868.01854-1.021.07415-.4826.07416-.7424.0927-1.2436.07416-.5197-.03708-.7796-.01854-1.2622.09269-.3341.07415-.6311.11123-.6311.09269 0-.03708-.2413 0-.5197.07415-.0743.07415-.891.20392-1.9305.40784-1.0395.22246-2.3017.46345-3.4339.76006-1.5407.33369-4.4735 1.33475-4.8076 1.52013-.1856.09269-.8909.33369-1.522.59322-.6312.25954-1.5221.64884-1.9676.87129-1.2993.70445-2.2646 1.20498-2.5987 1.37183-.0928.03707-.464.24099-1.0023.5376-.2599.14831-.5754.31515-.891.50053-.3155.20392-.6682.40784-1.0209.6303-.3527.22246-.7425.46345-1.1137.72299-.3898.25953-.7796.53762-1.1508.79712-.7611.5191-1.4293 1.0567-1.8934 1.3904-.9281.6859-2.7471 2.2616-4.0093 3.5408-1.8748 1.8908-2.2646 2.3728-2.543 2.5211-.1856.1113-.297.2225-.2599.241.0186.0371-.3155.445-.8167 1.0753-.1856.2409-.4084.5376-.6497.8342.1485-.0371.1857.037.0186.2224-.1114.1298-.2784.241-.4084.2596-.2598.3336-.5197.6673-.7981 1.0381s-.76106 1.0567-1.07661 1.5572c-.31555.5005-.85385 1.3533-1.20652 1.9094-.51974.8713-.87241 1.446-1.26221 2.2061-.37124.76-.85385 1.6313-1.48496 3.1514-.35267.7972-.57541 1.4275-.76103 1.8909-.16706.4635-.29699.7786-.37124.9826-.1485.4263-.16706.4263-.20418.4078zM6.237 65.2543c.03712.3337.09281.5376.25987.8342.16705.2966.18561.241.05568-.2225-.18562-.8157-.35268-1.1864-.31555-.6117zm.83528-5.6171l.01857.0186.22274.0185c-.27843-1.2791-.50117-2.651-.64967-3.9301-.01856-.0927-.03712-.2039-.03712-.2966-.07425-.723-.1485-1.4274-.20418-1.9094-.1485-1.8168-.1485-2.651-.03713-2.2431 0 .0185 0 .037.01857.0556v-.8342c.01856-.4264.01856-.7787-.03713-.7787-.12993 0-.22274 3.133-.01856 4.7644.07425.5746.18562 1.7796.31555 2.6324 0 .037.01856.0927.01856.1297.01857.0186.03713.0927.05569.1854v.1669c.07425.4449.1485 1.001.2413 1.5386.01857.1483.05569.3152.09281.482zm1.33646-19.2611c.01856 0 .09281-.1483.16706-.3152.07425-.1853.09281-.3336.03712-.3522-.05568-.0185-.14849.1298-.16706.3152-.03712.1854-.05568.3522-.03712.3522zm-.05568 21.4486c.29699.9455.59398 1.7426.85384 2.3729-.18562-.5376-.48261-1.3718-.61254-1.8724-.1485-.519-.25987-.8527-.27843-.7415 0 .0371 0 .1112.03713.241zm3.67524-7.786c0 .1668.0371.2966.0928.2966.0371 0 .0557-.1483.0186-.3151-.0371-.1669-.0743-.2967-.0928-.2967-.0186.0186-.0186.1484-.0186.3152zM23.017 73.2998c.0185.0556.0556.1298.1113.2039.0928.1298.2042.204.2599.1669-.1299-.1298-.2599-.2596-.3712-.3708zm2.1717 4.0599c-.0186.037.1856.278.464.5376.5569.5005.6497.5376.4641.2781-.1856-.2225-.8539-.8713-.9281-.8157zM7.33215 55.6515c-.01856-.1854-.05568-.4264-.11137-.5376-.05569-.1112-.07425.0371-.05569.3337.01857.2966.07425.5376.11138.5376.05568 0 .07424-.1483.05568-.3337zM20.8823 80.678c-.0185-.0185-.0371-.0371-.0557-.0556-.7795-.8157-1.4107-1.4645-1.8747-2.0207-.2413-.278-.4455-.5005-.6311-.7044-.1671-.2039-.3341-.3893-.4455-.5376-.5197-.5933-.6868-.723-.7796-.6674-.0742.0556-.0557.1298.0928.3522.0371.0371.0743.0556.1114.0742.2227.1297.5383.4449 1.0023 1.0381.3898.4635.7425.7971.7611.7786.0185-.0185.167.1298.4083.3708.2413.241.594.5747.9652.9269.1485.1668.297.3151.4455.4449zm-.6311-4.5975c.2599.2781.5198.5376.7796.7972.2785.2595.5383.519.7982.76s.5197.4635.761.686c.2228.1853.427.3707.6311.5561.2042.1668.427.3337.6126.5005.4083.3152.7796.6303 1.1508.8713.3713.2596.7054.5006 1.0395.7415.3341.2225.6496.4264.9281.6118.5754.3893 1.0951.6859 1.5406.9454.2228.1298.4269.241.6126.3523.2041.1112.3712.2039.5383.278 1.3364.723 1.8561.927 2.5615 1.2606 1.5406.6674 2.0604.7972 1.7263.5006-.0929-.0742-.6312-.3337-1.4479-.7416-.4083-.2039-.8724-.4634-1.3921-.7415-.5198-.2781-1.0766-.6117-1.6706-.9454-1.1508-.723-2.413-1.5387-3.5639-2.4471-.1856-.1483-.3898-.2966-.5754-.4449-.0371-.0185-.0742-.037-.1114-.0556-.2784-.1298-.1485.0185 1.0024.964 1.0209.7786 1.1879.9269.6496.5561-.2041-.1483-.4826-.3336-.761-.5376-.2784-.2039-.5383-.4263-.761-.6117-.4641-.3893-.7239-.5747-.6683-.4635.0557.0927-.0556.1112-.2413.0186-.1856-.0927-.297-.0927-.2413 0 .0186.0556-.1299-.0742-.4269-.3152-.2784-.241-.7053-.5932-1.1694-1.0752-.4455-.4449-.8724-.8342-1.1508-1.1494-.297-.2966-.4826-.482-.4826-.482-.0186.0186-.2228-.0926-.427-.2409-.0928-.0927-.1856-.1484-.2413-.1484zM6.21844 56.6896c.11137.7416.22274 1.4831.35267 2.2061.01857.0556.05569.1112.09281.2224.07425.1854.18562.3523.29699.4264-.05568-.241-.11137-.5005-.14849-.7786-.05569-.3337-.11137-.6674-.16706-1.001-.01856-.0186-.03712-.0742-.03712-.1113v-.1297c-.01857-.1113-.03713-.2225-.05569-.3337-.44548-3.0403-.44548-5.7098-.48261-5.9137-.01856-.1854-.05568-.8342-.01856-1.4274.05569-.7786.05569-.9455-.01856-.5562-.05569.2596-.16706 1.8538-.07425 3.9672.01856.5191.03712 1.0752.09281 1.6499.03712.5932.11137 1.1864.16706 1.7796zM37.588 86.9995c-.3155-.2039-.5197-.3337-.8538-.482-.1671-.0741-.3712-.1483-.6311-.241-.1299-.0556-.2784-.0927-.4455-.1668-.167-.0742-.3527-.1298-.5569-.2225-1.2436-.4634-3.8794-1.483-6.9607-3.3183-1.522-.9269-3.174-2.0207-4.7704-3.3554-1.058-.8713-2.116-1.8538-3.1184-2.892.0743.1483.2042.3337.4084.5747.2413.2781.5197.6674.6311.8342.1299.2225.2784.3893.5197.5562.1856.1297.8353.7415 1.5035 1.3162.2413.2224.427.3893.594.5376.1671.1298.297.241.3898.3337.1856.1854.2599.2781.297.3707.0371.1298-.1299.0742-.464-.1483-.6311-.4263-.5383-.2595.3155.5376.5198.482.7425.6674.594.5933-.1485-.0927-.6311-.482-1.5035-1.205-.4455-.3893-.9281-.8342-1.3736-1.205-.4269-.3893-.7796-.7415-1.0023-.9269-.4084-.3522-.6868-.5932-.7982-.6303-.1114-.0371-.0371.0927.297.4449.6682.6674.9281.9825.8724 1.0382-.0371.0185-.2227-.1298-.4455-.3523-.2042-.2224-.7053-.6673-1.0766-1.0196-.3712-.3522-.9095-.8713-1.1508-1.205-.4641-.5932-.9281-.9825-.761-.6488.0742.1669.8724 1.2421 1.4849 1.9094.0557.0742.1299.1484.1856.2225.1671.1854.3156.3337.3713.3893.1113.0927.5568.5376.9837.964.297.3151.5012.5005.594.6303.1114.1297.13.1854.0743.2224-.0557.0557.0557.2781.2413.482.297.3337.2413.3337-.0743.0927-.3155-.241-.8724-.7415-1.5035-1.4274-.0186-.0186-.0371-.0371-.0557-.0556l-.0185-.0186c-.4084-.4263-.6868-.723-.8724-.9083-.1857-.1854-.2785-.2596-.3156-.241-.0928.0741.4826.964 2.84 3.2071.1856.1668.3526.3151.5197.4634.1299.0927.2413.1854.3712.2781.4641.3151.9096.6118 1.3365.8713.1299.0927.2784.1483.4084.2224-.2599-.2224-.5198-.4263-.7611-.6303-.2413-.2224-.464-.4263-.6496-.5932-.3713-.3522-.6497-.6117-.6868-.6859-.0557-.0741.4269.3522 1.0766.9455.3155.2966.8352.7229 1.4107 1.1864.1485.0742.2784.1483.4083.2225.4455.241 1.2437.6673 1.7448.9825.5012.3337 1.0024.5747 1.0952.5747-.1114-.0557-.2227-.1298-.3527-.204-.2413-.1483-.5383-.3151-.8538-.519-.297-.204-.6311-.4264-.9652-.6489-.1671-.1112-.3342-.2224-.4827-.3336-.1299-.1113-.2598-.204-.3712-.2967-.2227-.1668-.3898-.3151-.5197-.4078-.2413-.2039-.297-.241-.1671-.1668.1299.0741.4269.2966.8539.6117.4454.3337 1.058.723 1.7819 1.2235.6497.4079 1.1508.723 1.4293.9084.2598.1298.6125.2966.9838.482.5382.241 1.2065.5376 1.8561.7601.6683.2039 1.2994.3893 1.7634.4634.1671.0186 1.0209.2225 1.8933.4078.7982.1484 1.4479.241 1.8933.241.4455 0 .6497-.037.5569-.1297-.0557-.0556.0743-.0742.2784-.0371.6497.1112.4641-.2966-.297-.7786zM98.5267 35.964c.2042.5191.3342.5932.1857.0927-.0557-.1668-.1671-.3708-.2413-.4449-.0743-.0742-.0372.0741.0556.3522zm-1.1137-3.6335c.1671.7416.3527 1.1494.5012 1.0938.0743-.0371.0371-.3152-.0928-.6488-.3341-.7972-.5383-1.0382-.4084-.445zm-8.1115-12.8469c-.0186.0186.0742.1854.2042.3893.1299.2039.2598.3522.297.3152.0371-.0186-.0557-.204-.2042-.3893-.1485-.1854-.297-.3152-.297-.3152zm-7.2392-8.3607c-.0742-.1112-.4826-.4264-.8724-.7044-.4826-.3523-.7239-.48202-.7053-.44495.0186.03705.3155.25955.8353.66735.5011.3708.8353.5932.7424.482zM53.1058.129802c.2413-.09269-1.4293-.203919-2.1718-.074152-.4269.055614-.2784.074152.724.092691.6867.018538 1.3364.037076 1.4478-.018539zM26.9521 5.74686c.464-.241 1.1137-.59322 1.4292-.76007.5012-.27807.5012-.29661-.0185-.05561-.5198.241-1.1137.51907-1.5407.76006-.4454.241-.7424.44492-.7239.48199 0 .01854.3898-.18538.8539-.42637zm44.9383-.90837c-.4826-.241-1.2065-.57468-1.5963-.72299-.3898-.1483.0186.03708.891.44492.8724.3893 1.1879.5376.7053.27807zM36.066 86.4619c-.1485-.0927-.2785-.1112-.297-.0742-.0186.0371.0928.1298.2598.1854.1485.0556.297.0927.297.0742 0-.0186-.1113-.0927-.2598-.1854zm-9.7079-3.6891c-.2784-.2039-.5012-.3708-.5754-.3893-.0928-.0371.167.2225.594.5376.4269.3152.7981.5376.7981.5376.0186-.0185 0-.0556-.0371-.0741-.1856-.1854-.5012-.4079-.7796-.6118zm-3.0256-1.9836c-.4084-.3893-.761-.6859-.7982-.6673-.0556.0556.3342.4634 1.0581.9639.4455.3337.3898.2781-.2599-.2966zm5.2901 3.0959c-.167-.1112-.3898-.2595-.6311-.4264-.2413-.1668-.5011-.3707-.7981-.5747-.5754-.4078-1.0766-.7971-1.4293-1.0566-.3527-.2596-.5754-.4264-.594-.4079-.0185.0186.2042.2039.5383.482s.7796.6489 1.2622.9825c.9467.7045 1.9862 1.3162 2.1161 1.3533.0557.0186-.1114-.1112-.4641-.3522zm-10.6545-1.0567c.297.3337.7611.7601 1.2437 1.205.2413.2225.4826.4449.7239.6488.2413.204.4826.4079.6868.5747 0 0 .3898.3152.761.6303.3898.2966.7982.5932.7982.5932s-.3156-.2595-.6311-.5005c-.3156-.2595-.6126-.5191-.6126-.5191-.3341-.2966-.8167-.6859-1.2993-1.1308-.4826-.4449-.9838-.8898-1.3736-1.2791l-1.4107-1.3904 1.1137 1.1679zm4.9375-1.4274c-.5198-.482-.7239-.6488-.4269-.3522.2784.2966.7239.6673.9652.8713.2413.1668 0-.0557-.5383-.5191zm29.105 23.525c-.5197.037-.7239.074-.464.074.2599 0 .6868-.019.9466-.074.2599-.037.0372-.037-.4826 0zm2.7658-.445c-.7054.148-1.0581.222-1.1138.241-.0556.019.1857.018.6683-.019 1.2251-.111 2.7471-.482 2.2274-.519-.2042-.018-.891.093-1.7819.297zm-1.8191.13c-.3898.018-.6125.055-.4826.074.1299.018.4455 0 .7239-.056.297-.037.2042-.055-.2413-.018zm6.4781-1.724c-.464.018-.6868.037-1.0952.185-.7239.26-.6125.408.2599.315.6868-.074 1.1694-.222 1.3365-.333.167-.093.0185-.167-.5012-.167zm24.5388-87.7413c.4826.3893.4826.3893.0557-.0742-.2413-.2595-.6125-.5746-.7981-.6859-.4084-.2224-.0372.1298.7424.7601zm-2.5244-2.3358c-.1299-.1298-.2784-.1854-.297-.1669-.0185.0371.13.2225.3713.4264.2227.2039.3712.2596.2969.1669-.0556-.1113-.2227-.2966-.3712-.4264zm-2.2831-1.6128c-.0186.0185.1485.1854.3712.3893.2228.2039.4084.3337.427.2966.0185-.0371-.13-.2039-.3713-.3893-.2227-.1669-.4083-.3152-.4269-.2966zm-3.0256-2.03922c-.9095-.53761-1.355-.77861-1.1323-.59323.1485.12977.5754.38931 1.1694.74153.594.35222 1.2994.81572 2.0418 1.27912.5755.3708.5012.2039-.0928-.1668-.297-.1854-1.1694-.77863-1.9861-1.26062zM100.402 47.9582c-.019-.3152-.075-.4635-.112-.3337-.037.1298-.037.3893 0 .5561.112.5006.149.4079.112-.2224zM32.0937 99.5127c.2228.0927.6868.2596 1.0209.3337.3341.0927.1485.0186-.4083-.1668-.5569-.2039-.8353-.2781-.6126-.1669zm-7.1834-9.1207c.3898.2224.3526.0556-.0557-.241-.2413-.1854-.3341-.2225-.2784-.0927.0556.1112.2041.2595.3341.3337zM56.317 1.5387c-.1114-.05561-.4084-.09269-.6682-.11123-.2785-.01854-.2042.01854.2042.07415.3526.07416.5754.0927.464.03708zM42.8039 101.496c.1671-.018-.167-.055-.8909-.129-.3527-.038-.8168-.075-1.3365-.149s-1.1323-.148-1.7819-.241c-.4455-.055-1.0209-.167-1.5964-.278-.5939-.111-1.1694-.222-1.6334-.333-.4455-.112-.8724-.204-1.1694-.279-.297-.074-.4826-.1108-.4826-.0923 0 0 .1299.0553.3527.1113.2227.056.5568.148.9466.26.7796.203 1.8562.407 2.9514.611 1.0951.167 2.1903.334 3.0627.408.8538.074 1.4664.13 1.5777.111zm1.1138.056c-.3713-.037-.5755-.037-.4641 0s.4084.056.6682.056c.297 0 .2228-.019-.2041-.056zM48.224 1.44601c-.1114-.03708-.3527-.07415-.5383-.07415s-.3155.03707-.3155.09269c0 .03707.2413.07415.5383.07415.2784 0 .4269-.03708.3155-.09269zm11.6754 1.24206c.3527.09269.5569.11122.4641.05561-.1114-.05561-.4084-.12977-.6497-.16684-.297-.01854-.2227.01853.1856.11123zM29.4579 4.94972c.297-.11123.5012-.25954.4826-.31515-.0185-.05562-.0928-.09269-.167-.05561-.0743.01853-.2784.16684-.4826.31514-.297.22246-.2599.22246.167.05562zM49.876 1.57578c.4455-.09269.2413-.18538-.4455-.18538-.464-.01854-.6125.01853-.4826.11122.2228.12977.5569.14831.9281.07416zm18.0236 3.65201c-.1299 0-.0742.05561.1114.12977.1856.07415.3527.11123.3712.07415.0186-.03708-.0371-.09269-.1113-.12977-.0743-.03707-.2413-.07415-.3713-.07415zM13.4576 17.9264c.4269-.4449.6496-.723.5197-.6674-.1114.0557-.3898.2966-.6311.5562-.2413.2595-.4826.5561-.5197.6674-.0557.1297.2042-.1113.6311-.5562zm-4.12076 3.8559c.18561-.278.50117-.7415.72396-1.0196.2227-.278.3897-.519.3897-.5376-.0742-.0556-.50112.1854-.66818.3893-.09281.1298-.09281.1854.03713.1483.14849-.0556.07424.0927-.22275.4635-.2413.2966-.46404.6674-.50117.7971-.05568.1854.01856.1113.24131-.241z" fill="#0A5780"/><g clip-path="url(#clip1)" fill="#BFE9FF"><path d="M76.6 49.1423c-.1082-1.8793-1.6666-3.3315-3.1817-4.2498-1.1688-.7048-2.6622-1.0251-4.0042-.5553-.5627.2136-1.4068.6407-1.6449 1.2387-.2598.7047.303 1.4522.0865 2.1783-.2164.7261-.8441 1.2814-1.4285 1.7512-1.1904.961-2.4241 1.858-3.7012 2.7336-1.6016 1.0891-3.225 2.1142-4.8699 3.1179-1.4935.9183-2.9004 2.1143-4.7185 2.157-3.8527.0641-7.7054.0854-11.5797.0427-1.9047-.0214-3.8094-.0641-5.7357-.1068-1.1039-.0213-3.5497-.4912-4.0692.8756-.1948.5126-.1298 1.0892-.0432 1.6231.4328 2.9898 1.1255 6.0224 2.7055 8.6278 1.6017 2.6268 4.6319 4.2285 7.4456 5.3177 2.9437 1.1532 6.0604 1.8366 9.2205 1.9434 2.3159.064 4.6102-.299 6.9045-.5767 3.0086-.3844 5.9089-.5979 8.5495-2.1783 2.619-1.559 4.5237-3.9936 5.8656-6.6631.671-1.3454 1.2121-2.7549 1.645-4.1857.368-1.1746.9956-2.6695.8009-3.9295-.065-.3631-.1948-.7475-.5844-.8756-.3031-.1068-.6494-.0855-.9524-.0427-1.277.1708-2.6406.4698-3.9393.3417-.4761-.0428-1.0822-.2563-.909-.8543.2164-.6834.8441-1.3027 1.1904-1.922.3247-.5766.6493-1.1746.9957-1.7512.5411-.9183 1.0389-1.5804 2.0995-1.9434.8657-.299 1.7748-.3844 2.6622-.6407.6926-.2136 1.2121-.6193 1.1904-1.3881v-.0855zm-3.0518 9.119c.1082 0 .2164.0214.3247.0641.7142.3631-.065 2.1356-.1948 2.6909-.2814 1.1318-.671 2.221-1.1255 3.2888-1.9913 4.5915-5.4761 8.6278-10.649 9.6316-3.5497.7047-7.3807 1.1532-10.9953 1.1105-3.1168-.0427-6.2552-.5553-9.1339-1.7512-1.8615-.7688-3.6579-1.7939-5.1297-3.1607-1.4935-1.3668-2.3593-3.2461-2.922-5.1468-.5844-1.9648-1.0822-3.9722-1.1255-6.0224 0-.2776 0-.5766.2164-.7475.1732-.1495.4113-.1495.6277-.1708 4.2856-.1495 8.5711.2776 12.8567.1708 1.9047-.0427 3.8311-.2135 5.7358-.1708 1.9912.0427 3.9825.1495 5.9521.1922 5.1514.1068 10.2811-.0214 15.4324-.0214.065.0428.1082.0427.1299.0427zm2.4025-8.7132c-.0866.1495-.2381.2563-.3679.3417-.7143.4485-1.6234.4485-2.4675.5339-1.3636.1495-2.1644.8969-2.857 2.0075-.6494 1.0678-1.2121 2.1783-1.9047 3.2247-.8225 1.2387-1.4502 1.9221-3.0086 1.9648l-3.2034.0427c-1.0172.0213-2.0129.0213-3.0302 0-.8874-.0214-2.0345.1708-2.9003-.2349.0866-.8543 1.8614-1.5804 2.5324-1.9648 1.1471-.662 2.2726-1.3668 3.3765-2.0715 2.2077-1.4095 4.3505-2.9258 6.3201-4.6343.7792-.662-.0216-1.9434.1299-2.7549.1299-.7475.8658-1.2814 1.6233-1.4095 1.4069-.2349 2.619.4058 3.6796 1.26.8224.6834 2.857 2.3919 2.0778 3.6946z"/><path d="M39.3721 45.598c.1731-.897.7359-1.7299 1.3852-2.3919 1.0606-1.0892 2.4242-2.0288 3.2467-3.3529.4978-.7902 1.5583-3.3315-.3247-3.0966-.4762.064-.8874.3844-1.2337.7047-.8875.8543-1.5368 1.9434-1.8831 3.1394-.1948.7047-.303 1.4522-.5411 2.1356-.2381.7047-.6277 1.3881-1.277 1.7512-.5195-.9824-.9524-1.9862-1.3636-3.0326-.3896-1.0464-.7359-2.1783-.5195-3.2888.2381-1.0892.9957-2.0075 1.342-3.0539.1948-.598.1948-1.4095-.368-1.7299-.4762-.2562-1.0822 0-1.4069.4272-.3246.4271-.4328.961-.5844 1.4735-.1298.5126-.3463 1.0465-.7575 1.3668-.9956-1.8366-1.8614-3.7587-2.5757-5.7234-.3679-1.0251-.7792-2.1783-1.7532-2.7122-.5844-.3204-1.4934-.299-1.7964.299-.2165.3844-.0866.8756.0433 1.2813.3895 1.1532.9307 2.3065 1.883 3.0753.4762.3844 1.0389.662 1.5151 1.0464.606.4699 1.0606 1.0892 1.4935 1.7085.5627.8543 1.0605 1.7298 1.4934 2.6482-2.1861.5339-4.502-.2563-6.4933-1.3028-.6277-.3203-1.2337-.6834-1.9263-.7901-.6926-.0855-1.4935.1495-1.8181.7688-.3031.598-.1083 1.3241.2813 1.8793.3896.5553.9091 1.0037 1.5368 1.2814 1.9913.8756 4.2639-.0855 6.45-.0214-.1299.4485-.4545.8115-.7359 1.1746-.2814.363-.5411.8115-.4762 1.26.0433.4698.5628.8756.9956.6834.1516-.0641.2598-.1922.368-.3203.8441-.9824 1.7099-1.9648 2.554-2.9472.974 1.7939 1.6233 3.7587 1.9264 5.7661-2.2727-.2776-4.6319.2136-6.6232 1.3668-.9307.5553-1.883 1.4522-1.7099 2.52.0217.1495.0866.3204.1948.4272.1515.1708.4113.2349.6493.2562 1.1039.1068 2.1861-.3844 3.0735-1.0251.8874-.6406 1.645-1.4522 2.4675-2.1783.4762-.4271 1.1255-.8329 1.7315-.6406.5844.1708.8658.7901 1.1255 1.3454.9957 2.1569 2.3376 4.143 3.9609 5.8729.3896.4057.9091.8329 1.4502.662-1.9047-1.7725-3.4414-3.9295-4.5237-6.3-.238-.5126-.4545-1.0678-.4978-1.6231-.0433-.2562-.0216-.5339.0217-.7901zm1.9047-4.7838c.0649-.3844.1948-.7688.3679-1.1105.3247-.6834.7576-1.3454 1.2121-1.922.3247-.4058 1.4285-.897 1.5367-.0855.0866.6194-.4545 1.1533-.7791 1.6231-.6061.961-1.4286 1.8366-2.3809 2.4559.0433-.2989-.0217-.6406.0433-.961zm-8.8309-8.0939h-.0433c-.8225-.0641-1.5584-.5766-2.0346-1.2387-.4761-.6833-.6926-1.5162-.7142-2.3278 0-.1708.0216-.3844.1731-.4484.1299-.0641.2814-.0214.4113.0427 1.3852.662 2.3592 2.4346 2.2077 3.9722zm-4.5886 7.0475c-.9307-.0854-1.4935-.6621-1.9913-1.3668-.2597-.3844-.5411-.8115-.1298-1.2387.3896-.4057.8441-.7474 1.4718-.4911.0866.0427.1731.0427.2597.0854 1.7965.8115 3.593 1.6017 5.4977 2.4559-1.7099.6193-3.3982.7475-5.1081.5553zm5.3894 2.9258c-.4112-.9611-.2164-1.2601.9091-1.4523-.3247.5126-.5844.9397-.9091 1.4523zm3.1168-7.0689c.1082-.5766.3896-1.0037.7576-1.4522.0649-.0641.1298-.1495.2164-.1708h.0433c.6277-.0428.0866 1.7511-.0217 1.9647-.238.4485-.5411.8329-.8441 1.2173.0433-.0427-.1948-1.3241-.1515-1.559zm-5.6492 13.8601c-.0865-.0428-.1731-.1068-.1947-.2136-.0217-.0854.0216-.1708.0649-.2563.4762-.9396 1.7099-1.7085 2.5973-2.221.4112-.2349 2.1211-.9183 1.9263.1068-.2164 1.0678-1.6449 1.8152-2.5107 2.3278-.5411.3203-1.2121.5125-1.7965.299-.0433 0-.0649-.0214-.0866-.0427zM52.4234 49.7404c.8225-.1068 1.645-.2776 2.4242-.5339.4761-.1495.9523-.3417 1.4718-.4271.4978-.0641 1.0605-.0214 1.4718.2776.4112.299.6493.8756.4329 1.3241-.1732.3844-.5844.5979-.974.7261-.9524.3203-2.0129.3417-2.9869.0427-.8009-.2563-1.6017-.7048-2.4026-.4699-.6493.1923-1.1688.7902-1.6449 1.2173-.4329.3844-.8658.7475-1.277 1.1319-.2165.1922-.9957.7048-1.0823.9824.3031-.9824 1.0823-1.7512 1.7749-2.4987.7142-.7688 1.3852-1.6657 1.3852-2.6908 0-.9183-.5411-1.7299-.8658-2.5841-.3246-.8542-.4112-1.8153-.2597-2.7122.0649-.3417.1515-.7048.368-.9824.2164-.2776.5844-.4698.9307-.4058.3246.0641.5844.3204.7359.598.4978.8756.2814 1.9861.0216 2.9685-.2381.9824-.4762 2.0715.0433 2.9471 2.5757-1.9647 3.9393-5.0613 5.541-7.859.303-.5339.6493-1.0891 1.212-1.3241.5844-.2349 1.2987.0214 1.4718.6194.2381.7474-.2813 1.6657-.7575 2.221-.5195.6193-1.1904 1.0891-1.8181 1.5803-2.0562 1.6658-3.8744 3.6092-5.2163 5.8516-.0217 0 0 0 0 0zm7.3591-9.6316c-1.4935.0427-2.619 1.5377-2.7056 3.6092 1.1688-1.1105 2.7272-1.6658 2.7056-3.6092zm-5.5626 10.1868c.0433-.0213.9523.3417 1.0822.3631.3463.0641.7142.0854 1.0606.0213.3246-.064 1.0172-.2989 1.0822-.6833.2813-1.5163-2.8787.0427-3.225.2989zm-3.225-7.5386c-.3463.064-.7359.8969-.7576 1.2386-.0433.6621.4329 1.3027.7792 1.8366-.1082-.1708.4762-1.3668.5195-1.6444.0433-.3203-.065-.7474-.1515-1.0464-.1083-.299-.2381-.4058-.3896-.3844z"/></g></g><defs><clipPath id="clip0"><path fill="#fff" d="M0 0h103v105H0z"/></clipPath><clipPath id="clip1"><path fill="#fff" transform="translate(25 28)" d="M0 0h51.6v47.8161H0z"/></clipPath></defs></svg>