<svg width="105" height="104" viewBox="0 0 105 104" fill="none" xmlns="http://www.w3.org/2000/svg"><g clip-path="url(#clip0)"><path d="M102.301 38.4537c-.226-.4899-.658-1.9406-.583-1.9594.038-.0189.207.4333.432 1.0927.226.6594.508 1.5449.715 2.4493.15.6029.169.8101.056.6406-.075-.1319-.207-.6218-.301-1.074-.075-.4521-.244-.9608-.319-1.1492zm-1.56-4.2015c.075.1131.075-.0565-.019-.358-.207-.6217-.282-.6971-.188-.1884.037.2073.131.4334.207.5464zm3.665 14.3189c.019-.9044-.395-3.1087-.432-2.7131-.019.1884.112 1.0174.225 1.8276.132.8289.207 1.2246.207.8855zm-4.286-15.6754c.094.0942.057-.1319-.075-.5087-.1314-.3768-.3006-.7913-.3945-.8855-.094-.0942-.0376.1319.0939.5087.1128.3956.2816.7913.3756.8855zm3.478 10.4942c.037 0 0-.3768-.094-.8478-.188-.9797-.301-1.187-.301-.9609 0 .3015.301 1.8275.395 1.8087zM9.40936 19.6319c.60144-.7724.82704-1.0927.48871-.7347-.33834.3579-.82704.9797-1.09019 1.3942-.24435.4144 0 .113.60148-.6595zM.631484 53.3c0-.5463.093981-1.5637.131574-2.2231.018796-.6783.150371-1.3942.225556-1.6015.075186-.2261.150366-.6783.150366-1.0362 0-.1884.0188-.3768.0376-.6594.03759-.2638.09398-.6218.18796-1.1116.09398-.4899.20676-1.1116.41352-1.9595.11278-.4144.22555-.8855.35713-1.413.13157-.5275.33833-1.0928.5263-1.7522.65787-2.0724 1.40972-3.8623 1.46611-4.0507.07518-.3391 1.22176-3.0145 2.06759-4.4275.0188-.0377.05639-.0754.07519-.1319C11.5145 20.574 21.9465 10.9653 34.8032 6.83918c-.3947.11304-.6767.20724-.7895.24493-.4699.0942-1.5413.41449-2.3495.77246-.9398.39565-1.5977.56522-1.7857.54638-.2067-.01884.0376-.30145.9399-.6971.6766-.32029 1.2593-.5087 1.2781-.45218.0188.03768.4511-.11304 1.203-.35797.3759-.13188.827-.26377 1.3345-.43333.5075-.15073 1.0902-.32029 1.6917-.5087.6015-.1884 1.2781-.33913 1.9548-.50869.3383-.07537.6955-.16957 1.0338-.24493.3571-.07536.7143-.15073 1.0714-.22609.3571-.07536.7142-.15072 1.0902-.22609.3571-.07536.733-.11304 1.0902-.1884.7142-.11304 1.4285-.24493 2.1051-.30145 2.2932-.32029 4.9435-.35797 5.9021-.33913.4699 0 .9398 0 1.3157.01884.376 0 .6579-.01884.7519-.03768.6766-.16957-1.3158-.48986-5.1126-.20725-1.2218.09421-2.1992.22609-3.0074.30145-.7895.07536-1.4097.16957-1.8985.20725-.4887.03768-.8646.03768-1.1653 0-.3008-.03768-.5451-.0942-.7707-.20725-.3759-.15072-.5827-.24493-1.4285-.15072-.4135.03768-.9774.15072-1.8044.32029-.8083.16956-1.8609.43333-3.2518.82898-.8458.26377-1.6729.54638-2.5187.82899-.827.32029-1.6729.64058-2.5187.99855-1.6729.73478-3.4021 1.58261-5.2066 2.65652-1.8232 1.05504-3.7029 2.35504-5.7141 3.95654-2.0112 1.6203-4.1164 3.5609-6.2779 6.029-.4887.5652-.9774 1.1492-1.4474 1.7333-.4699.5652-.90218 1.1493-1.2969 1.658-.41352.5087-.75185.9985-1.0338 1.3942-.28194.3956-.5075.6971-.65787.9043-.30074.3768-.80824 1.187-1.40972 2.1855-.30074.5087-.60148 1.0551-.90223 1.6392-.30074.5652-.60148 1.1681-.86463 1.7521-.54509 1.1682-1.05259 2.4116-1.4849 3.4479-.41352 1.055-.71426 1.9029-.88343 2.2797-.11278.2826-.07519.0565.13157-.5464.18797-.6029.5075-1.6203 1.015-2.8826.97741-2.5247 2.66908-6.0855 5.01862-9.5899 2.38709-3.4666 5.39459-6.8391 8.28919-9.4391 2.8758-2.6 5.6389-4.42754 7.1614-5.31304 1.1466-.69711 1.9172-1.14928 1.8796-1.22464-.0188-.03768-.4511.11304-1.109.41449-.6578.32029-1.5601.77246-2.5187 1.31884-1.9548 1.11155-4.1728 2.67535-5.5825 3.86235-1.2217 1.0362-2.4247 2.0913-3.1202 2.7319-.7142.6405-.9774.8101-.3383.113.2068-.2261.5827-.5841.9962-.9797.4135-.3957.9022-.8102 1.3345-1.1681.8459-.7348 2.1992-1.7899 2.9511-2.3739.3759-.2827.9586-.716 1.5976-1.1305.6391-.43331 1.3346-.8478 1.9173-1.18693.5827-.35797 1.4285-.81015 2.3119-1.28116.8834-.48986 1.8421-.94203 2.6127-1.31884.7894-.35797 1.5601-.71594 2.1992-.97971.639-.26377 1.1465-.43334 1.3157-.48986.6015-.20724 4.248-1.60145 8.0824-2.44927.8271-.18841 1.6729-.39566 1.8797-.52754.2255-.13188.6954-.24493 1.2217-.26377.2632 0 .9398-.11304 1.8984-.26377.4888-.0942 1.0338-.15072 1.6541-.22608.6203-.07537 1.2782-.18841 1.9736-.24493 1.297-.131884 3.3834-.282609 5.7141-.188406 2.3308.037681 4.9058.339126 7.1238.734786.9398.1884 1.936.35797 2.9134.62174.4887.11304.9962.24492 1.485.37681.4887.13188.9962.28261 1.4849.41449 1.9736.56522 3.8344 1.26232 5.4321 1.9029 1.5977.65942 2.9134 1.26232 3.7781 1.69565.8646.41449 1.2969.6029 1.0901.43333-.0939-.07536-.8082-.47101-1.8984-1.03623-1.0902-.54637-2.5751-1.24348-4.1916-1.86522-.8082-.33913-1.7292-.64057-2.6878-.97971-.9587-.32029-1.9924-.62173-2.9887-.90434-2.0112-.52754-3.9848-.94203-5.3757-1.16812-.6955-.113043-1.5413-.244927-2.4435-.33913-.4511-.037681-.921-.094202-1.4097-.131884-.4887-.037681-.9774-.075362-1.4662-.094202-.9962-.037682-1.9924-.094203-2.951-.056522-.9586.01884-1.8608.037681-2.669.113043-.8083.056522-1.6541.113044-2.5.226087-.827.094203-1.6728.169565-2.4435.301448-.7706.11304-1.4849.22609-2.1052.33913-.6202.11305-1.1465.20725-1.5225.28261-.7518.11304-1.7856.35797-2.8382.64058-1.0526.28261-2.1052.62174-2.951.92319-.4887.1884-.9962.37681-1.5037.56522-.2632.0942-.5075.1884-.7707.2826-.2631.09421-.5263.20725-.7706.30145-.5263.20725-1.0526.39566-1.5789.6029-.5263.20725-1.0526.4145-1.5789.64058-.8834.33913-1.936.82899-2.951 1.3-.9962.48986-1.9549.97971-2.5939 1.33768-1.9548 1.1116-2.4999 1.39421-1.9548 1.01739.2631-.1884.8082-.54637 1.5788-1.01739.376-.24492.8459-.48985 1.3534-.77246.5075-.28261 1.0714-.58406 1.6916-.88551 1.391-.67826 3.1766-1.52608 5.1314-2.29855.4887-.1884.9775-.37681 1.4662-.58406.5075-.16956.9962-.35797 1.5037-.52753.9962-.35797 1.9924-.64058 2.9322-.92319C38.8256 1.26237 42.0586.885556 42.3781.904396c.4135.018841.6767-.01884.9022-.169565.2068-.150725.9586-.263768 2.3308-.357971 1.2217-.056522 4.9622-.433333 10.2627.075362 2.6503.263768 5.6953.753628 8.9283 1.657968 3.233.88551 6.6539 2.18551 10.0184 3.91884 1.2594.64058 2.3872 1.31884 3.421 1.92174 1.015.65942 1.936 1.24348 2.7066 1.8087.7895.56523 1.4849 1.09273 2.0488 1.56373.5639.4711 1.0526.8667 1.4097 1.187 1.4474 1.3377 1.3722 1.3942-.4323-.0377l-.9398-.6782c-.4699-.3392-.9398-.6595-.9398-.6595s.4511.3957.9022.7913c.4511.3957.8835.7913.8835.7913.2631.245.6202.5841 1.0713.9797.2256.1885.4512.4145.7143.6406.2444.245.5075.4899.7894.7537.282.2637.5639.5463.8647.8289.3007.3015.6015.6029.921.9421.3195.3203.6391.6594.9586.9985l.0188.0189c.094.0753.188.1507.282.226.5074.3957.9774.8102 1.3533 1.1305.3571.3391.6015.584.6579.6594.1127.1696.6014.7159 1.0525 1.2246.4512.5276 1.0902 1.3566 1.4474 1.8464.3383.4899.6766.9609.7894 1.0551.094.0942.5451.6782.9398 1.3565.376.6594 1.1466 1.9594 1.6165 2.9203.2444.471.4887.942.6955 1.3377.1879.3956.3383.6782.3947.7913.1128.2072.4699.9797.7706 1.7333.1128.3015.3008.8102.5451 1.4319.1128.3015.2448.6406.3758.9797.113.358.245.716.357 1.0739.508 1.4507.903 2.958 1.109 3.6363.094.2826.301 1.2623.47 2.1666.132.6406.226 1.2058.301 1.6957.075.4898.131.8855.188 1.1869.056.3203.094.5464.094.6971.019.1508.037.2261.037.2261s.019.0377.019.1131c0 .0753.019.1884.038.3203.019.2637.056.6405.094 1.0362.094.8101.15 2.2043.207 3.1275.018.1884.018 1.3189-.038 3.2029-.113 1.8652-.282 4.4652-.883 7.4986-.264 1.413-.621 2.9203-1.053 4.4652-.075.2826-.15.5464-.207.7913-.113.3956-.207.7348-.282.9609-.056.1884-.113.3014-.131.3391-.376 1.1493-.7897 2.3174-1.2597 3.4855-1.4097 3.542-3.3081 7.1406-5.6013 10.4377-2.2931 3.3159-4.9434 6.3493-7.6876 8.9116-2.7443 2.5623-5.5825 4.6536-8.1388 6.2362-.6203.4145-1.2594.7536-1.8609 1.1116-.6015.3391-1.1654.6594-1.7105.942-.545.2826-1.0525.5464-1.5225.7725-.4887.2261-.921.4145-1.3345.6029-.3947.1884-.7706.3391-1.0902.4898-.3195.132-.6015.245-.827.32-.4511.17-.6955.264-.7143.264-.0376 0-.4323.151-1.0526.377-.639.207-1.4849.471-2.3871.754-.921.263-1.8984.527-2.8006.753-.9023.189-1.6917.377-2.218.49-.7519.151-1.3721.226-1.3721.188 0 0-.094 0-.2444.019s-.3759.057-.6391.094c-.5451.095-1.2969.17-2.124.283-2.0675.283-4.5487.358-6.5599.339-.9962-.037-1.8984-.075-2.5563-.113-.6766-.038-1.1277-.113-1.2593-.132-.2256-.056-.5451-.056-.6767-.019-.1504.038-.6954.019-1.3909-.094-2.3871-.377-5.4885-1.036-6.2404-1.187-.4511-.056-.8458-.15-.8834-.226-.0564-.037-1.3533-.452-2.8946-.942-2.2932-.772-4.9059-1.8462-7.575-3.2969-.5638-.3015-1.1841-.6783-1.8232-1.0551-.6203-.3957-1.2594-.8102-1.842-1.2058-1.1654-.8102-2.1052-1.5261-2.406-1.8087-.4135-.3768-1.0526-.9044-1.4097-1.1493s-.7518-.584-.8646-.7348c-.0564-.0753-.3572-.3579-.7707-.7724-.2067-.2073-.4511-.4334-.7142-.6783-.2444-.2638-.5263-.5275-.7895-.8101-.5451-.5652-1.0714-1.1116-1.4473-1.5638-.3759-.4333-.6391-.7536-.6955-.829-.0563-.0753-.2067-.2449-.3759-.4522-.1692-.2072-.3947-.4521-.5827-.6971-.4135-.4898-.7142-.9043-.6954-.9231.0376-.0377-.0376-.1319-.1316-.245-.282-.2826-1.84205-2.242-2.16158-2.8261-.77065-1.2811-1.27815-2.1101-2.12399-3.4855-.4699-.829-1.20296-2.129-1.56009-2.9391-.16917-.3957-.56389-1.1681-.95861-2.129-.20676-.471-.41352-.9985-.63908-1.5261-.20676-.5463-.41352-1.0927-.60148-1.6391-1.24056-3.4855-1.69167-5.9725-1.95482-7.4986-.05638-.2826-.13157-.6971-.18796-.9231-.05639-.2261-.07518-.4145-.03759-.4334.05639-.0188-.093982-.8478-.225557-1.8652-.056389-.5087-.112778-.9797-.131574-1.3188-.018796-.3392-.037592-.5464-.018796-.5464s.018796-.2073.018796-.5275c0-.3203-.018796-.7725-.037592-1.2624C.556299 55.0899.631484 53.8464.631484 53.3zM29.1455 95.8421c-.1692-.0754-.3195-.1131-.3383-.0565-.0188.0376.1127.1507.2819.226.1692.0754.3383.0942.3383.0566 0-.0377-.1127-.1508-.2819-.2261zm-10.5259-7.8942c-.1692-.0942-.3196-.1319-.3384-.0942-.0188.0376.0564.1507.2068.2637.1504.1131.3007.1696.3383.0942.0564-.0565-.0376-.1695-.2067-.2637zM63.1104 5.46382c.7143.1884 1.297.30145 1.3158.22608.0188-.07536-.376-.24492-.8647-.37681-.4887-.13188-1.0901-.20724-1.3157-.1884-.2256.01884.1692.16956.8646.33913zM54.201 1.07396c.7894.05652.9586.03768.4135-.05652-.4887-.075363-1.0714-.094203-1.297-.056522-.2255.037681.1692.075362.8835.113042zM36.3445 6.40585c4.0036-1.13044 8.2328-1.73334 12.6123-1.73334 2.0112 0 3.9848.13189 5.9208.37681 2.3872.18841 4.9811.56522 7.7629 1.22464 1.015.22609 2.1052.58406 2.4247.67826.8459.30145 1.8045.64058 2.5751.86667.7519.26377 1.3158.41449 1.3534.33913.0188-.05652-.1692-.18841-.6203-.41449-.2256-.11305-.5075-.24493-.8646-.39566-.3572-.15072-.7895-.30144-1.297-.48985-.2631-.0942-.5263-.18841-.827-.28261-.3008-.0942-.6203-.18841-.9586-.30145-.3384-.0942-.6955-.20724-1.0714-.32029-.3759-.11304-.7895-.20724-1.2218-.30145-.4323-.0942-.8834-.20724-1.3533-.32029-.4699-.0942-.9774-.1884-1.5037-.28261-.2632-.03768-.5263-.0942-.8083-.13188-.2819-.03768-.5639-.07536-.8458-.11304-.5827-.07537-1.1654-.16957-1.8044-.20725-1.1278-.0942-2.2368-.18841-3.2706-.20725-.5263-.01884-1.015-.03768-1.5037-.03768-.4699 0-.921.01884-1.3533.01884-.8459 0-1.5601.05652-2.1052.07537-.5451.01884-.921.03768-1.0714.03768-.3008 0-1.1654.07536-2.3308.20724-1.1653.15073-2.6314.39566-4.0976.73479-1.3345.30144-2.669.67826-3.7404.97971zM2.22917 52.716c0 .358 0 .7159.0188 1.0174.01879.6029.03759 1.5072.05639 2.0536.01879.5841.01879 1.2246.05638 1.8652.05639.6406.11278 1.2812.16917 1.8652.13158 1.1682.30074 2.1102.37593 2.4682.05639.226.16916.7536.31954 1.5072.07518.3768.15037.8101.26314 1.2812.11278.471.24436.9985.37593 1.5637.05639.2638.22556.829.37593 1.2247.15037.4145.33833.9797.41351 1.2623.07519.2826.24436.7159.33834.9797.11278.2638.35713.9609.60148 1.5638.11278.3014.31954.7724.54509 1.3.11278.2637.24436.5463.35713.8101.13158.2638.26315.5275.39473.7725.26314.4898.54509 1.1304.90222 1.7333.33833.6029.67667 1.2058.92102 1.658.5263.8666 1.14657 1.9029 1.4285 2.2797.2632.3768.8459 1.2246 1.3346 1.884.4887.6406.9962 1.2435 1.1277 1.3566.1316.113.2256.2261.188.2637-.0376.0377.5451.7725 1.3157 1.658.7895.8667 1.6165 1.7522 1.8233 1.9971.2067.2449.733.7536 1.1466 1.1116.4135.358.8082.7348.8834.8478.0564.1131.2255.2638.3571.3392.1316.0753 1.0714.9043 2.1616 1.7898.2631.2261.5451.4522.827.6594.282.2073.5639.4145.8083.6029.5075.3768.9398.6783 1.1653.829.4512.2826.9587.6406 1.109.7913.1692.1507.6391.4899 1.0714.716.4323.226 1.9172 1.1116 3.3458 1.8652.5638.3203 1.2405.6217 1.9924.9797.7518.3768 1.6352.7159 2.6502 1.1304 2.0301.7725 4.6615 1.6765 8.1952 2.3925.6203.113 1.4098.245 2.1804.358.7707.094 1.5413.151 2.0864.207.5639.038 1.0526.057 1.4285.076.3572.019.5827.038.5827.056 0 .038.3571.076.7895.076.2255.019.7706.019 1.4849 0 .7142-.019 1.5976 0 2.4623-.076.8646-.056 1.9172-.113 2.9134-.245.4887-.056.9774-.113 1.4097-.169.4323-.075.8271-.132 1.1466-.189 1.2594-.188 2.4811-.433 2.6879-.452.1128-.019.6203-.094 1.3345-.263.7143-.189 1.6541-.415 2.6127-.6976.9586-.3202 1.9736-.6029 2.8006-.942.8271-.3203 1.5226-.5652 1.8421-.6782.1504-.0754.5075-.2261 1.015-.4334.5075-.2261 1.1654-.4898 1.8984-.8666.7331-.3769 1.5789-.7725 2.4435-1.2812.4324-.2449.8835-.5087 1.3346-.7725l1.3533-.8478c.921-.5652 1.7481-1.187 2.5187-1.7145.7519-.5464 1.4097-1.0739 1.9736-1.5261.5639-.4333.9774-.829 1.297-1.0739.3007-.2638.4699-.3956.4699-.3956s.1692-.1319.4511-.3769c.2631-.2449.6203-.5652 1.015-.942.9962-.9043 1.7669-1.7522 2.4623-2.4493.2256-.2449.4135-.471.6015-.6782-.2632.2261-.5263.4522-.7706.6406-.6391.5087-1.2218.9231-1.6165 1.1681-.3948.2449-.6015.3203-.4887.1319.1127-.1696-.094-.0566-.4699.2637-.188.1508-.6767.5841-1.3346 1.1116-.6767.5087-1.4661 1.1681-2.3307 1.7334-.094.0565-.188.1318-.2632.1884-1.1465.9043-2.3683 1.7898-3.6841 2.6565-4.1915 2.7507-9.1913 5.0869-14.0784 6.4623-.6015.1696-1.1842.358-1.7856.471-.5827.1319-1.1654.2638-1.7105.3953-1.109.226-2.124.396-3.0262.528-.8834.113-1.6353.207-2.1992.264-.5639.056-.921.056-1.0526.075-.4699 0-1.4097.057-2.0864.057-.6578 0-2.4435 0-3.966-.113l-.8646-.057-.8646-.094-1.7105-.189c-.5639-.094-1.1278-.169-1.7105-.263-.2819-.038-.5639-.095-.8458-.132-.282-.057-.5639-.113-.8458-.1698-2.2932-.4334-4.5863-1.0739-6.9923-1.9029-.6203-.2261-1.2593-.4522-1.8796-.6971-.6015-.2638-1.203-.5087-1.7481-.7348-1.0713-.4899-1.936-.942-2.3683-1.1493-.4135-.2261-.9398-.5275-1.4473-.8101-.2632-.1508-.5075-.2827-.7519-.4145-.2255-.1508-.4511-.2826-.6202-.3768-.3572-.2261-.9399-.5841-1.5789-1.0363-.6391-.4522-1.3346-.942-1.9173-1.413-.5826-.471-1.3157-1.0551-1.9924-1.6391-.6578-.6029-1.3157-1.1493-1.748-1.5827-.8647-.8478-1.5789-1.6014-1.5977-1.6768-.0188-.0753-.188-.2826-.3759-.4521-.188-.1885-.5075-.5464-.7143-.7913-.1128-.1131-.4887-.5841-1.015-1.2624-.2631-.3391-.5827-.7159-.8834-1.1304-.3008-.4145-.6391-.8667-.9586-1.3188-1.6165-2.2798-2.33078-3.7493-2.59393-4.3899-.18796-.5464-.43231-1.0739-.52629-1.187-.11278-.113-.20676-.3202-.22556-.4333-.0188-.1319-.18796-.4522-.35713-.7536-.16917-.3015-.28194-.5652-.24435-.5841.03759-.0188-.18797-.5652-.43232-1.1116-.24435-.5652-.4887-1.1492-.58268-1.2434-.05639-.0566-.22556-.5653-.37593-1.1116-.13157-.5464-.33833-1.2247-.46991-1.5073-.07518-.1695-.18796-.4333-.28194-.7536-.05639-.1507-.09398-.3391-.15037-.5087-2.03-5.2188-3.13899-10.8899-3.13899-16.8246 0-1.2435.05639-2.487.15037-3.6928-.09398.5464-.13157.8855-.15037.9609-.03759.1695-.11277.8101-.16916 1.4319-.05639.6217-.09398 1.5072-.15037 1.9782.01879.1884-.0188.5276-.0188.8667zM17.6797 10.6261c1.015-.81011 1.0902-.88547.3384-.4333-.3008.1884-.5639.358-.7707.5087-.2255.1507-.3947.3014-.5263.4145-.2819.2449-.3947.3956-.3383.4522.0376.0565.6015-.3768 1.2969-.9421zm10.3944-1.56373c.3947-.24493-.0188-.09421-.9022.35797-.8647.45217-1.3722.75366-1.5037.86666-.1316.113.1128-.0188.827-.35797.4887-.20724 1.1842-.6029 1.5789-.86666zM4.65389 26.4711c.63908-1.1305.67667-1.2247.15038-.5276-.41352.5652-.69547 1.0174-.86464 1.3377-.16916.3203-.20675.5087-.15037.5464.07519.0377.43232-.5841.86463-1.3565zm2.42473-3.787c.45111-.6971.5263-.8478.16917-.3956-.31954.4144-.63908.9231-.73306 1.1492-.09398.2073.16917-.1319.56389-.7536z" fill="#0A5780" stroke="#0A5780" stroke-miterlimit="10"/><path d="M54.7429 59.8594c-.3891-.8654-.7227-1.7308-.9173-2.652-.278-1.4795-.1112-2.987.0556-4.4665.4448-3.9082.8061-7.8163.8061-11.7524 0-1.6191-.0834-3.3778-.9173-4.8294-.3892-.67-.9451-1.2841-1.0007-2.0378-.0556-.8654.4725-1.6191.6671-2.4287.1668-.67.3336-4.2431-1.1953-3.5173-.3336.1675-.5282.5024-.6394.8374-.4725 1.1725-.5837 2.4845-.2779 3.7407.1111.5025.3057 1.0608.0555 1.5354-.1389.2791-.4169.4745-.6393.6978-.7228.7538-.7228 1.7866-.7784 2.7916-.0556 1.8703.2224 3.7965.5004 5.6389.556 3.657 1.4177 7.3139 1.9459 10.9987.139.9771.278 2.0099.0556 2.987-.1946.9212-.6394 1.7587-1.0564 2.624-1.7234 3.6291-2.3628 7.7606-1.8902 11.7525.0556.4745.139.977.4725 1.3399.2224.2233.5282.3629.7784.5583.556.4188 1.0285 1.312 1.8069 1.312.278 0 .5281-.1395.7783-.2791.9452-.6141 1.5845-1.647 1.9737-2.7078.556-1.4516.7506-3.0428.8617-4.5502.1112-1.5633.0834-3.1545-.3613-4.634-.1946-1.0608-.6672-2.0099-1.0842-2.959zm-4.3365 11.8082c-.8061-2.0099-.3614-7.5093 1.0285-9.4354-.3613 3.3498-.6949 6.5043-1.0285 9.4354zm2.1405-42.5711c.4725-.1954.5003.7816.5003 1.0049.0278.6421-.0833 1.2562-.3335 1.8425-.0556.1116-.4726.7816-.4448.8374-.278-.5583-.5282-1.1724-.5282-1.8145.0278-.5304.3058-1.5633.8062-1.8703zm-.417 19.8758c-.278-1.5912-.5282-3.1544-.8339-4.7456-.1946-1.0329-.3892-2.0379-.5282-3.0707-.1946-1.5354-.417-3.0707-.0278-4.6061.0834-.3071.1946-.6141.417-.8654.8339-.8933 1.6679.0559 2.1404.8096.8618 1.4795 1.0286 3.1823.973 4.8852-.0556 2.8195-.3614 5.6389-.5282 8.4584-.0278.5583-.0834 1.1166-.1112 1.647-.0278.4746 0 1.0887-.1668 1.5074-.1946.4746-.5003.2234-.6115-.1116-.1946-.6142-.2224-1.2562-.3336-1.8704-.1112-.5583-.1946-1.1445-.3058-1.7028-.0278-.1117-.0556-.2233-.0834-.335zm.6116 11.5012c.6393.2233.6115.67.5559 1.0608-.0834.8374-.1946 1.6749-.3058 2.4845-.1389 1.1724-.2501 2.4007-.5003 3.5731-.1112.5863-.3058 1.1446-.417 1.7308-.139.6141-.1946 1.2283-.3336 1.8424-.0278.0559-.1112.2513-.1112.3071-.2224-2.7357.2502-8.2909 1.112-10.9987zm-.9174 11.9757c.556.5025.9452.8654 1.5289 1.3958-1.2509.3071-1.3343.2233-1.5289-1.3958zm1.7513.3909c-.8061-.5304-1.2509-1.0329-1.1397-1.8145.2224-1.675.5004-3.3499.7505-5.0528.0278-.1116.1112-.2233.278-.3629.1112 2.3449.417 4.6898.1112 7.2302zm1.1675-.8375c-.5559-3.6849-.2501-7.4255-.6949-11.3616 1.2509.9491 1.3899 2.0657 1.5289 3.1544.3058 2.7916.3614 5.5552-.834 8.2072zM39.0926 50.4517c-.0834-2.3728-.5282-4.7177-.8896-7.0626-.0834-.4467-.1946-.9771-.5003-1.3121-.3336-.3629-.8618-.335-1.2788-.5583-.5837-.335-.5837-.8933-.6393-1.4795-.0278-.6141-.1112-1.2283-.1112-1.8703 0-.6421.0556-1.2841-.3614-1.8145-.1668-.2234-.417-.3909-.6115-.6142-.3058-.335-.3058-.7537-.1668-1.1724.5837-2.0937 1.5289-4.7177.3891-6.7835-.1945-.3629-.5837-.9212-1.0841-.7537-.4726.1396-.7505.5583-.8617 1.0049-.278 1.1725-.2502 2.4008-.0556 3.6011.1946 1.1446.6393 2.317.6393 3.4895 0 1.0049-.7783 1.7866-.6949 2.8194.0278.6421.0556 1.2842.0556 1.8983 0 .335.0556.7258-.0556 1.0329-.139.3629-.4726.5304-.7228.8095-.8339 1.005-.8339 2.1774-.8895 3.4057-.1112 2.317-.1946 4.634-.3058 6.951-.139 2.9032-.2224 5.8343-.2502 8.7654 0 1.4795 0 2.987.0278 4.4665 0 .5862.0556 1.1724.0556 1.7587 0 .5862-.0556 1.2283.2224 1.7586.3336.6421 1.0285.7817 1.5845 1.1167.6116.3629.7783 1.0328.7227 1.7028-.0556.4746-.0278.9491 0 1.3958.0834.7816.1668 1.5633.278 2.317.0556.3629.2224.7537.5838.8654.5282.1954 1.3621-.3909 1.5567-.8654.0556-.1675.0556-.335.0556-.5304 0-.9491-.0556-1.9262-.0556-2.8753 0-.8096-.139-1.7866.5282-2.3728 1.4733-1.2283 1.5845-3.2661 1.8346-5.0248.6394-4.5782 1.1954-9.3238 1.0008-14.0694zm-5.6431-20.7133c.0278-.335.0834-1.7029.695-1.5912.1946.0279.3892.4467.4448.7258.1946.8096.1112 1.7029-.1112 2.4845-.0278.1396-.4448 1.0049-.417 1.0608-.5282-.7817-.6672-1.7308-.6116-2.6799zm.1946 7.258c.1112-.1396.2224-.1954.3614-.2233.278-.0558.5838.1117.7784.3629.5281.8095.3891 1.9541.4725 2.8753.0556.6141-.139 1.312-.8617 1.3399-.7228.0559-.7506-.4466-.7784-1.0049-.0556-.6421-.139-1.3121-.139-1.9541-.0278-.4187-.1112-1.0329.1668-1.3958zm1.2787 38.3838c-.0556.0558-.1112.0838-.1667.0838-.139 0-.2502-.1396-.3336-.2513-.1668-.335-.2224-.6979-.278-1.0608-.1112-.8654-.2502-1.7587-.2224-2.624 0-.2792.0556-.5863.2224-.7817.7227-.7816 1.0563.8375 1.0563 1.2562.0278.6421 0 1.2841-.0278 1.9541-.0278.3908-.0278.8096-.139 1.2004 0 .0558-.0556.1675-.1112.2233zm3.725-21.3274c-.0834 2.3449-.3336 4.6898-.5838 6.9788-.1111.9771-.2223 1.9541-.3613 2.9033-.2502 1.5632-.4726 3.0707-1.2788 4.4664-.4447.8096-1.3065 1.2283-2.2238 1.2562-.9174.0279-2.0293-.4187-2.5297-1.2003-.5559-.9212-.3891-2.4845-.4169-3.5453-.1668-5.5831.1668-11.2499.4725-16.833.0278-.6979.0834-1.3679.1112-2.0658.0834-1.5912-.1945-3.8244 1.9181-3.9082.7506-.0279 1.5567-.1395 2.3073.028 1.0007.2233 1.2787.8933 1.5289 1.7866.2224.8095.4169 1.647.5559 2.4844.5004 2.5403.5838 5.0807.5004 7.6489z" fill="#BFE9FF"/><path d="M78.8719 30.4362c-.0278.0559-.1112.0838-.2224.1396-.6393.2233-1.9181-.2233-2.5852-.2791-1.0286-.0838-2.0571-.0838-3.0856-.0838-2.0015.0279-4.003.1954-6.0044.2512-9.1735.2234-18.3191.2792-27.4925.335-4.3365-.0279-8.6731-.4187-12.9818-.6699.5282-.8654 1.7791-.8654 2.7798-.7817 11.7031 1.1446 23.4061.7817 35.137.4188 2.1127-.0559 4.1975-.1396 6.3102-.2234 2.0849-.0837 4.1975-.307 6.2824 0 .278.028 2.0849.5304 1.8625.8933z" fill="#BFE9FF"/><path d="M77.0372 68.5408c-.1112-.5583-.278-1.1445-.417-1.6749-.3058-1.0608-.7505-2.0937-1.4733-2.9591-.417-.5025-.9173-.9491-1.4455-1.3399-.4448-.335-1.1119-.4467-1.4733-.9212-.5282-.6421-.1946-1.9541-.139-2.7078.0834-1.0887.1668-2.1774.2224-3.2661.3336-5.1644.6949-10.3288.9173-15.4652.0556-1.2841-.0556-2.6799-.5837-3.8245-.6116-1.3399-.6672-2.5682-.417-3.9081.1946-1.005.417-2.0099.5004-3.0428.0556-.67 0-1.3679-.417-1.8983-.2502-.307-.4726-.4466-.6672-.4187-.6671.0558-1.0563 1.5354-1.0285 2.2053.0278 1.3958.0834 2.7916.139 4.1594.0278.6421.0278 1.2283-.3058 1.8704-.3892.7537-.5838 1.6749-.6116 2.5403-.0278 2.9869 0 5.9739.0278 8.9609.0278 2.959-.0556 5.946.0278 8.9329.0556 1.5912.1112 3.1824.139 4.8015 0 .2512.0278.5304-.0834.7537-.2223.5025-.8061.67-1.2231.9491-.4726.3071-.9173.67-1.3065 1.0608-.7784.8096-1.3621 1.8145-1.7513 2.8753-.5004 1.2841-.6949 2.652-.7505 4.0198-.0278.6979 0 1.3958.0556 2.0658.0277.5304-.0556 1.3958.3891 1.7587.1668.1395.3892.2233.6116.2791.7505.1675 1.5567.1675 2.3072.2233.8062.0279 1.6123 0 2.4185-.0279 1.6679-.0558 3.308-.2233 4.9481-.2791 1.1397-.028 1.6123-.9771 1.6957-2.0379.1112-1.2282-.0278-2.4844-.3058-3.6848zm-5.5875-40.2821l.0556-.0558c.4448-.335.556.5025.5838.7816.0556.67.0556 1.3958-.1946 2.0379-.0556.1116-.4448.6699-.417.7258-.3057-.7817-.7505-2.8474-.0278-3.4895zm-.8061 27.3014l-.1668-12.7295c-.0278-1.4795-.1112-2.9869-.139-4.4665 0-.5583.0278-1.1166.1668-1.647.0834-.307.3892-.6979.6394-.7537.2224-.0558.6393.2792.8061.5304.8618 1.2841.8062 2.7636.7506 4.1873-.1112 3.0707-.3058 6.1135-.556 9.1842-.278 3.629-.6116 7.2301-.9173 10.8312 0 .1117-.0556.5583-.278.4188-.0556-.0559-.0834-.1396-.1112-.2234-.0278-.1954-.0834-.3908-.0834-.6141-.0278-1.5633-.0834-3.1544-.1112-4.7177zm6.1156 15.9397c0 .2792-.0278.5583-.0556.8654-.0278.3908-.0834.8375-.4448 1.0608-.5559.3629-1.5011.2512-2.1126.3071-2.1961.1395-4.3644.2791-6.5604.2512-.3892 0-.7506-.0279-1.1119-.1675-.556-.2233-.7228-.6979-.8062-1.2562-.2502-1.6749-.1112-3.5173.3336-5.1643.5282-1.9262 1.6401-3.9361 3.586-4.6898.6949-.2513 1.4455-.3629 2.196-.3071 1.8069.1675 3.0856 1.7587 3.8362 3.3219.7505 1.5912 1.1953 3.4615 1.1675 5.2202-.0278.1675-.0278.3629-.0278.5583z" fill="#BFE9FF"/><path d="M71.0882 73.2581c-.0556 0-.1112-.0558-.139-.1396-.278-.4466-.2224-1.0049-.2224-1.5074 0-1.2562-.0278-2.5124-.0834-3.7407-.0278-.3908-.0278-.8374.139-1.2003.1112-.2792.4448-.6142.5004-.1117.0556.4187-.0278.9212-.0278 1.34.0278 1.312.1112 2.624.2224 3.936.0278.3071.0278.6142-.0556.9212-.0278.1955-.1668.5304-.3336.5025zM73.1731 66.8375c.0278 0 .0278 0 .0556.0279.0556.028.0834.1117.0834.1675.0556.1675.0556.335.0556.5025.0278.9771.0556 1.9541.0834 2.9311.0278.4746.0556.9492.0834 1.4237 0 .2792.0556.5583.0556.8096 0 .4187-.2224.7258-.4725.2233-.139-.2792-.1668-.6141-.1946-.9212-.0556-.67 0-1.312-.0278-1.982-.0556-.9491-.0834-1.8703 0-2.8195 0-.0837.0278-.1954.0834-.2791.0556-.0559.139-.0838.1945-.0838zM68.8924 67.0051c.0278 0 .0278 0 .0556.0279.0556.0279.0834.1117.0834.1675.0556.1675.0556.335.0556.5025l.0834 2.9311c.0278.4746.0556.9491.0834 1.4237 0 .2792.0555.5583.0555.8096 0 .4187-.2223.7258-.4725.2233-.139-.2792-.1668-.6142-.1946-.9212-.0556-.67 0-1.3121-.0278-1.982-.0556-.9492-.0834-1.8704 0-2.8195 0-.0837.0278-.1954.0834-.2791.0278-.0559.1112-.1117.1946-.0838z" fill="#BFE9FF"/></g><defs><clipPath id="clip0"><path fill="#fff" transform="translate(.5)" d="M0 0h104v104H0z"/></clipPath></defs></svg>