<svg width="107" height="104" viewBox="0 0 107 104" fill="none" xmlns="http://www.w3.org/2000/svg"><g clip-path="url(#clip0)"><path d="M.651459 56.2744c-.037443-.8504-.018722-1.1906.018721-.7749.037442.4158.074885 1.1151.074885 1.5308.018721.4347-.037443.0945-.093606-.7559zM1.81218 41.6089c.13105-.4913.2621-1.0583.43059-1.7009.16849-.6236.37442-1.304.58036-2.0032.20593-.6993.48675-1.5119.78629-2.4002.29955-.8882.69269-1.8332 1.06712-2.7781.37442-.9449.84246-1.8899 1.25433-2.7781.43059-.8883.8799-1.7198 1.27304-2.4569.54292-.9827 1.02968-1.7764 1.42282-2.4379.41187-.6615.74885-1.1717.99223-1.5686.50544-.8126.71144-1.115.67394-1.1528-.0749-.0567-.76755.8693-2.00315 2.9293-.24338.4347-.58036 1.0205-.99223 1.7576-.41187.737-.84246 1.6064-1.31049 2.5513-.89862 1.9088-1.87213 4.1388-2.58354 6.2366-.18721.5292-.3557 1.0394-.50548 1.5308-.14977.4914-.28081.9827-.43059 1.4363-.28081.9072-.44931 1.7387-.6178 2.438-.33698 1.3796-.44931 2.1922-.41187 2.1166 0-.0756.11233-.737.37443-1.7198zm-.936066 5.7264c.037443-.2835.056164-.4536.056164-.4536.093602-.6804.168492-1.2473.224652-1.682.05617-.4347.11233-.7748.14977-.9827.05617-.4158.01873-.3591-.13105.189-.07488.2456-.243372 1.5686-.374421 2.9293 0 0-.018721.1512-.037443.3779-.018721.2268-.037442.5481-.056164.8505-.037442.6236-.056163 1.2284-.056163 1.2284s.056163-.737.112327-1.4741c.037443-.3402.074886-.7182.112328-.9827zM.539131 52.419c.037442-.6047.056164-1.4363.056164-1.852 0-.4158-.056164.0756-.074886 1.0961-.037442 1.0016-.018721 1.3607.018722.7559zm8.986229 1.323c.01872.7181.03744 1.0016.05616.6425.01872-.3591 0-.926-.01872-1.2851 0-.3591-.05617-.0567-.03744.6426zM11.6783 75.57c-.131-.2645-.2995-.5858-.468-.9449-.1685-.378-.3745-.7937-.5991-1.2851-.2247-.4914-.468-1.0205-.71142-1.6253-.24338-.6048-.5242-1.2662-.78629-2.0033-1.34794-3.6663-1.90958-6.5767-1.87213-6.2744.03744.2079.22465 1.1529.56164 2.4758.18721.6425.37442 1.3796.6178 2.1544.2621.7749.52419 1.5875.82374 2.3813.31826.7937.6178 1.5875.93606 2.3056.3183.7182.6365 1.3985.8986 1.9655.5804 1.1339.9923 1.8899 1.0297 1.9466.2247.2646.0936-.0378-.4306-1.0962zm5.9159-54.9576c.206-.2268.3183-.4725.2434-.5292-.0562-.0567-.2621.0945-.4493.3591-.1685.2646-.2808.4914-.2434.5292.0562.0378.2434-.1323.4493-.3591zm-7.5821 39.1772c-.07488-.3402-.05615-.0567.0375.6425.1123.6993.1872.9828.1684.6237-.0374-.3402-.131-.9261-.2059-1.2662zm26.7902 38.5346c.0187-.0567-.3183-.2079-.8425-.4347-.5054-.2268-1.1981-.5103-1.9095-.7748-.3932-.1512-.543-.2079-.4119-.1323.131.0756.5242.2834 1.2543.6047 1.011.4914 1.8909.7749 1.9096.7371zM10.4427 30.7421c.1498-.2834.2247-.5291.1685-.548-.0562-.0189-.2059.189-.3557.4535-.1498.2835-.2247.5292-.1685.5481.0562.0189.2246-.189.3557-.4536zm21.8478 65.5977c.0187-.0567-.1873-.189-.4681-.3024-.2808-.1134-.5242-.189-.5242-.1701-.0187.0189.1872.1701.4493.3024.2809.1512.5242.2079.543.1701zM19.2043 86.3046c-.4868-.4914-.1124-.0567.805.926.468.4914.805.8315.9735.9827.1685.1512.1498.1134-.0749-.1323-.468-.4724-1.2169-1.2851-1.7036-1.7764zm-6.5712-59.3233c.4867-.8694.4867-.8694-.0936-.0756-.337.4536-.6553.9827-.7114 1.1717-.206.5481.2434-.1323.805-1.0961zM3.57198 67.5948c-.07488-.2835-.16849-.5859-.24338-.8505-.07488-.2835-.13104-.5292-.18721-.7559-.11233-.4536-.13105-.4914-.07488-.189.05616.3024.18721.926.44931 1.8143.48675 1.7765.76757 2.4757.50547 1.6064-.11233-.4536-.28082-1.0395-.44931-1.6253zm-1.77852-8.788c-.03744-.2079-.01872.2646.13105 1.4174.05616.4914.13105 1.0206.24337 1.5119.09361.4725.20594.8883.28082 1.134.18722.6236.11233.2079-.22465-1.5119-.24338-1.493-.39315-2.3624-.43059-2.5514zm2.50865 4.857c.01872.2835.14977.6615.2621.8127.14977.189.13105.0189-.01872-.5292-.2621-.9638-.29954-1.0205-.24338-.2835zm4.0438 11.6795c.09361.2834.28082.6614.43059.8126.14977.1512.07489-.0756-.14977-.5292-.43059-.9449-.54291-1.0583-.28082-.2834zM1.41903 54.29c-.01872-.3213-.03744-.6614-.03744-1.0205v-1.1339c0-.7938.01872-1.682.09361-2.627.24337-3.7608 1.01095-8.5044 2.56481-12.9456.76758-2.3624 1.94702-5.1216 3.23879-7.6162.63652-1.2474 1.32921-2.4002 1.94701-3.4585.65525-1.0206 1.23559-1.9466 1.75979-2.6648.9922-1.4363 2.5461-3.4584 4.3434-5.4617 1.8159-1.9844 3.894-3.9121 5.6725-5.3862 1.7973-1.4741 3.9689-3.00486 6.0283-4.27108 2.0593-1.24732 3.9876-2.21116 5.1858-2.77812.5991-.26458 1.2543-.56697 1.9283-.85045.6739-.26458 1.3666-.52916 2.0406-.79375.674-.24568 1.3105-.45357 1.8908-.64255.5804-.18899 1.0859-.34018 1.479-.43468 0 0 .7302-.18898 1.4603-.37797.3557-.0945.7301-.17009 1.0109-.22679.2809-.05669.4681-.09449.4681-.09449s-.337.0378-.6927.05669c-.337.0189-.6927.0756-.6927.0756-.4493.0567-1.3292.22679-2.4899.51027-.5804.15119-1.2169.34018-1.9283.54806-.7114.20789-1.4416.49137-2.2466.75595-3.1639 1.15283-6.8333 2.96711-9.941 5.08378-.6927.47246-1.4041.96383-2.0781 1.47413-.6739.5102-1.3105 1.0016-1.8908 1.4741-1.1233.9827-2.0594 1.7765-2.49 2.1733-.7675.7182-1.4789 1.3796-2.0967 2.0033-.6178.6237-1.1795 1.1906-1.6475 1.7387-.468.5292-.8986 1.0016-1.2731 1.4363-.3557.4347-.6739.8126-.936 1.1528-.5429.6615-.8986 1.134-1.1233 1.4174-.2247.3024-.337.4158-.3557.3969-.0375-.0378 0-.1512.4493-.7748.2247-.3213.5429-.7371 1.0297-1.323.2434-.2834.5054-.6236.8237-1.0016s.6927-.7937 1.1233-1.2473c.3744-.4158.805-.9072 1.3292-1.4174.5055-.5103 1.0484-1.0961 1.6475-1.6442s1.1794-1.1339 1.7785-1.6442c.5991-.5103 1.1607-1.0205 1.6849-1.4552.6178-.4914 1.2918-1.0394 2.0406-1.58751.7676-.52917 1.5726-1.11503 2.4338-1.68199.8612-.54807 1.7598-1.11503 2.6959-1.6442.468-.26458.936-.51026 1.4041-.77485.4867-.24568.9548-.47247 1.4415-.71815 1.9096-.94494 3.8379-1.70089 5.5415-2.28675.8612-.28348 1.6662-.52917 2.3776-.73705.7114-.20789 1.348-.35908 1.8722-.47247.8986-.22679 2.3214-.510271 3.894-.755956.7863-.113392 1.61-.226785 2.4338-.321279.8237-.075595 1.61-.15119 2.3588-.207887.7489-.056696 1.5913-.075595 2.4525-.094493.8799-.037798 1.7973.018898 2.6959.037797 1.7972.075595 3.5196.245684 4.7552.434672 1.273.15119 2.5087.396875 3.4822.566966.9922.18899 1.7223.34018 2.0219.37797.7301.0945.9547.15119.7488.20789-.1872.0567.4493.28348 1.7411.68036.8612.24568 1.61.52916 2.3214.75595.3557.11339.6927.22678 1.0297.34018.337.11339.6553.22678.9922.34017.4306.13229.8612.28349 1.2918.41578v-.0189c.0187-.0189.1311-.0189.2621 0 .1311.0189.2247.09449.2059.13229l-.0187.0189c.0936.0378.1872.05669.2996.09449.7114.24569 1.5164.47247 2.3963.79375 0 0 .8424.30238 1.6849.60476.8237.34018 1.6475.68036 1.6475.68036s.7863.39687 1.9095 1.07723c.2809.17009.5804.34018.9174.54806.3183.18899.6552.41578.9922.64256.337.22679.6927.45357 1.0671.69926.3557.24568.7114.49137 1.0672.75599.3557.2645.7114.5102 1.0483.7748.337.2646.674.5292.9923.7749.6365.5102 1.2356 1.0016 1.7223 1.4363.4868.4346.8987.7937 1.1795 1.0583.2808.2646.4306.4158.4306.4158 2.8082 2.6458 5.167 5.5184 6.8145 7.8619 1.6662 2.3434 2.6397 4.1199 2.8644 4.5546.6923 1.2095 2.0403 3.9309 3.0703 6.5012 1.048 2.5702 1.741 4.9892 1.872 5.3105.225.5292.843 2.9293 1.161 5.3862.187 1.2284.281 2.4568.356 3.4773.056 1.0017.037 1.7954.018 2.1167-.018.189-.018.4347-.037.756-.019.3212-.019.6992-.038 1.1339 0 .4347-.018.9071-.037 1.4363-.019.5103-.056 1.0772-.075 1.6631-.037 1.0394-.168 2.2489-.299 3.364-.15 1.115-.356 2.1166-.469 2.7592-.542 2.4568-1.628 5.046-1.928 5.2727-.206.7182-.374 1.2663-.43 1.4553-.075.1889-.225.7559-.487 1.493-.262.7181-.581 1.6253-.918 2.5135-.355.8882-.692 1.682-.973 2.2679-.15.2834-.262.5102-.337.6614-.075.1512-.131.2457-.131.2457-.019 0 .056-.1701.187-.4914.131-.3024.318-.7559.543-1.3418.225-.5859.506-1.2662.805-2.0789.019-.0567.038-.1322.075-.2078-.318.7559-.655 1.5686-1.048 2.3434-.9178 1.7765-1.2922 2.1734-.618.6615.355-.8316.337-.8127-.187.0378-.1689.2645-.3749.6425-.5808 1.0205-.2059.3969-.4306.7937-.5991 1.1339-.4867.9639-.6178 1.115-.6365.7749 0-.1701-.0374-.2268-.1498-.0945-.0936.1323-.2621.4346-.5616.9449-.3932.6993-.7489 1.2284-.805 1.2095-.0375-.0189-.4119.4536-.8612 1.0584-.5429.7748-.805 1.0205-.8425.8315-.0561-.2646-.4306.2646-1.8534 2.2301-.0749.0945-.2434.2835-.4493.4913-.4493.5859-.9548 1.2096-1.4602 1.8143-.7302.8505-1.4603 1.6442-1.9658 2.1734-1.8908 1.9466-4.3059 4.2522-7.7506 6.728-.4306.3023-.8799.6236-1.3292.9449-.4681.3024-.9548.6048-1.4416.926-.4867.3213-1.0109.6237-1.5538.945-.5429.3023-1.0859.6425-1.6662.9449-2.3027 1.2473-4.9424 2.4195-7.9753 3.4395-.6365.227-1.3292.416-2.0593.643-.7302.226-1.4977.415-2.284.604-.3932.095-.7863.189-1.1795.284-.3931.075-.7863.151-1.1794.227-.3932.075-.7863.151-1.1607.226-.3932.057-.7676.114-1.142.171-1.4977.226-2.8457.321-3.8941.415-1.0296.057-1.7598.095-1.9657.095-.1123 0-.337.019-.6178.038h-1.0858c-.4306 0-.8987 0-1.3854-.019-.5055-.019-1.0297-.057-1.5539-.095-1.0484-.038-2.3589-.208-3.5945-.34-.6178-.094-1.2356-.189-1.7972-.283-.2808-.038-.5429-.095-.805-.133-.2434-.056-.4868-.094-.6927-.132-1.6849-.321-3.2201-.699-4.8301-1.191-.7863-.264-1.6288-.491-2.4712-.831-.8612-.321-1.7598-.662-2.7146-1.0963-.3557-.1512-.7489-.3213-1.142-.5103-.3932-.189-.8238-.3969-1.2169-.5859-.4119-.1889-.805-.3779-1.1607-.5669-.3557-.189-.674-.3591-.9361-.4914-1.0671-.5291-2.6771-1.493-3.5758-2.0788-.4493-.3024-1.142-.756-1.9095-1.2852-.7489-.548-1.5726-1.1339-2.2653-1.682-.674-.548-1.3667-1.0772-1.8909-1.5686-.5242-.4724-.936-.8315-1.0671-.9827 0 0-.131-.1323-.2621-.2646-.131-.1323-.2621-.2646-.2621-.2646s.1311.1134.2808.2268l.2996.2268c.2621.189 1.0484.8883 1.9283 1.5875.8612.6804 1.7598 1.3796 2.1717 1.682.1497.1134.7301.5292 1.273.8882.2808.1701.8986.5859 1.6662 1.0773.7676.5102 1.7411 1.0583 2.6584 1.5875 1.8722 1.0394 4.3808 2.23 5.5602 2.6647 1.011.4345 1.8909.7375 2.6585 1.0015.7488.284 1.3854.454 1.9283.624.5429.17.9922.302 1.3853.416.3932.113.7115.207 1.0297.283.674.189 1.2169.321 1.2169.284 0-.019.2434.018.6365.094.3932.076.9361.189 1.5352.302.5991.114 1.4415.227 2.3214.359.8799.133 1.816.189 2.5461.265 2.1155.132 2.7333.151 2.8831.265.1498.113.2246.094.3931 0 .1311-.076.6553-.114 1.2918-.095.5991.019 1.0858-.019 1.0858-.057 0-.056-2.078-.245-2.3214-.189-.0562.019-.6365 0-1.5351-.056-.4494-.038-.9736-.057-1.5539-.114-.5804-.075-1.2169-.151-1.8721-.226-2.1343-.322-4.774-.794-7.0393-1.437-.5616-.132-1.1045-.302-1.61-.453-.5055-.151-.9735-.303-1.4041-.435-.8424-.283-1.4977-.5102-1.8721-.6236-.5242-.1512-.5242-.1701-.1498-.1512.2247 0 1.8721.5858 3.9689 1.1338 2.0968.548 4.6429 1.077 6.5338 1.342.5429.076 1.273.189 2.0406.265.7676.056 1.5351.151 2.1529.17.5991.019 1.2731.037 1.8347.056.5617 0 1.0484 0 1.3105-.019.3183 0 2.3776.076 5.3356-.17 2.958-.226 6.8145-.869 10.5962-2.06 3.7817-1.1903 7.4511-2.9101 10.2593-4.5731.7114-.3969 1.3479-.8316 1.947-1.2096s1.1233-.7559 1.5913-1.0772c.4681-.3402.8612-.6048 1.1982-.8693.3183-.2457.5804-.4536.7488-.5859.2996-.2457.6179-.4725.9174-.7182.2995-.2457.5804-.4724.8425-.6803.5054-.4158.936-.756 1.1045-.9072.2621-.2079.4306-.359.5055-.4724-.1123.0945-.2247.189-.3183.2834-.4867.4536-1.4602 1.1529-2.1155 1.5687-.1685.1133-.3182.2078-.4867.3023-1.479 1.1529-3.089 2.249-4.437 3.0238-.3931.2268-.7676.4536-1.1045.6426-.337.1701-.6366.3402-.8799.4536-.5055.2456-.7863.3968-.8051.3779-.0374-.0567.8238-.5291 2.1156-1.2851 1.3479-.7937 2.7333-1.7387 4.0063-2.6836-.1123.0189-.0374-.0756.3183-.3402.6178-.4158.9922-.737 1.2169-.9449.2246-.2268.2808-.3591.2246-.4347-.0374-.0567-.2059-.0189-.4493.0945-1.1794.926-2.3402 1.7765-3.8004 2.7025-1.4977.9261-3.2575 1.9844-5.7287 3.0994-.8425.4158-1.8722.7938-2.827 1.1906-.9735.3402-1.8534.6804-2.4524.8694-1.4978.4725-2.153.6236-2.1343.5292.0187-.0756-.2059-.0756-.468-.0378-.1311.0377-.6365.1511-1.3292.3023-.7114.1701-1.6101.3213-2.5274.4914-.9173.1512-1.8347.2646-2.5648.3591-.7301.0756-1.2731.1323-1.4416.1323-.2059.0189-.468.0565-.7862.0945-.3183.038-.6927.057-1.0859.076-.3931.018-.8237.056-1.273.075-.4493.019-.8987.019-1.3667.019-.4493 0-.9173.019-1.3479 0-.4306-.019-.8425-.038-1.2169-.057-.3744-.019-.7114-.037-.9922-.056-.2809-.019-.5055-.057-.6553-.076-.4306-.0377-.9548-.0944-1.4602-.1511-.5055-.0567-1.011-.1323-1.3667-.1701-.7114-.0945-1.1982-.189-1.0858-.2268.0749-.0189.4493 0 1.1045.0756.3183.0378.7114.0756 1.142.1134.4493.0189.9361.0567 1.479.0945 2.1717.1134 5.1109.1323 8.2561-.2268 3.1452-.3402 6.4776-1.0772 9.4168-2.0411 2.9393-.9638 5.4854-2.0977 7.2077-2.9671 1.1795-.5858 2.3963-1.2851 3.4447-1.9087.0188-.0756.0749-.1512.206-.2457.7488-.5859.337-.6237-.5991-.0756-.2434.1323-.6178.3212-1.011.4913-.131.0567-.2621.0945-.3931.1512h-.0187c-.3183.1701-.4306.2268-.2621.0945 0 0 .0187 0 .0187-.0189-.2059.0756-.3932.1323-.5617.189-.7301.2268-1.5913.4725-1.8908.6237-.1872.0756-.337.1134-.468.0945-.4493.2079-1.2356.5291-2.2091.926-.4868.2079-1.0484.3969-1.6475.6237-.5804.2268-1.2169.4346-1.8909.6425-2.6397.8505-5.7661 1.5119-8.3497 1.8332-.468.0567-.8986.1134-1.273.1512-.3744.0378-.6927.0567-.9922.0756-.5617.0378-.9736.0567-1.2544.0756-.5616 0-.6365-.0378-.5991-.1134.0749-.1323-.1123-.1701-.8986-.1701-.2059 0-.6552.0189-1.3105 0-.6365-.0189-1.479-.0189-2.4337-.0945-1.9096-.1134-4.3059-.4158-6.6274-.9071-2.3214-.4725-4.5493-1.1906-6.1967-1.7765-.8238-.3213-1.4977-.567-1.9845-.7749-.4867-.2079-.7676-.3212-.7863-.3401-.131-.0189-.337-.1512-.468-.2835-.2621-.2457-2.958-1.4552-6.1968-3.4207-.468-.3024-1.0296-.6615-1.5538-1.0016-.5242-.3402-.9923-.6993-1.3105-.945-.6553-.4725-1.2169-.926-1.3105-.9638-.0936-.0378-.1685-.1512-.1685-.2268 0-.2079-2.284-2.2679-4.0251-4.0254l-.5616-.567c.2059.2646.4118.5292.6178.7748.5991.6993 1.1794 1.3608 1.7223 1.9277.1124.0945.2621.2268.337.3402.0187.0189.0375.0378.0375.0567.4867.5103.936.9638 1.3666 1.3607.4868.4536.8799.8315 1.2169 1.1339.337.2835.5991.5103.7489.6426.3182.2457.7114.5859 1.1607.926.4493.3402.9735.7182 1.479 1.1151.5429.359 1.1045.737 1.6474 1.115.5429.3591 1.1046.6803 1.5913.9827.4868.3024 1.0484.6048 1.6288.9261.2808.1512.5804.3023.8612.4724.2995.1512.5991.2835.8799.4347 1.1607.567 2.2653 1.0205 2.9954 1.3229 1.8534.6993 3.9876 1.4363 6.178 1.9466 2.1717.5292 4.3621.9071 6.2155 1.0961.4306.0378.8799.0945 1.3292.1323.4493.0189.8986.0567 1.3105.0756.8237.0567 1.5539.0378 1.9657.0378 1.011-.0189 1.3667 0 1.1233.0756-.1872.0567-.9735.0945-1.7411.0756-.3744 0-1.5539-.0378-3.1264-.1512-1.5726-.1323-3.5571-.3591-5.5228-.7748-.9922-.189-1.9658-.4347-2.9018-.6615-.9174-.2457-1.7785-.5292-2.5461-.756-.7489-.2645-1.4228-.5102-1.9283-.6992-.5055-.189-.8799-.3591-1.0671-.4347-.7489-.3024-1.5352-.6236-1.7598-.7181-.1311-.0567-.6178-.2646-1.2918-.5859s-1.5351-.7937-2.4525-1.304c-1.816-1.0394-3.8004-2.419-4.9424-3.3451-.2621-.189-.7301-.567-1.3292-1.0772-.2996-.2646-.6365-.5292-.9923-.8694-.3557-.3213-.7301-.6803-1.1419-1.0583-1.6101-1.5308-3.4635-3.5719-5.111-5.7452-.3369-.4536-.7114-.9639-1.0858-1.5119-.2434-.2835-.5055-.5859-.7114-.8505-.1311-.1512-.2621-.3213-.3932-.4913-.131-.1701-.2433-.3402-.3744-.4914-.2246-.3213-.4119-.6048-.5242-.756-.2059-.3212-.0749-.189.4119.4347.2246.3024.5429.6993.9548 1.1906-1.2918-1.9843-2.6772-4.4412-3.8379-7.1626-.8424-2.0033-1.5913-4.1388-2.15294-6.2366-.54292-2.1167-.97351-4.1955-1.21689-6.1232-.05616-.4158-.0936-.7938-.14977-1.1906-.03744-.378-.05616-.756-.0936-1.1151-.05617-.7181-.11233-1.3985-.13105-2.041-.01872-.6426-.03744-1.2474-.05617-1.7954.01873-.567.01873-1.0772.01873-1.5686 0-.9828.0936-1.8143.13104-2.5324.03745-.7182.13105-1.323.1685-1.8332.05616-.5103.0936-.945.13105-1.3041.03744-.359.07488-.6425.11232-.8882.05617-.4914.07489-.8315.09361-1.1906.05616-.8505.03744-1.5686-.05616-1.6064-.07489-.0189-.09361-.1323-.05617-.378.03744-.2646.09361-.6614.2621-1.2284.22466-.7938.37443-1.4363.41187-1.7954.05616-.3402 0-.3969-.18721.0378-.01873.0567-.14977.4347-.33699 1.0772-.0936.3213-.20593.6993-.31826 1.1151-.11233.4346-.22466.926-.3557 1.4741-.50548 2.1544-1.01095 5.1026-1.16073 8.3154-.18721 3.4018.03745 6.2744.24338 8.2777.20594 2.0033.43059 3.1183.37443 3.0427-.01872-.0378-.13105-.5292-.28082-1.4174-.05617-.4347-.13105-.9827-.22466-1.5875-.03744-.3024-.0936-.6426-.11233-1.0016-.03744-.3591-.05616-.7182-.0936-1.1151-.03744-.3968-.05617-.7937-.09361-1.2284-.01872-.4347-.01872-.8693-.03744-1.3418 0-.4536-.03744-.9449-.01872-1.4363.01872-.4914.01872-1.0016.03744-1.5308 0-.2646.01872-.5292.01872-.7938.01872-.2645.03744-.548.05617-.8126.03744-.5481.07488-1.115.13104-1.682.14978-1.1528.28082-2.3435.50548-3.553.6178-3.4584 1.47898-6.2177 2.284-8.4477.43059-1.1151.80502-2.0978 1.21684-2.9671.1873-.4347.3745-.8505.5617-1.2474.1872-.3779.3744-.737.5429-1.0772.1685-.3402.337-.6614.4868-.9638.1684-.3024.3182-.567.4493-.8316.2808-.5291.5429-.9827.7675-1.3796.4681-.8126.8425-1.4174 1.142-1.9466.8799-1.4363 2.4525-3.7986 3.5945-5.1404.1685-.2268.337-.4347.4868-.6237.1498-.189.2995-.3591.4306-.5103.2621-.3212.468-.5669.6365-.7748.3183-.4158.4493-.6237.4119-.6615-.0562-.0567.0748-.2267.6552-.8126s1.61-1.6064 3.5571-3.1372c2.4712-1.9844 5.4666-3.7798 6.4401-4.2711.468-.26461 1.0671-.56699 1.6662-.88827s1.1981-.64256 1.7223-.88825c1.0484-.52916 1.7598-.88824 1.3293-.75595-.1685.0567-1.011.39688-2.284.98274-.6366.30238-1.3667.66146-2.1717 1.09613-.7863.4536-1.6849.926-2.5648 1.493-1.7973 1.0961-3.6881 2.4946-5.4667 3.9687-1.7785 1.4742-3.3885 3.0805-4.7177 4.5358-2.9018 3.345-3.7256 4.7435-4.2872 5.2727-.4306.4347-.9735 1.2284-1.4603 2.0411-.2246.3591-.6178 1.0583-1.0858 1.9088-.2434.4157-.4868.8693-.7301 1.3418-.2434.4724-.5055.9449-.73016 1.4174-.22466.4725-.56164 1.1717-.95479 2.0599-.18721.4347-.39314.9261-.59908 1.4553-.20593.5291-.43059 1.0772-.63652 1.6819-.86118 2.3624-1.64748 5.2161-2.11551 7.9375-.05616.3402-.13105.6804-.18721 1.0206-.05617.3401-.09361.6614-.13105.9827-.09361.6615-.18721 1.2851-.24338 1.8899-.11233 1.2095-.20593 2.3056-.22465 3.2506-.09361 1.871-.03745 3.0616-.05617 3.1561 0 .0378-.01872-.2457-.03744-.7749-.01872-.5291-.01872-1.3229.01872-2.3056.01872-.9828.11233-2.1734.22466-3.4963.14977-1.3229.33698-2.7781.63652-4.29.56164-3.0427 1.64748-6.9359 3.22006-10.5833 1.5726-3.6475 3.5945-7.0304 5.2794-9.3927 1.6849-2.3813 3.8379-4.9137 6.0095-6.9926 1.0672-1.0583 2.153-1.9844 3.1078-2.7781.9735-.7749 1.8347-1.4552 2.5086-1.9088.3745-.2646.7676-.5481 1.142-.8126.3932-.2646.7863-.5103 1.1795-.7749.3931-.2457.7863-.5103 1.1794-.7559.3932-.22682.7863-.47251 1.1795-.68039 1.5538-.88824 3.0515-1.6442 4.2871-2.21116 2.49-1.13393 3.969-1.66309 2.9767-1.37961-1.3105.43467-1.3105.43467.2434-.17009 1.3479-.49137 2.3589-.85044 3.0329-1.09613.6739-.24568 1.0109-.41577.9735-.51027-.0188-.09449 0-.15119-1.2731.17009-.6365.15119-1.5913.45357-3.0328.92604-.7114.26459-1.5539.56697-2.5087.94494-.9548.41578-2.0593.86935-3.2762 1.49301-1.7973.86934-3.7817 2.00327-5.9347 3.47737-2.1529 1.4741-4.4744 3.3262-6.8707 5.6885-2.3776 2.3624-4.8301 5.2539-7.0954 8.8069-2.28396 3.5529-4.36202 7.8241-5.89717 12.8133-.97351 3.2317-1.59131 6.4067-1.90957 9.3171-.09361.7182-.13105 1.4364-.18721 2.1356-.01873.3402-.05617.6804-.07489 1.0205-.01872.3402-.01872.6615-.03744.9828-.01872.6425-.03745 1.2662-.03745 1.871.01873.6047.01873 1.1717.03745 1.7386 0 .5481.03744 1.0773.07488 1.5686.03745.4914.07489.9639.09361 1.3986.07488.8693.18721 1.6252.2621 2.2489.07488.6237.14977 1.0961.20593 1.4174.01872.1701.03744.2835.05617.378.01872.0756.01872.1323.01872.1323-.03745 0-.16849-.4347-.2621-1.0017-.54292-3.0616-1.12328-9.3171-.14977-15.8371.46803-3.2506 1.27305-6.539 2.284-9.4494 1.01095-2.9104 2.17167-5.4618 3.18262-7.3516 1.70362-3.2317 3.27622-5.3862 4.23102-6.7658 1.0109-1.3418 1.4415-1.9277 1.2918-1.7954-.1311.1134-.4494.4914-.8799 1.0205-.206.2646-.4494.567-.7114.8883-.2434.3213-.4868.6803-.7489 1.0394-1.011 1.3985-2.3402 3.4963-3.03285 4.6113-.69269 1.115-1.7598 3.0238-2.84564 5.5374-1.08583 2.4946-2.11551 5.594-2.84564 8.9391-.73013 3.3451-1.12328 6.9169-1.142 10.2809-.03744 3.364.29954 6.539.76758 9.1281.29954 1.6064.84246 4.2901 1.77852 7.2383.93607 2.9482 2.284 6.1043 3.70682 8.7879 1.44151 2.7403 3.25751 5.4618 4.99861 7.654.8612 1.115 1.7223 2.06 2.4525 2.8726.7488.7938 1.4041 1.4363 1.8721 1.8899 1.816 1.682 3.089 2.7025 3.5009 3.0805.4118.3591-.0187.0756-1.479-1.0772-1.5539-1.2851-3.4634-3.0238-5.7287-5.7075-1.1233-1.3607-2.3402-2.9293-3.5571-4.8381-.6365-.9449-1.23557-2.0032-1.8721-3.1183-.59908-1.1339-1.2356-2.3434-1.81596-3.6663-1.29177-2.8537-2.30272-5.8397-2.95797-8.2966-.16849-.6236-.29954-1.2095-.43059-1.7387-.13105-.5291-.24338-1.0205-.31826-1.4741-.16849-.8882-.29954-1.5308-.37443-1.9087-.22465-1.3041-.44931-2.6459-.59908-4.309-.03744-.4157-.07489-.8504-.11233-1.304-.01872-.4536-.03744-.9449-.05616-1.4552-.05617-1.0205-.01872-2.1545 0-3.4396.11233-2.5702.39315-5.7263 1.29177-9.6572.89862-3.931 2.43377-8.6368 5.35429-13.9096 1.44152-2.608 3.05162-4.9703 4.73652-7.087 1.6849-2.1167 3.426-4.0065 5.2045-5.6507.4306-.4158.8799-.8127 1.3292-1.1907.4493-.3779.8799-.7748 1.3105-1.115.8799-.6992 1.7411-1.3985 2.6023-2.0033.4305-.3023.8424-.60472 1.273-.8882.4306-.28348.8425-.54806 1.2543-.81265.805-.52916 1.6288-.98273 2.3964-1.4363 3.1077-1.73869 5.8036-2.81592 7.788-3.53408 1.011-.34017 1.8347-.60476 2.4712-.79374.6366-.17009 1.0859-.28349 1.3292-.34018 1.0297-.24569 1.9658-.62366 1.0859-.51027-.2808.0378-2.9954.64256-5.916 1.68199-.6178.22679-1.2168.43467-1.8159.68036-.5991.24568-1.1982.51027-1.8347.79375-1.2731.58586-2.7146 1.28511-4.5306 2.36234-1.8159 1.07724-4.025 2.49468-6.6835 4.66798-.6552.567-1.3479 1.1529-2.0593 1.7954-.3557.3402-.7114.6804-1.0858 1.0205-.1873.1701-.3745.3591-.5617.5481l-.5616.567c-.3744.3968-.7676.7937-1.1607 1.2095-.3932.4347-.7676.8693-1.1608 1.3229-.2059.2268-.3931.4725-.599.6993-.1873.2456-.3932.4913-.5991.737-.3932.5103-.805 1.0205-1.2169 1.5686-1.3854 1.871-2.84565 4.1388-4.04381 6.3122-.58036 1.0961-1.142 2.1356-1.57259 3.0805-.22466.4725-.43059.926-.6178 1.3229-.1685.4158-.33699.7938-.46804 1.1151-.2621.6614-.58036 1.3985-.86118 2.23-.28082.8316-.59908 1.7198-.86118 2.6647-.13105.4725-.28082.9639-.41187 1.4552-.13104.4914-.24337 1.0017-.3557 1.5119-.24338 1.0206-.43059 2.06-.6178 3.0994-.09361.5103-.1685 1.0395-.22466 1.5497-.05616.5103-.13105 1.0206-.18721 1.5119-.11233.9639-.16849 1.9277-.22466 2.8349-.03744.9071-.03744 1.7387-.05616 2.4946-.01872.756.03744 1.4174.05616 1.9655.01872.4536.03744.8504.05617 1.1528.01872.3213.03744.5481.05616.7182.01872.3212 0 .3401-.05616.0567-.07489-.378-.14977-1.2663-.20594-2.5325zM17.6504 75.3622c.3557.5669.7301 1.1339 1.1233 1.682.2808.4157.5803.8315.8799 1.2284.2995.3968.5803.7937.8799 1.1528.5991.7182 1.142 1.3985 1.6287 1.9466.4868.548.9923 1.115 1.5352 1.6442.2621.2646.5242.5291.7863.7937.2621.2457.5242.4914.7675.7182.2434.2268.4868.4535.7115.6614.2246.189.4305.378.6365.5292 0-.0567-.0187-.1134-.0562-.1512-.0749-.1134-.2995-.3402-.5242-.5103-.2059-.189-.5803-.5669-.805-.8693-.2059-.2835-.4119-.4725-1.1046-1.1528-.3557-.3402-.8424-.7938-1.4977-1.4741-.6552-.6804-1.4977-1.5686-2.5086-2.7971-.3557-.4346-.6927-.8504-.9735-1.2473-.2808-.3968-.5429-.737-.7489-1.0394-.4306-.5859-.6365-.9827-.6178-.9638.0187.0188.1872.2456.4306.6047.2621.3402.6178.8127.9922 1.3229.7676 1.0017 1.7037 2.1167 2.2279 2.7026.3182.359.4867.5102.468.3968 0-.0378-.1685-.2646-.4493-.6047-.2808-.3402-.6927-.8127-1.1233-1.3607-.2246-.2646-.4493-.567-.6927-.8694-.2433-.3024-.468-.6236-.6927-.926-.4867-.6237-.9173-1.2662-1.3104-1.8521-.1873-.2646-.4494-.6426-.6927-1.0583-.2621-.4347-.5617-.8883-.8425-1.3986-.2808-.4913-.5429-1.0016-.805-1.4741-.2434-.4913-.4493-.9449-.6365-1.304-.3183-.6803-.6366-1.4174-.9735-2.23.6552 1.7576 1.4415 3.4206 2.0967 4.7247.4119.7559.8987 1.6442 1.4416 2.5513.3744.3024.5429.5481.4493.6237zm4.6054 5.6885c.1498.1701.3557.2457.3745.189-.0562-.0567-.1124-.1323-.1498-.1701-.0374-.0189-.0749-.0378-.1123-.0567-.1498-.0756-.1872-.0567-.1124.0378zm4.3995 1.7009c-3.2013-3.0805-5.8972-6.728-7.9003-10.7534-.1498-.2646-.2996-.5292-.4306-.7749-.1872-.3402-.337-.6425-.4681-.9071-.2621-.5292-.4493-.8694-.5242-.9827-.0748-.1134-.2246-.4536-.4306-.9072-.0936-.2268-.2246-.4914-.3369-.7748-.1124-.2835-.2247-.5859-.337-.8883-.2247-.6047-.4681-1.2662-.6553-1.8899-.1872-.6047-.3744-1.1339-.4493-1.4552-.1872-.7559-.4306-1.5497-.5991-2.4568-.0936-.4536-.1872-.945-.2808-1.4552-.0749-.5103-.1497-1.0583-.2434-1.6442-.131-1.1717-.2433-2.4947-.2808-3.9877-.0187-.3779-.0187-.7559 0-1.1717 0-.3969.0187-.8126.0187-1.2473.0188-.4347.0562-.8693.0749-1.3229.0375-.4536.0562-.9261.1124-1.3985.2246-2.3057.6926-4.5357 1.142-6.2555.2246-.8694.4305-1.6064.6178-2.1734.1872-.5669.3182-.9638.3744-1.1528.131-.378.2621-.756.3931-1.1339-.0748-.4158-.0936-.9072-.0936-1.2096-.0187-.4157.1685-1.3985.3557-2.1733-.0561.1323-.131.2646-.1872.378-.1497.3401-.3182.6992-.468 1.0583-.2434.5292-.468 1.0961-.6927 1.6631-.0187.1323-.0374.2268-.0374.3213-.0375.2834-.0936.6425-.1685.8126-.0562.1512-.0749.3591-.0188.4347.1311.2079-.0936.8504-.6926 1.8332-.2247.4157-.337.6236-.4681.7181-.0187.0567-.0187.0945-.0374.1512-.1311.4347-.2434.8694-.337 1.3229-.5429 2.2112-.8612 4.4034-1.0484 6.539-.1872 2.1356-.1685 4.2144-.0749 6.1799.2434 3.9499.9735 7.4839 1.8909 10.3565.0187.0378.0187.0756.0374.1134.2808.6426.5055 1.134.674 1.493.2059.4725.2995.7371.2995.8316 0 .0756.1685.3213.3744.548.1685.1701.2809.3213.4306.5859.1498.2646.337.6615.6366 1.2851.3744.8127.7675 1.4363.8237 1.4174.0374-.0189.2434.3024.4306.7182.2434.5291.4306.7559.5242.7559.1123 0 .1685.0945.2621.4158.0749.2457.1498.378.1872.3591.0562-.0378.2434.2268.468.5481.2434.3212.8238 1.1339 1.3667 1.7386.5429.6237 2.0032 2.2868 3.3885 3.5719.337.3402.6927.6237.9923.8883.3182.2645.599.5291.8611.7181.206.1323.3745.2646.5242.3591zm-6.8894-6.6335c-.0936-.1323-.1872-.189-.2434-.1701-.0374.0378.0188.2079.1498.378.131.1701.2247.2457.2434.1701 0-.0945-.0562-.2457-.1498-.378zm-1.1045-1.3985c-.0375-.1134-.0937-.1701-.1311-.1323-.0374.0378-.0374.1323.0187.2079.0562.0945.1124.1512.1311.1323.0187 0 0-.1134-.0187-.2079zm-2.9955-38.2133c.4494-1.0773.9361-2.0789 1.4229-3.0427.0748-.1512.1685-.4158.2433-.6804.0562-.1701.1498-.4725.2809-.8126.131-.3591.3182-.756.468-1.1151.3183-.737.674-1.5119.7488-1.7198.0375-.1134.1873-.4535.3932-.9071.2246-.4347.5242-1.0016.8424-1.6064.337-.5859.7115-1.1906 1.0484-1.7198.337-.5292.6553-.9638.8987-1.2851-.0936.1134-.1872.2268-.2809.3402-1.6662 1.9276-3.5757 4.5546-5.167 7.4461-.0375.1323-.1124.2835-.206.3969-.0187.0189-.0187.0378-.0374.0567-.0936.189-.2059.3779-.2996.5669-.131.2457-.2433.5103-.3744.756 0 .0756 0 .1323.0375.1323.1123.0567.0561 1.5308-.0562 1.7576-.0374.0755-.0187.3212.0562.5669.0748.2268.0561.5103-.0188.8694zm-1.0484 19.2578c-.0561-1.3796-.1123-1.4552-.2246-.2457-.0562 1.1907-.0374 1.4175.1498 1.3986.0936 0 .131-.4347.0748-1.1529zm2.284-25.3432c.1311-.3213.3745-.8694.6927-1.4741.2247-.4347.4493-.8883.6366-1.2474.1872-.359.3369-.6236.3931-.7181.0187-.0189.0187-.0567.0375-.0756-.1311.1701-.2434.3402-.3745.5102-.4867.6615-.8986 1.3041-1.2917 1.9277-.2434.378-.4681.756-.6927 1.134-.1124.359-.1872.6614-.2247.8504-.0562.3213-.131.7182-.2059 1.0394.2995-.6614.6552-1.304 1.0296-1.9465zm.5242-.8883c.3557-.6047.7302-1.1717 1.1046-1.7198 1.142-1.7387 2.5274-3.4585 3.763-4.8381.6178-.6803 1.1981-1.3229 1.7036-1.7954.0187-.0188.0375-.0377.0749-.0755.2434-.2835.5055-.567.7489-.8316.3369-.378.6739-.7181 1.0109-1.0583-.2621.2268-.5429.4724-.8799.7559-.337.3024-.7114.6615-1.142 1.0584-.1872.1889-.3931.3779-.5804.548-.1872.189-.3744.378-.5429.567-.3557.378-.7114.737-1.0484 1.0961-.6365.7371-1.273 1.4363-1.8159 2.1356-.1872.2457-.3745.4724-.5617.6992-.6552 1.1151-1.3479 2.4191-1.7972 3.4018-.0187.0189-.0375.0378-.0375.0567zm8.7242-12.0385c-.1311.1134-.4306.4158-.8238.8126-.3931.3969-.8611.8505-1.2917 1.3607-.8987.9639-1.8722 2.2112-2.2653 2.7026-.1685.2457-.4119.5669-.674.926 1.5726-1.7765 3.295-3.4207 4.9799-4.8192 1.0671-.8882 2.1342-1.6631 3.1077-2.3434.0749-.0567.1498-.1134.2247-.189.5054-.4158 1.1794-.8883 1.8534-1.4174.6927-.4914 1.4228-.9828 2.0968-1.4174.6927-.4158 1.2917-.7938 1.7223-1.0584.5429-.3023 1.0671-.6236 1.142-.6992.0749-.0756-.5429.0756-1.3666.3213-.6927.2456-1.5165.5858-2.284.9638-.7489.3969-1.479.7938-1.9845 1.1717-.3744.2646-.3557.2646.0562-.1323.4306-.3968.4306-.4157.0374-.1323-.2434.1701-.5429.378-.6552.4347-.1311.0756-.206.189-.1685.2457.0374.0756-.2059.2835-.4868.4914-.2995.2079-.6365.4346-.8237.4724-.1872.0378-.2434.0945-.2059.189.0561.0756-.2434.378-.8612.8694-.468.4535-1.0671 1.0016-1.3292 1.2473zm1.0858-1.1528c.0936-.0567.1872-.189.2059-.2646.0375-.0945-.0748-.0756-.2059.0378-.1498.0945-.2434.2268-.2059.2646.0187.0378.131.0189.2059-.0378zm.5616-.5103c.0749-.0189.1873-.1323.2809-.2646.1123-.189.0936-.189-.1311.0189-.1498.1512-.2246.2646-.1498.2457zm1.4416-1.1339c.2995-.1701.337-.2268.1498-.2079-.1498.0189-.337.0945-.4119.2079-.2621.2646-.1685.2646.2621 0zM14.7673 58.9769c.0375.4158.1311.945.2434 1.493.0936.4914.2059.9828.3183 1.3796-.206-1.115-.3932-2.2489-.5055-3.4017-.0187-.0945-.0562-.1512-.0749-.1512-.0374 0-.0187.2834.0187.6803zm2.1342-30.238c-.0374.0756-.0561.1512-.0936.2267.4494-.6992.9174-1.3985 1.4229-2.0977.5616-.7938 1.1607-1.5686 1.7972-2.3435.1311-.2079.2621-.3968.3744-.6047.5242-.756 1.1233-1.5875 1.3292-1.8143.206-.2268.4494-.567.5617-.7371.1123-.1701.3557-.4724.5429-.6614.1872-.189.7301-.7749 1.2169-1.3229.468-.567 1.0858-1.1529 1.2918-1.3607.5616-.5292.9173-.8505 1.1232-1.0584.206-.2079.2434-.2835.206-.3024-.0562-.0189-.206.0567-.337.1701-.0562.0567-.3557.2835-.7489.6048-.3931.3402-.8986.7748-1.4228 1.2095-.5055.4725-1.0297.9828-1.479 1.4174-.4306.4536-.7863.8316-.9548 1.0395-.1684.2078-.4118.4724-.6365.7559-.2246.2835-.468.5859-.6365.8127-.1872.2267-.4493.5669-.6927.9449s-.5055.7559-.7114 1.0961c-.1123.1701-.2059.3213-.3183.4914-.0936.1701-.1872.3213-.2808.4536-.1685.2834-.3182.5102-.3931.6047-.1498.189-.2996.4536-.3183.567-.0562.1134-.4119.9827-.8425 1.9088zm-3.2949 1.5119c.131-.1323.2995-.3213.3744-.4347.0562-.1134.0749-.2268.0375-.2646-.0562-.0189-.2247.1701-.3745.4536-.1497.2457-.1685.3591-.0374.2457zm10.2218 54.9576c.0936.0567.1685.1134.2434.1701-1.0484-.9449-2.3589-2.2489-3.6694-3.7797-1.2917-1.5119-2.5648-3.2317-3.6506-4.9137-1.0671-1.7009-1.9658-3.3262-2.5648-4.6491-.1311-.2835-.3745-.756-.6366-1.3985-.131-.3213-.2808-.6804-.4306-1.0584-.1497-.3779-.3182-.8126-.468-1.2473-.6552-1.7765-1.273-4.0065-1.7223-6.2177-.5617-2.797-.8612-5.6507-.9174-8.3154-.05615-2.6648.1311-5.1405.3932-7.2383.5803-4.2144 1.4602-6.8602 1.2917-6.7091-.0936.1512-.0936.0567.0375-.2078.0561-.0945.3744-1.134 1.0109-2.7215.2434-1.5497.7676-3.6474 1.2356-5.0459.2808-.7938.5429-1.5686.7863-2.1545.2434-.5859.4119-1.0205.4681-1.115.0374-.1134.131-.3024.2433-.5292.1124-.2268.2434-.4725.3745-.7181.0748-.1323.1684-.3213.2621-.5292-1.2544 1.7576-2.5274 3.8553-3.5571 6.0665-1.4977 3.1939-2.4712 6.539-2.88307 8.8824-.09361.5481-.20594 1.1906-.29955 1.7765-.11232.5859-.16849 1.1528-.24337 1.493-.18722 1.0583-.28082 1.2851-.48676 1.2473-.13104-.0189-.20593-.0189-.28082.3591-.03744.189-.07488.4725-.13104.9071-.03745.4347-.11233 1.0017-.14977 1.7765-.03745.8505-.28082 3.7609.03744 7.7863.05616 1.0017.22465 2.0789.37442 3.1939.07489.567.18722 1.134.29954 1.7198.05617.2835.11233.5859.1685.8883.07488.3023.13104.5858.20593.8882.2621 1.1906.6178 2.419.97355 3.6475.2059.6047.4118 1.2284.6178 1.8521.2246.6236.468 1.2284.7114 1.8331.9922 2.438 2.1904 4.7625 3.4634 6.8414.7863 1.304 1.6288 2.4946 2.4525 3.5908 1.8909 1.9843 2.0032 1.9654 2.3027 1.9654.2808-.0189.4306 0 .2996-.2456-.0749-.1323-.2247-.3024-.4493-.5859-.2247-.2835-.543-.6804-.9736-1.2284 0 0-.2808-.3402-.5429-.6993-.2621-.3591-.5242-.7181-.5242-.7181s.2808.3023.5617.6047c.1497.1512.2808.3024.3931.4158.1123.1134.1872.189.1872.189 1.2544 1.2095 1.816 1.5308 1.0297.5858l-.4493-.5291.468.4157c.2434.2268 1.3105 1.1907 2.3963 2.0978.543.4347 1.142.9449 1.7411 1.3607zm4.437 2.9293c.1685.1134.4306.2079.5803.2268.2247.0189.0188-.0945-.9735-.7559-.337-.2268-.6739-.4347-.9173-.5859-.2434-.1701-.4119-.2835-.4493-.2835-.0749-.0378-1.142-.7937-2.3027-1.7954-.3745-.3212-.6927-.6047-.9361-.8315-.2434-.2268-.4493-.4158-.5804-.567-.2808-.2834-.3557-.3968-.2621-.3401.1498.0756.4493.3023.6553.4913.1123.0945.3557.3024.6739.5292.3183.2457.7302.4914 1.1233.7559.7676.5103 1.479.9072 1.5164.945.0749.0756.1311.0378.1685-.0378-.9735-.8505-2.3776-2.0978-3.8378-3.6664-2.0032-2.1166-4.0626-4.8192-5.6351-7.4272-.543-.8882-1.011-1.7387-1.4416-2.5702-.0561-.0945-.131-.2457-.2246-.4347-.0936-.189-.1685-.3213-.206-.4158-.0936-.2079-.1872-.3969-.2808-.5858-.0187 0-.0749-.0945-.131-.2268-.0375-.1134-.0749-.1701-.0749-.189-.3932-.8694-.7489-1.682-1.0484-2.4569-.1872-.4913-.3557-.9638-.5242-1.4174-.1498-.4535-.2808-.8882-.4119-1.2851-.2808-.8126-.4493-1.5497-.6365-2.23-.0187-.0945-.0374-.1701-.0562-.2457-.2808-.9261-.5242-1.9277-.7488-2.986-.2247-1.0584-.337-1.9655-.337-2.0222.0187-.0567.1123.378.2247.9449.0374.2646.1123.6048.2059.9639-.1123-.7371-.2059-1.304-.2621-1.7765-.1498-1.4363-.1685-2.1167-.0936-2.1356.0374 0 .1123.4914.2246 1.4174.0188.2268.0562.4914.0936.7938.0375.2835.0936.6047.1498.9638.0562.3402.1123.7182.1685 1.115.0749.3969.1685.8316.2434 1.2852.1123.6236.2808 1.3229.468 2.0599.3183.9828.6927 2.1167 1.1607 3.3073.9735 2.4947 2.3589 5.1216 3.5196 6.9737.2809.4913.6366 1.0016.9735 1.493.3183.4724.6179.9071.8238 1.1528l.0187.0189c-.0936-.1512-.0749-.1512.0749.0378.0936.1323.2246.3213.337.5103.1685.2268.3744.4913.5991.7937.4867.5859 1.0296 1.304 1.61 1.9088.2621.2835.4867.5481.6927.7748.2059.2268.3931.4158.5616.567.3183.3213.5617.5481.7301.6993.337.3023.4306.3023.4868.2456.0374-.0378-.1872-.2834-.5429-.6047-.1685-.1512-.5991-.567-1.1607-1.1528-.543-.6048-1.2169-1.3419-1.8347-2.1167-1.5352-1.9466-2.4712-3.364-3.2388-4.6869-.0375-.0756-.0936-.1512-.1311-.2079.3557.7371.6927 1.304.8987 1.682.2246.3969.3369.6048.3557.6237 0 .0378-.1498-.2268-.4306-.7371-.1498-.2457-.3183-.567-.5242-.926-.1872-.378-.4119-.7938-.6553-1.2663-.0187-.0378-.0374-.0755-.0561-.1133 0-.0189-.0188-.0378-.0375-.0567-.1685-.3213-.3557-.6426-.5242-.9828-.3744-.6614-.7114-1.3796-1.1045-2.1733-.2434-.4725-.4119-.9261-.5804-1.3229-.1685-.3969-.337-.756-.4493-1.0773-.2434-.6614-.4493-1.1906-.6178-1.6631-.3183-.9827-.5991-1.7576-.9361-3.0616-.1872-.6236-.3369-1.3607-.4867-2.0032-.1498-.6615-.2434-1.2474-.2996-1.6064-.2808-1.5875-.468-3.7609-.5429-4.8192-.0561-.6615-.0561-.7182.0562-.4158.0749.2079.1498 1.304.2808 2.4379.0562.567.1311 1.1151.1872 1.5308.0749.4158.1311.7182.1498.7938.0562.1512.1685.737.2621 1.2662.1123.5481.337 1.3418.4493 1.7954.131.4347.4306 1.3796.6178 2.0978.2059.6425.5804 1.7575.9173 2.5702-.0936-.3024-.1872-.6237-.2808-.945-.131-.4724-.2621-.9449-.3557-1.4174-.1123-.4724-.2246-.9449-.3182-1.3985-.1685-.9449-.3557-1.852-.4494-2.7781-.0561-.4536-.1123-.9071-.1684-1.3607-.0375-.4536-.0749-.8882-.1124-1.3418-.0749-.8883-.0936-1.7576-.1123-2.608-.0562-3.4207.3183-6.5957.9361-9.4872.1872-.8316.3744-1.6442.599-2.4191-.131 0-.3182-.0378-.6365-.0945-.2434-.0567-.2808-.1512-.2246-.4536.0561-.2456 0-.4157-.1498-.5858-.0936.378-.1872.737-.2808 1.0772-.1124.4347-.2247.9639-.3557 1.5686-.1311.5859-.2621 1.2473-.3745 1.9277-.1123.6804-.2433 1.3985-.3182 2.1167-.0936.7181-.1872 1.4363-.2247 2.1355-.131 1.3985-.1497 2.6648-.1685 3.6097-.0187.4725 0 .8504 0 1.115 0 .2646 0 .4158-.0187.4158s-.0374-.1701-.0561-.4914c-.0188-.3213-.0562-.7937-.0375-1.3607 0-.5858 0-1.2662.0375-2.0222.0561-.7559.0748-1.6064.1872-2.4757.0936-.8693.2059-1.8332.3744-2.7781.1498-.9639.3557-1.9277.5616-2.8537.1685-.7371.3557-1.4552.5429-2.0978-.131-.1323-.1872-.2268-.2059-.567 0-.189 0-.4535.0375-.8504.0187-.2079.0374-.4347.0561-.6993-.0374.1134-.0749.2079-.1123.3213-.1498.4536-.3183.9072-.4306 1.3607-.131.4536-.2434.9072-.3744 1.3607-.1311.4536-.2434.9072-.337 1.3796-.0936.4725-.2059.9261-.2995 1.4175-.0749.4913-.1685.9827-.2434 1.4741-.0375.2456-.0749.5102-.1311.7748-.0374.2646-.0561.5292-.0936.7938-.337 2.6458-.4493 6.0287-.1685 9.2793.2621 3.2695.9174 6.4067 1.5352 8.6367.6178 2.2301 1.6287 4.9893 2.9018 7.5406 1.2543 2.5703 2.7895 4.8948 4.0063 6.4823.5804.8127 1.2544 1.5875 1.8909 2.3624.337.359.6552.7181.9735 1.0772.1498.1701.3183.3402.468.5103.1685.1511.3183.3212.4681.4724.599.6048 1.1607 1.1717 1.6287 1.5875.2621.2457.4868.4536.6927.6237.1311.0945.2621.189.3744.2457.5055.3401.9361.6236 1.4041.926.4868.2835.9923.567 1.6288.9827zm22.5779 8.6935c.0187-.0945-.0375-.1512-.0936-.1323-.0749.0378-.0749.1134-.0188.189.0375.0756.0936.0567.1124-.0567zM10.9856 80.1058c-.2995-.4725-.1123-.0567.5055.8882.5991.9449.8799 1.3229.5804.8315-.2621-.4724-.7676-1.2473-1.0859-1.7197zM4.6391 57.8997c0-.4158-.03745-.9072-.09361-1.0961-.05616-.189-.05616.1511 0 .7559.05616.6615.09361.8127.09361.3402zm4.94242-6.728c-.01872.7182 0 1.0017.03744.6426.03744-.3591.05617-.9261.05617-1.2851-.01873-.3591-.05617-.0756-.09361.6425zM11.229 65.6293c-.0749-.1512-.0187.1512.131.6614.1685.5859.2247.6993.1498.2835-.0749-.359-.2059-.7937-.2808-.9449zm10.5775 20.8453c-.131-.0756-.0561.0189.1685.2079.2247.189.3183.2646.2247.1323-.0749-.0945-.2621-.2457-.3932-.3402zm77.1505-8.8635c-.0562.189-.0187.1512.1123-.1134.1311-.2268.1685-.378.1124-.3213-.0749.0756-.1685.2646-.2247.4347zM15.9655 32.8966c.0374-.0378.131-.2268.1685-.4158.0936-.3968.0187-.3024-.1498.1701-.0562.1701-.0562.2835-.0187.2457zm-5.2233 39.8575c-.131-.3213-.3182-.6614-.4305-.7748-.1685-.1323-.1498-.0945.0187.1701.131.189.3182.5291.4306.7748.1497.2835.131.2457-.0188-.1701zm34.1102 26.6851c.0188-.0756-1.61-.2079-1.8721-.1512-.2246.0567.2808.1134 1.479.189.2059 0 .3931-.0189.3931-.0378zM17.5568 82.5437c-.1123-.0945-.0562.0189.131.2268.1873.2268.2809.3024.206.1701-.0749-.1134-.2247-.3024-.337-.3969zm-9.84741-1.3985c-.11233-.1323-.05617 0 .13105.2835.18721.2835.28082.3968.20593.2457-.07488-.1512-.22465-.3969-.33698-.5292zm-.74885-.9072c.11232.189.26209.3969.33698.4536.2621.189.09361-.1134-.22466-.4536-.24337-.2834-.28081-.2834-.11232 0zm8.18116 8.9581c-.2059-.1701-.599-.5103-.8799-.7749-1.1794-1.115-2.4712-2.4568-3.2575-3.2884-.4867-.4913-1.14196-1.2473-1.49767-1.6631-.63652-.7559-.63652-.737.11233.2268.20594.2646.44934.567.65524.8127.2059.2457.4119.4535.5055.548.1123.1134.3744.3969.7301.7749.1685.189.3744.3969.5804.6236.2059.2079.4306.4347.6552.6615.4493.4536.8799.926 1.2918 1.2851.3931.3591.7114.6615.8424.7749.2809.2457.5242.4157.5617.3779.0562-.0189-.0936-.1889-.2996-.359zm-.6552-9.9597c.1685.2457.2621.3402.1872.189-.0562-.1323-.2059-.3402-.3182-.4536-.0749-.0945-.0375.0189.131.2646zm-2.5461-4.4979c-.0374-.1512-.1498-.3591-.2434-.4914-.0936-.1134-.0561 0 .0749.2646.1311.2835.2059.378.1685.2268zm-.5429-.8315c0-.0756-.0936-.2457-.1872-.378-.1124-.1512-.0936-.0945 0 .1323.1123.2268.2059.3213.1872.2457zm4.6616 7.1437c.1872.2268.2808.3213.2059.189-.0749-.1323-.2246-.3213-.337-.4347-.1123-.0945-.0561.0189.1311.2457zm.9173 1.0394c.1311.189.2434.2646.2247.189-.0187-.0756-.1311-.2268-.2621-.3213-.1311-.1134-.1123-.0567.0374.1323zm-6.4027-27.1197c-.0374.0567.0188.6047.0937 1.2095.0748.6048.1684 1.0583.1872 1.0016.0187-.0567-.0375-.6047-.1124-1.2095-.0748-.6047-.1497-1.0583-.1685-1.0016zm2.6398 21.658c-.0188-.1701-.9923-1.6064-1.0672-1.5686-.0561.0378 0 .1323.7302 1.1717.1872.2835.3557.4725.337.3969z" fill="#0A5780"/><g clip-path="url(#clip1)" fill="#BFE9FF"><path d="M52.8932 53.7022c.0346-.3126-.0346-.5558-.2075-.938-.588-1.2853-1.1759-2.6054-1.7638-3.8908-1.2451-2.7791-2.0406-5.732-2.3864-8.7543-.1729-1.4938-.2421-3.0223-.2075-4.5509.0346-1.598.3112-3.196.6917-4.7593.3112-1.2506.5879-2.536 1.3488-3.5781.7955-1.1465 2.248-2.5708 3.5623-3.0571.6225-.2085 1.3142-.2432 1.9713-.0348.3458.1043.6571.2432.9684.4517.3112.2084.415.5558.83.66.7955.139 1.3488-.3127 1.9714.4864.4841.6253.7608 1.3895.9338 2.1885.5187 2.4665.3112 5.0025-.0692 7.469-.3459 2.4665-.7263 4.9678-1.1067 7.4343-.2767 1.8759-.7263 3.7171-1.3834 5.4888-.6226 1.7022-1.6601 3.196-2.3172 4.8983-.2767.66.3458 1.6327.4842 2.2928.1729.6948.2421 1.3895.2766 2.0843.0346.7296-.3458 1.2159-.415 1.9107-.0692.5211.1038 1.0422.1729 1.5633.8301 5.3499.8301 10.7345.8993 16.1538 0 .938-.2076 1.9802-1.0376 2.536-.5879.3821-1.1759.2779-1.6255-.2779-.6917-.9032-.8646-2.2928-.9684-3.4045-.2421-2.5707-.415-5.1762-.5533-7.7816-.0692-1.6675-.1038-3.3003-.1038-4.9678 0-1.5285.2075-3.196-.2421-4.655-.3112-1.1117-.3458-2.2581-.3458-3.4045 0-.4169.2767-.7643.4496-1.1117.0691-.1737.1383-.3126.1729-.4516zm1.9022-.799c.83-.2779 1.2104-1.3548 1.5563-2.0496 1.5563-3.0224 2.3864-6.3573 2.8706-9.7271.3112-2.0843.5879-4.1687.83-6.2531.2075-1.9801.4496-3.9255.2075-5.9404-.1383-1.0769-.4842-2.8139-1.7638-3.0918-.6226-.139-1.2105.4863-1.418 1.0074-.1038.2085-.1038.4169-.0346.6253.0692.139.2075.2779.3113.3822.7608.7642.8646 1.7717 1.0029 2.7791.173 1.2159.1384 2.4665.0346 3.7171-.2075 2.9182-.83 5.8015-1.3834 8.6502-.5533 2.8486-1.245 5.7667-2.0751 8.5806-.1383.3821-.2767.8685-.1383 1.3201zm-1.2451 11.7419c0 1.1117.0346 2.2234.0692 3.3698.0692 1.3548.1383 2.7096.2075 4.0645.1037 1.459.1037 2.9528.415 4.3772.1038.4863 1.1067 3.6823 1.8676 2.397.2075-.3822.2767-.799.3113-1.2506.0691-1.2854 0-2.6402-.0346-3.9256-.1038-3.8561-.1038-7.8164-.7263-11.6725-.1383-.7642-.0692-2.5707-1.1413-2.5707-.7263 0-.9684.5906-.9684 1.2506v3.9603zm-.7609-13.8263c.0346 0 .2076-1.0769.2421-1.1464.0346-.5211 0-1.0421-.0345-1.5632-.2076-1.8065-.8301-3.5435-1.1759-5.3152-.6917-3.6129-1.2797-7.2605-1.0376-10.9429.1038-1.3548.3805-2.7444 1.5563-3.6824.588-.4516.4496-1.2506-.3112-1.3548-.8301-.1042-1.5563 1.0769-1.7639 1.737-.7954 2.9528-1.4179 5.8362-1.3142 8.928.1038 3.1265.7609 6.2531 1.7638 9.2059.4497 1.2507 1.003 3.2656 2.0751 4.134zm3.8736-22.4069c-.0346 0-.0692 0-.1384.0347-.2767.1043-.5188 1.3201-.6225 1.598-.2421.7643-.4842 1.5981-.5534 2.3971-.2766 2.7791-.415 5.5583-.5187 8.3722-.0692 1.9106.0691 3.8213.1383 5.6972 0 .2432.0346.5211.1729.6948.3459-.3474.5188-.799.6226-1.2506.6571-2.6749 1.2796-5.3846 1.6946-8.129.415-2.675.6917-5.3152.1384-7.9554-.0692-.3126-.4842-1.4243-.9338-1.459zm-.8301-.4516c0-.0348-.0346-.0348-.0346-.0695-.2421-.3127-1.0375-.2084-1.3834-.1737-.2075 0-.415.0347-.5533.1737-.2421.1737-.2421.5211-.2421.8337v6.7742c0 2.1886.1383 4.412-.1384 6.5658-.1383 1.1464-.1383 2.2928-.0345 3.4392.0345.5558.1037 1.1464.1729 1.7022.0692.3822.0346 1.1464.2767 1.4591.3804.4863.415-.3474.415-.5211.0346-.5906.0346-1.1811.0346-1.7717 0-1.1812-.0346-2.3276-.0692-3.5087-.0692-2.3275-.1383-4.6898.0692-7.0174.1037-1.2506.2421-2.4665.4496-3.7171.1729-.9727.4496-1.9107.7263-2.8486.1383-.3474.5187-.938.3112-1.3201zm-3.0089.799c-.9683.6253-1.245 1.1811-1.3834 2.397-.1037.9032-.1383 1.8412-.1037 2.7792.0691 1.5632.1383 3.1613.3458 4.7245.1384 1.2854.4842 2.5707.7609 4.0993.7263-1.5286.8992-12.0199.3804-14zm.173 27.6873c-.0346.6948 0 1.7717.6571 1.9107.4842.1042 1.3142.2432 1.7292-.0347.5188-.3474.2767-1.3896.1729-1.876-.1383-.7642-.2421-1.7022-1.1758-1.8064-.9338-.0695-1.3143.66-1.3834 1.459v.3474zm-.3113-30.7096c-.2075 1.459 2.9743 1.9801 3.7352 1.1464.7608-.7991.3458-1.8412-.6571-2.1539-.5534-.1737-1.1414-.1737-1.7293.0347-.3113.139-1.3142.5906-1.3488.9728z"/><path d="M66.7617 66.1043c-.1383-.9033-.6917-1.5286-1.2105-2.1886-.7263-.9032-1.3834-1.8412-2.1097-2.8139.4496-.2084.8301-.2779 1.3143-.2779.2075 0 .4496 0 .6571.0347.9684.139 1.833.4516 2.836.3821.7954-.0694 1.6946-.2779 2.3863-.6947 1.3834-.8685.2075-2.3971-1.0375-2.5013-1.7985-.1737-3.3894.2779-4.6344 1.598-.8992.938-1.9368.9033-3.0089.6948-.3113-.0695-.6225-.1737-.8992-.2779-.5534-.1737-1.9368 1.5633-2.2135 1.9454-.5533.7643-.8646 1.7023-1.0029 2.6055-.1038.5905-.1384 1.2506.5187 1.6327.8993.5211 2.1443.139 2.5247-.8337.4842-1.1812.8993-2.397 1.3834-3.6824.7263.2779 1.3489.7643 1.7985 1.598-1.003.9032-1.5218 2.0496-1.7293 3.3697-.2075 1.3201.588 2.1192 1.5563 2.5708.6572.3126 1.5564.1042 2.006-.4516.5879-.7991 1.0375-1.6328.8646-2.7097zm1.833-7.5038c.415-.0347.83 0 1.2105.1043.5188.1389.9684.4863.5533 1.0074-.4842.6253-1.4525.9032-2.2134.938-.415.0347-.7955-.0348-1.2105-.139-.2075-.0695-1.0029-.2432-1.0721-.4863-.2075-.5559 1.3834-1.1812 1.7292-1.2507.3113-.1042.6572-.1389 1.003-.1737zm-8.4733 6.7742c-.2075.2432-.5188.4169-.8992.3822-.4496-.0348-.6226-.4516-.6226-.9032 0-1.3549.588-2.4318 1.5909-3.2656.4497-.3821.8647-.1737.9338.4169.0692.6601-.1037 1.3201-.3458 1.9454-.1729.4516-.3459 1.0422-.6571 1.4243zm4.7381 3.3698c-.3804.1389-.8646-.2779-1.1413-.4864-.3804-.3126-.6571-.6948-.6917-1.2159-.0692-.5558.1384-1.1464.3805-1.6327.1729-.3474.5533-1.1117 1.0375-1.0769.4842 0 .7263.2084.9684.6253.3458.5905.6571 1.2506.6571 1.9454-.0346.6948-.5534 1.6327-1.2105 1.8412zM49.9535 53.7369c-.415-.799-1.245-.4169-1.9713-.5558-.6571-.139-1.3142-.3474-2.0059-.4516-1.003-.1042-1.4872.1042-1.6255 1.1116-.0692.5211-.2767.8685-.6917 1.1812-.3113.2084-.6226.5906-.6917.9379-.1384 1.1464-.3459 2.3276.6571 3.1961.2421.2084.5879.4863.8992.4863.6225-.0347.7955.6601 1.3142.8338.5188.2084 1.2105-.2432 1.6947-.4169.5879-.2432 1.1413-.4864 1.7292-.66.6917-.2085 1.2451-.6948 1.003-1.4591-.0692-.2084-.1383-.3821-.1729-.6253-.0346-.3474.2767-.5558.4496-.8338.6225-.8337-.1729-1.9454-.588-2.7444zm-1.833 2.8139v.0695c-.2075.938-1.4179 1.6327-2.2826 1.1464-.7608-.4169-1.0029-1.5285-.4496-2.1886.3459-.4516.9684-.6253 1.5218-.5906.8646 0 1.3834.6948 1.2104 1.5633zM64.9634 56.8982c.5534-.6948-.1037-1.3201-.2421-2.0149-.1383-.66-.1729-1.3548-.3804-2.0148-.2767-.9727-.6917-1.3201-1.6255-1.077-.5188.139-.8992.0695-1.3488-.2084-.3113-.2084-.7955-.3474-1.1413-.2779-1.1067.3126-2.2826.5906-2.6976 1.8759-.1038.3127-.2076.7295-.1038 1.0075.2767.5558-.2767.9727-.2767 1.5285.0346.5558.6917 1.0422 1.0722 1.3896.4496.4516.8992.8685 1.2796 1.3548.4496.5558 1.1413.8685 1.7292.3474.173-.139.3113-.2779.5188-.3821.3113-.139.6225.0347.9338.1042 1.003.2084 1.7293-.938 2.2826-1.6328zm-3.2855-.6253h-.0692c-.9684.1737-2.0405-.66-1.9368-1.6675.0692-.8685 1.0376-1.5285 1.833-1.2853.5534.1737.9338.66 1.1413 1.1811.3113.8338-.1383 1.598-.9683 1.7717zM51.9596 59.3648c.1037.0347.1383.1389.1037.4168-.1037.4516-.6225.8685-1.0029 1.1464-1.2105.8338-1.6947 2.1539-2.3518 3.335-.3113.5211-.173 1.0422.1729 1.4938.6571.799.7955 1.737.5879 2.7444-.1383.6601-.415 2.0497-1.0721 2.3971-.2075.1042-.5188.1042-.7263.1042-.3804 0-.4842-.1042-.6225-.4516-.8646-2.536-.1038-5.0373 1.4871-7.0869-.8646-.0347-1.4525.1737-2.0405.3821-1.1067.3474-2.248.8685-3.4239.5559-.3112-.0695-.5879-.2085-.7608-.4516-.4497-.6253-.1038-1.5633.5879-1.8065.3113-.1042.6225-.1042.9684-.0695.3804.0348.7954.0348 1.1759.0695.4496.0695.83.2779 1.2796.3474.7609.1042 1.5563.0695 2.248-.2779 1.0376-.5211 1.6255-1.598 2.5247-2.2928.173-.2432.6226-.6253.8647-.5558zm-4.0811 10.8039c.0692 0 .1384 0 .2075-.0347.6226-.3474.7609-1.4591.8301-2.0844.0346-.3821.0692-.799-.1038-1.1811-.0691-.139-.9338-1.0769-.9684-.9727-.4496 1.0422-.6917 2.258-.415 3.3697.0692.2432.173.8685.4496.9032zm-2.0405-7.0868c-.0346 0-.6571-.3474-.7263-.3822-.2766-.1042-.5533-.1389-.83-.1737-.4842-.0347-1.0721 0-1.3142.4517-.3113.5558.5533.6947.8992.7295.6571 0 1.4525-.1737 1.9713-.6253zM36.5691 57.7667c-.1729-.2084.0346-.8685.1038-1.0769.2421-.7296.7954-1.2506 1.418-1.6675.4841-.3127 1.0375-.5906 1.5563-.8685.1383-.0695 1.418-.8685 1.4526-.8338-.3805-.3473-.6572-.6253-.9684-.8684-.7609-.6948-1.418-1.4244-1.6601-2.4665-.1383-.4864-.0692-1.8412.7609-1.5981 1.3834.3822 1.5217 1.9107 2.2826 2.9182-.0346-.0695.415-.938.4842-1.077.2075-.6948.3804-1.7717 1.1759-2.0496 1.5909-.5558 1.5563 1.598 1.2104 2.5013-.3112.7642-.83 1.4937-1.2796 2.2233-.4842.7642-.9684 1.5285-1.4872 2.258-.5879.8338-1.418 1.4244-2.3172 1.876-.4496.2431-.8992.4168-1.3834.5905-.3458.1043-.9683.4169-1.3488.139 0 .0347 0 0 0 0zm5.672-4.5509c-.0346-.1389.6917-.8685.7954-1.0074.2421-.3474.4496-.6948.588-1.0769.2075-.5211.4841-1.1464.3804-1.7023-.1383-.7642-.8992-.5905-1.1413.0348-.5188 1.1116-.8301 2.4317-.6225 3.7518zm-.6917 1.0769c-1.7639 0-4.0119 1.4938-4.254 2.8139 1.6601-.5558 3.2164-1.0769 4.254-2.8139zm-.9338-2.5012c-.0346-.2779 0-.5906-.0692-.8685-.0692-.2779-.1729-.5905-.3113-.8337-.1729-.2779-.6571-.799-1.0029-.8685-.6226-.1042-.0692 1.2159.0691 1.4938.2767.5211.7955.8685 1.3143 1.0769zM68.5255 46.7543c.5188-.0348.9338.7642.8301 1.2853-.1384.7296-.3804 1.4591-.6225 2.1886-.1384.4169-.4151.7643-.7263 1.3896.5879-.139.8992-.2432 1.245-.2779.588-.0695 2.9398-.5211 2.1097.9032-.2767.4864-.9684.9032-1.4871 1.1117-1.1759.4516-2.4556.3474-3.7006.2084-.4496-.0347-.6226-.4516-.415-1.0422.4841-1.3201 1.0029-2.6402 1.5217-3.9603.2421-.5906.3804-1.3201.9338-1.7022.1037-.0695.2075-.1042.3112-.1042zm-1.7638 5.1067c.0346-.1043.3805-.3474.4496-.4516.1729-.1737.3113-.3822.4842-.5559.2421-.3474.4496-.7295.6225-1.1116.173-.4517.2767-.9033.2421-1.3896 0-.3822-.0345-1.0075-.4496-.5558-.4496.4863-.5187 1.2506-.7608 1.8411-.2421.7296-.4496 1.4591-.588 2.2234zm1.0722.9379c.5533.1043 1.1758.2085 1.7292.0348.2421-.0695 1.003-.5211.9684-.8685-.0346-.4516-1.1759-.1042-1.418 0-.4842.2084-.8646.5558-1.2796.8337z"/></g></g><defs><clipPath id="clip0"><path fill="#fff" transform="translate(.5)" d="M0 0h106v104H0z"/></clipPath><clipPath id="clip1"><path fill="#fff" transform="translate(36.5 24)" d="M0 0h35v56H0z"/></clipPath></defs></svg>